<svg id="Layer_1" data-name="Layer 1" xmlns="http://www.w3.org/2000/svg" xmlns:xlink="http://www.w3.org/1999/xlink" viewBox="0 0 583.41 269.82"><defs><style>.cls-1{fill:none;}.cls-2{clip-path:url(#clip-path);}.cls-3{fill:#209fda;}.cls-4{fill:#026ba4;}.cls-5{fill:#78212e;}.cls-6{fill:#8a8c8f;}.cls-7{fill:#b72768;}</style><clipPath id="clip-path" transform="translate(-3.47 -3.13)"><rect class="cls-1" x="3.47" y="3.13" width="583.41" height="269.82"/></clipPath></defs><title>edx-logo</title><g class="cls-2"><polygon class="cls-3" points="583.41 42.75 583.41 0 476.88 0 476.88 42.75 501.09 42.75 457.93 95.99 414.73 42.75 439.05 42.75 439.05 0 359.46 0 359.46 47.86 428.24 132.63 359.46 217.48 359.46 226.01 392.25 226.01 392.25 269.82 439.05 269.82 439.05 226.01 411.96 226.01 457.96 169.26 457.97 169.26 504.02 226.01 476.88 226.01 476.88 269.82 583.41 269.82 583.41 226.01 563.43 226.01 487.66 132.63 560.51 42.75 583.41 42.75"/><polygon class="cls-4" points="332.01 0 332.01 42.75 355.31 42.75 359.46 47.86 359.46 0 332.01 0"/><polygon class="cls-4" points="359.46 226.01 359.46 217.48 352.54 226.01 332.01 226.01 332.01 269.82 392.25 269.82 392.25 226.01 359.46 226.01"/><path class="cls-5" d="M164.47,209.06H202.3a103.67,103.67,0,0,1-18.55,30,104.5,104.5,0,0,1-19.28-30" transform="translate(-3.47 -3.13)"/><path class="cls-5" d="M183.75,97.77a104.3,104.3,0,0,0-23.48,41.93,61.47,61.47,0,0,1,4.29,10.78H202a60.16,60.16,0,0,1,4.4-10.62A104.39,104.39,0,0,0,183.75,97.77Zm-19.19,52.71a64.26,64.26,0,0,1,.28,34.84h36.83a61.34,61.34,0,0,1,.3-34.84H164.56Zm0,0h-6.75a105.56,105.56,0,0,0-.17,34.84h7.2A64.27,64.27,0,0,0,164.56,150.48Z" transform="translate(-3.47 -3.13)"/><path class="cls-6" d="M358.78,45.88H335.48V3.14h-44V45.88h28.42V82.73a100.53,100.53,0,0,0-59.1-18.86,104.24,104.24,0,0,0-77.06,33.9,104.38,104.38,0,0,1,22.62,42.09,61,61,0,0,1,53.94-32.47c33.7,0,59.61,27.32,59.61,61v0.33c-0.17,33.54-26,60.68-59.61,60.68a61,61,0,0,1-53.94-32.47h0a60.54,60.54,0,0,1-4.7-11.62h-44a104.18,104.18,0,0,0,6.83,23.73H202.3a103.67,103.67,0,0,1-18.55,30,104.24,104.24,0,0,0,77.06,33.9,100.44,100.44,0,0,0,74.68-32.71V229.15H356l6.92-8.54V51ZM319.91,254.08V273h15.58V240.22A101.37,101.37,0,0,1,319.91,254.08ZM160.27,139.7a101.58,101.58,0,0,0-2.46,10.78h6.75A61.48,61.48,0,0,0,160.27,139.7Z" transform="translate(-3.47 -3.13)"/><path class="cls-7" d="M208.67,150.48a107.36,107.36,0,0,0-2.3-10.62,60.16,60.16,0,0,0-4.4,10.62,61.34,61.34,0,0,0-.3,34.84h7.16A111,111,0,0,0,208.67,150.48ZM108,63.87A104.55,104.55,0,0,0,5,150.48H49.17a61,61,0,0,1,58.33-43.09,58.84,58.84,0,0,1,52.76,32.31,104.29,104.29,0,0,1,23.48-41.93A100.35,100.35,0,0,0,108,63.87Zm44.21,145.19a58.59,58.59,0,0,1-44.71,20.36,61,61,0,0,1-58.63-44.09H157.64a105.56,105.56,0,0,1,.17-34.84H5a105.56,105.56,0,0,0-.17,34.84h0A104.56,104.56,0,0,0,108,272.93,100.35,100.35,0,0,0,183.75,239a104.5,104.5,0,0,1-19.28-30H152.21Z" transform="translate(-3.47 -3.13)"/></g><rect class="cls-1" width="583.41" height="269.82"/></svg>