<?xml version="1.0" encoding="utf-8"?>
<!-- Generated by IcoMoon.io -->
<!DOCTYPE svg PUBLIC "-//W3C//DTD SVG 1.1//EN" "http://www.w3.org/Graphics/SVG/1.1/DTD/svg11.dtd">

<svg version="1.1" xmlns="http://www.w3.org/2000/svg" xmlns:xlink="http://www.w3.org/1999/xlink" width="496" height="176" viewBox="0 0 496 176">
<g transform="translate(0 0)">
	<path fill="#000000" d="M2 3.333v9.333c0 0.737 0.597 1.333 1.333 1.333h9.333c0.737 0 1.333-0.597 1.333-1.333v-9.333c0-0.737-0.597-1.333-1.333-1.333h-9.333c-0.737 0-1.333 0.597-1.333 1.333zM10 6c0 1.107-0.897 2-2 2s-2-0.893-2-2c0-1.103 0.897-2 2-2s2 0.897 2 2zM4 11.333c0-1.333 2.667-2.067 4-2.067s4 0.733 4 2.067v0.667h-8v-0.667z"></path>
</g>
<g transform="translate(32 0)">
	<path fill="#000000" d="M8 1.333c-3.683 0-6.667 2.983-6.667 6.667s2.983 6.667 6.667 6.667 6.667-2.983 6.667-6.667-2.983-6.667-6.667-6.667zM8 3.333c1.103 0 2 0.897 2 2 0 1.107-0.897 2-2 2s-2-0.893-2-2c0-1.103 0.897-2 2-2zM8 12.8c-1.67 0-3.137-0.853-4-2.147 0.017-1.323 2.67-2.053 4-2.053s3.98 0.73 4 2.053c-0.863 1.293-2.33 2.147-4 2.147z"></path>
</g>
<g transform="translate(64 0)">
	<path fill="#000000" d="M14.667 3.813l-3.063-2.57-0.857 1.020 3.063 2.57 0.857-1.020zM5.253 2.26l-0.857-1.020-3.063 2.57 0.857 1.020 3.063-2.57zM8.333 5.333h-1v4l3.163 1.903 0.503-0.823-2.667-1.58v-3.5zM7.997 2.667c-3.317 0-5.997 2.687-5.997 6s2.68 6 5.997 6 6.003-2.687 6.003-6-2.687-6-6.003-6zM8 13.333c-2.577 0-4.667-2.090-4.667-4.667s2.090-4.667 4.667-4.667 4.667 2.090 4.667 4.667-2.087 4.667-4.667 4.667z"></path>
</g>
<g transform="translate(96 0)">
	<path fill="#000000" d="M12.667 2h-2.79c-0.273-0.773-1.007-1.333-1.877-1.333s-1.603 0.56-1.877 1.333h-2.79c-0.737 0-1.333 0.597-1.333 1.333v9.333c0 0.737 0.597 1.333 1.333 1.333h9.333c0.737 0 1.333-0.597 1.333-1.333v-9.333c0-0.737-0.597-1.333-1.333-1.333zM8 2c0.367 0 0.667 0.297 0.667 0.667s-0.3 0.667-0.667 0.667-0.667-0.297-0.667-0.667 0.3-0.667 0.667-0.667zM9.333 11.333h-4.667v-1.333h4.667v1.333zM11.333 8.667h-6.667v-1.333h6.667v1.333zM11.333 6h-6.667v-1.333h6.667v1.333z"></path>
</g>
<g transform="translate(128 0)">
	<path fill="#000000" d="M11.333 2h-6.667c-0.737 0-1.327 0.597-1.327 1.333l-0.007 10.667 4.667-2 4.667 2v-10.667c0-0.737-0.597-1.333-1.333-1.333z"></path>
</g>
<g transform="translate(160 0)">
	<path fill="#000000" d="M11.333 2h-6.667c-0.737 0-1.327 0.597-1.327 1.333l-0.007 10.667 4.667-2 4.667 2v-10.667c0-0.737-0.597-1.333-1.333-1.333zM11.333 12l-3.333-1.45-3.333 1.45v-8.667h6.667v8.667z"></path>
</g>
<g transform="translate(192 0)">
	<path fill="#000000" d="M13.333 2.667h-10.667c-0.737 0-1.327 0.597-1.327 1.333l-0.007 8c0 0.737 0.597 1.333 1.333 1.333h10.667c0.737 0 1.333-0.597 1.333-1.333v-8c0-0.737-0.597-1.333-1.333-1.333zM13.333 12h-10.667v-4h10.667v4zM13.333 5.333h-10.667v-1.333h10.667v1.333z"></path>
</g>
<g transform="translate(224 0)">
	<path fill="#000000" d="M4 12.667c0 0.737 0.597 1.333 1.333 1.333h5.333c0.737 0 1.333-0.597 1.333-1.333v-8h-8v8zM12.667 2.667h-2.333l-0.667-0.667h-3.333l-0.667 0.667h-2.333v1.333h9.333v-1.333z"></path>
</g>
<g transform="translate(256 0)">
	<path fill="#000000" d="M9.333 1.333h-5.333c-0.737 0-1.327 0.597-1.327 1.333l-0.007 10.667c0 0.737 0.59 1.333 1.327 1.333h8.007c0.737 0 1.333-0.597 1.333-1.333v-8l-4-4zM10.667 12h-5.333v-1.333h5.333v1.333zM10.667 9.333h-5.333v-1.333h5.333v1.333zM8.667 6v-3.667l3.667 3.667h-3.667z"></path>
</g>
<g transform="translate(288 0)">
	<path fill="#000000" d="M8 14.233l-0.967-0.877c-3.433-3.117-5.7-5.173-5.7-7.69 0-2.057 1.61-3.667 3.667-3.667 1.16 0 2.273 0.54 3 1.39 0.727-0.85 1.84-1.39 3-1.39 2.057 0 3.667 1.61 3.667 3.667 0 2.517-2.267 4.573-5.7 7.69l-0.967 0.877z"></path>
</g>
<g transform="translate(320 0)">
	<path fill="#000000" d="M11 2c-1.16 0-2.273 0.54-3 1.39-0.727-0.85-1.84-1.39-3-1.39-2.057 0-3.667 1.61-3.667 3.667 0 2.517 2.267 4.573 5.7 7.69l0.967 0.877 0.967-0.877c3.433-3.117 5.7-5.173 5.7-7.69 0-2.057-1.61-3.667-3.667-3.667zM8.070 12.37l-0.070 0.063-0.070-0.063c-3.17-2.877-5.263-4.777-5.263-6.703 0-1.33 1.003-2.333 2.333-2.333 1.027 0 2.027 0.663 2.377 1.573h1.243c0.353-0.91 1.353-1.573 2.38-1.573 1.33 0 2.333 1.003 2.333 2.333 0 1.927-2.093 3.827-5.263 6.703z"></path>
</g>
<g transform="translate(352 0)">
	<path fill="#000000" d="M8 1.333c-3.683 0-6.667 2.983-6.667 6.667s2.983 6.667 6.667 6.667 6.667-2.983 6.667-6.667-2.983-6.667-6.667-6.667zM8.667 12.667h-1.333v-1.333h1.333v1.333zM10.043 7.503l-0.597 0.613c-0.48 0.48-0.78 0.883-0.78 1.883h-1.333v-0.333c0-0.737 0.3-1.403 0.78-1.887l0.83-0.84c0.24-0.24 0.39-0.573 0.39-0.94 0-0.737-0.597-1.333-1.333-1.333s-1.333 0.597-1.333 1.333h-1.333c0-1.473 1.193-2.667 2.667-2.667s2.667 1.193 2.667 2.667c0 0.587-0.237 1.117-0.623 1.503z"></path>
</g>
<g transform="translate(384 0)">
	<path fill="#000000" d="M9.723 5.333l-1.723 1.723-1.723-1.723-0.943 0.943 1.723 1.723-1.723 1.723 0.943 0.943 1.723-1.723 1.723 1.723 0.943-0.943-1.723-1.723 1.723-1.723-0.943-0.943zM8 1.333c-3.683 0-6.667 2.983-6.667 6.667s2.983 6.667 6.667 6.667 6.667-2.983 6.667-6.667-2.983-6.667-6.667-6.667zM8 13.333c-2.94 0-5.333-2.393-5.333-5.333s2.393-5.333 5.333-5.333 5.333 2.393 5.333 5.333-2.393 5.333-5.333 5.333z"></path>
</g>
<g transform="translate(416 0)">
	<path fill="#000000" d="M6.667 13.333v-4h2.667v4h3.333v-5.333h2l-6.667-6-6.667 6h2v5.333z"></path>
</g>
<g transform="translate(448 0)">
	<path fill="#000000" d="M12.667 12.667h-9.333v-9.333h4.667v-1.333h-4.667c-0.737 0-1.333 0.597-1.333 1.333v9.333c0 0.737 0.597 1.333 1.333 1.333h9.333c0.737 0 1.333-0.597 1.333-1.333v-4.667h-1.333v4.667zM9.333 2v1.333h2.39l-6.553 6.553 0.943 0.943 6.553-6.553v2.39h1.333v-4.667h-4.667z"></path>
</g>
<g transform="translate(480 0)">
	<path fill="#000000" d="M8 11.333c0.737 0 1.333-0.597 1.333-1.333s-0.597-1.333-1.333-1.333-1.333 0.597-1.333 1.333 0.597 1.333 1.333 1.333zM12 5.333h-0.667v-1.333c0-1.84-1.493-3.333-3.333-3.333s-3.333 1.493-3.333 3.333h1.267c0-1.14 0.927-2.067 2.067-2.067s2.067 0.927 2.067 2.067v1.333h-6.067c-0.737 0-1.333 0.597-1.333 1.333v6.667c0 0.737 0.597 1.333 1.333 1.333h8c0.737 0 1.333-0.597 1.333-1.333v-6.667c0-0.737-0.597-1.333-1.333-1.333zM12 13.333h-8v-6.667h8v6.667z"></path>
</g>
<g transform="translate(0 32)">
	<path fill="#000000" d="M12 5.333h-0.667v-1.333c0-1.84-1.493-3.333-3.333-3.333s-3.333 1.493-3.333 3.333v1.333h-0.667c-0.737 0-1.333 0.597-1.333 1.333v6.667c0 0.737 0.597 1.333 1.333 1.333h8c0.737 0 1.333-0.597 1.333-1.333v-6.667c0-0.737-0.597-1.333-1.333-1.333zM8 1.933c1.14 0 2.067 0.927 2.067 2.067v1.333h-4.067v-1.333h-0.067c0-1.14 0.927-2.067 2.067-2.067zM12 13.333h-8v-6.667h8v6.667zM8 11.333c0.737 0 1.333-0.597 1.333-1.333s-0.597-1.333-1.333-1.333-1.333 0.597-1.333 1.333 0.597 1.333 1.333 1.333z"></path>
</g>
<g transform="translate(32 32)">
	<path fill="#000000" d="M14 4h-1.333v6h-8.667v1.333c0 0.367 0.3 0.667 0.667 0.667h7.333l2.667 2.667v-10c0-0.367-0.3-0.667-0.667-0.667zM11.333 8v-6c0-0.367-0.3-0.667-0.667-0.667h-8.667c-0.367 0-0.667 0.3-0.667 0.667v9.333l2.667-2.667h6.667c0.367 0 0.667-0.3 0.667-0.667z"></path>
</g>
<g transform="translate(64 32)">
	<path opacity="0.9" d="M7.997 1.333c-3.683 0-6.663 2.983-6.663 6.667s2.98 6.667 6.663 6.667c3.683 0 6.67-2.983 6.67-6.667s-2.987-6.667-6.67-6.667zM8 13.333c-2.947 0-5.333-2.387-5.333-5.333s2.387-5.333 5.333-5.333 5.333 2.387 5.333 5.333-2.387 5.333-5.333 5.333z"></path>
	<path opacity="0.9" d="M8.333 4.667h-1v4l3.497 2.1 0.503-0.82-3-1.78z"></path>
</g>
<g transform="translate(96 32)">
	<path fill="#000000" d="M10.333 9.333h-0.53l-0.183-0.183c0.653-0.757 1.047-1.74 1.047-2.817 0-2.393-1.94-4.333-4.333-4.333s-4.333 1.94-4.333 4.333 1.94 4.333 4.333 4.333c1.077 0 2.060-0.393 2.817-1.043l0.183 0.183v0.527l3.333 3.327 0.993-0.993-3.327-3.333zM6.333 9.333c-1.657 0-3-1.343-3-3s1.343-3 3-3 3 1.343 3 3-1.343 3-3 3z"></path>
</g>
<g transform="translate(128 32)">
	<path fill="#000000" d="M12.953 8.65c0.027-0.213 0.047-0.43 0.047-0.65s-0.020-0.437-0.047-0.65l1.41-1.103c0.127-0.1 0.163-0.28 0.080-0.427l-1.333-2.31c-0.083-0.143-0.257-0.203-0.407-0.143l-1.66 0.67c-0.343-0.263-0.72-0.487-1.127-0.657l-0.25-1.767c-0.030-0.157-0.167-0.28-0.333-0.28h-2.667c-0.167 0-0.303 0.123-0.33 0.28l-0.25 1.767c-0.407 0.17-0.783 0.39-1.127 0.657l-1.66-0.67c-0.15-0.057-0.323 0-0.407 0.143l-1.333 2.31c-0.083 0.143-0.047 0.323 0.080 0.427l1.407 1.103c-0.027 0.213-0.047 0.43-0.047 0.65s0.020 0.437 0.047 0.65l-1.407 1.103c-0.127 0.1-0.163 0.28-0.080 0.427l1.333 2.31c0.083 0.143 0.257 0.203 0.407 0.143l1.66-0.67c0.343 0.263 0.72 0.487 1.127 0.657l0.25 1.767c0.027 0.157 0.163 0.28 0.33 0.28h2.667c0.167 0 0.303-0.123 0.33-0.28l0.25-1.767c0.407-0.17 0.783-0.39 1.127-0.657l1.66 0.67c0.15 0.057 0.323 0 0.407-0.143l1.333-2.31c0.083-0.143 0.047-0.323-0.080-0.427l-1.407-1.103zM8 10.333c-1.29 0-2.333-1.043-2.333-2.333s1.043-2.333 2.333-2.333 2.333 1.043 2.333 2.333-1.043 2.333-2.333 2.333z"></path>
</g>
<g transform="translate(160 32)">
	<path fill="#000000" d="M4.667 12c-0.737 0-1.327 0.597-1.327 1.333s0.59 1.333 1.327 1.333 1.333-0.597 1.333-1.333-0.597-1.333-1.333-1.333zM0.667 1.333v1.333h1.333l2.397 5.057-0.9 1.633c-0.103 0.193-0.163 0.41-0.163 0.643 0 0.737 0.597 1.333 1.333 1.333h8v-1.333h-7.717c-0.093 0-0.167-0.073-0.167-0.167 0-0.030 0.007-0.057 0.020-0.080l0.597-1.087h4.967c0.5 0 0.937-0.277 1.167-0.687l2.383-4.327c0.053-0.093 0.083-0.203 0.083-0.32 0-0.37-0.3-0.667-0.667-0.667h-9.857l-0.633-1.333h-2.177zM11.333 12c-0.737 0-1.327 0.597-1.327 1.333s0.59 1.333 1.327 1.333 1.333-0.597 1.333-1.333-0.597-1.333-1.333-1.333z"></path>
</g>
<g transform="translate(192 32)">
	<path fill="#000000" d="M12 2v1.333h-1.333v-1.333h-5.333v1.333h-1.333v-1.333h-1.333v12h1.333v-1.333h1.333v1.333h5.333v-1.333h1.333v1.333h1.333v-12h-1.333zM5.333 11.333h-1.333v-1.333h1.333v1.333zM5.333 8.667h-1.333v-1.333h1.333v1.333zM5.333 6h-1.333v-1.333h1.333v1.333zM12 11.333h-1.333v-1.333h1.333v1.333zM12 8.667h-1.333v-1.333h1.333v1.333zM12 6h-1.333v-1.333h1.333v1.333z"></path>
</g>
<g transform="translate(224 32)">
	<path fill="#000000" d="M8 1.333c-3.68 0-6.667 2.983-6.667 6.667s2.987 6.667 6.667 6.667 6.667-2.983 6.667-6.667-2.987-6.667-6.667-6.667zM8.667 11.333h-1.333v-1.333h1.333v1.333zM8.667 8.667h-1.333v-4h1.333v4z"></path>
</g>
<g transform="translate(256 32)">
	<path fill="#000000" d="M0.667 14h14.667l-7.333-12.667-7.333 12.667zM8.667 12h-1.333v-1.333h1.333v1.333zM8.667 9.333h-1.333v-2.667h1.333v2.667z"></path>
</g>
<g transform="translate(288 32)">
	<path fill="#000000" d="M12.667 2.667h-9.333c-0.737 0-1.333 0.597-1.333 1.333v8c0 0.737 0.597 1.333 1.333 1.333h9.333c0.737 0 1.333-0.597 1.333-1.333v-8c0-0.737-0.597-1.333-1.333-1.333zM7.333 7.333h-1v-0.333h-1.333v2h1.333v-0.333h1v0.667c0 0.367-0.297 0.667-0.667 0.667h-2c-0.37 0-0.667-0.3-0.667-0.667v-2.667c0-0.367 0.297-0.667 0.667-0.667h2c0.37 0 0.667 0.3 0.667 0.667v0.667zM12 7.333h-1v-0.333h-1.333v2h1.333v-0.333h1v0.667c0 0.367-0.297 0.667-0.667 0.667h-2c-0.37 0-0.667-0.3-0.667-0.667v-2.667c0-0.367 0.297-0.667 0.667-0.667h2c0.37 0 0.667 0.3 0.667 0.667v0.667z"></path>
</g>
<g transform="translate(320 32)">
	<path fill="#000000" d="M2.667 12l5.667-4-5.667-4v8zM8.667 4v8l5.667-4-5.667-4z"></path>
</g>
<g transform="translate(352 32)">
	<path fill="#000000" d="M7.333 12v-8l-5.667 4 5.667 4zM7.667 8l5.667 4v-8l-5.667 4z"></path>
</g>
<g transform="translate(384 32)">
	<path fill="#000000" d="M12.667 2.667h-9.333c-0.737 0-1.333 0.597-1.333 1.333v8c0 0.737 0.597 1.333 1.333 1.333h9.333c0.737 0 1.333-0.597 1.333-1.333v-8c0-0.737-0.597-1.333-1.333-1.333zM7.333 10h-1v-1.333h-1.333v1.333h-1v-4h1v1.667h1.333v-1.667h1v4zM12 9.333c0 0.367-0.297 0.667-0.667 0.667h-0.5v1h-1v-1h-0.5c-0.37 0-0.667-0.3-0.667-0.667v-2.667c0-0.367 0.297-0.667 0.667-0.667h2c0.37 0 0.667 0.3 0.667 0.667v2.667zM9.667 9h1.333v-2h-1.333v2z"></path>
</g>
<g transform="translate(416 32)">
	<path fill="#000000" d="M4 12.667h2.667v-9.333h-2.667v9.333zM9.333 3.333v9.333h2.667v-9.333h-2.667z"></path>
</g>
<g transform="translate(448 32)">
	<path fill="#000000" d="M5.333 3.333v9.333l7.333-4.667z"></path>
</g>
<g transform="translate(480 32)">
	<path fill="#000000" d="M4 12l5.667-4-5.667-4v8zM10.667 4v8h1.333v-8h-1.333z"></path>
</g>
<g transform="translate(0 64)">
	<path fill="#000000" d="M4 4h1.333v8h-1.333zM6.333 8l5.667 4v-8z"></path>
</g>
<g transform="translate(32 64)">
	<path fill="#000000" d="M4 4h8v8h-8z"></path>
</g>
<g transform="translate(64 64)">
	<path fill="#000000" d="M13.333 1.333h-10.667c-0.737 0-1.333 0.597-1.333 1.333v12l2.667-2.667h9.333c0.737 0 1.333-0.597 1.333-1.333v-8c0-0.737-0.597-1.333-1.333-1.333z"></path>
</g>
<g transform="translate(96 64)">
	<path fill="#000000" d="M12.667 8.667h-4v4h-1.333v-4h-4v-1.333h4v-4h1.333v4h4v1.333z"></path>
</g>
<g transform="translate(128 64)">
	<path fill="#000000" d="M12.667 2h-9.333c-0.737 0-1.333 0.597-1.333 1.333v9.333c0 0.737 0.597 1.333 1.333 1.333h9.333c0.737 0 1.333-0.597 1.333-1.333v-9.333c0-0.737-0.597-1.333-1.333-1.333zM11.333 8.667h-2.667v2.667h-1.333v-2.667h-2.667v-1.333h2.667v-2.667h1.333v2.667h2.667v1.333z"></path>
</g>
<g transform="translate(160 64)">
	<path fill="#000000" d="M8 1.333c-3.683 0-6.667 2.983-6.667 6.667s2.983 6.667 6.667 6.667 6.667-2.983 6.667-6.667-2.983-6.667-6.667-6.667zM11.333 8.667h-2.667v2.667h-1.333v-2.667h-2.667v-1.333h2.667v-2.667h1.333v2.667h2.667v1.333z"></path>
</g>
<g transform="translate(192 64)">
	<path fill="#000000" d="M8.667 4.667h-1.333v2.667h-2.667v1.333h2.667v2.667h1.333v-2.667h2.667v-1.333h-2.667v-2.667zM8 1.333c-3.683 0-6.667 2.983-6.667 6.667s2.983 6.667 6.667 6.667 6.667-2.983 6.667-6.667-2.983-6.667-6.667-6.667zM8 13.333c-2.94 0-5.333-2.393-5.333-5.333s2.393-5.333 5.333-5.333 5.333 2.393 5.333 5.333-2.393 5.333-5.333 5.333z"></path>
</g>
<g transform="translate(224 64)">
	<path fill="#000000" d="M10.667 0.667h-8c-0.737 0-1.333 0.597-1.333 1.333v9.333h1.333v-9.333h8v-1.333zM12.667 3.333h-7.333c-0.737 0-1.333 0.597-1.333 1.333v9.333c0 0.737 0.597 1.333 1.333 1.333h7.333c0.737 0 1.333-0.597 1.333-1.333v-9.333c0-0.737-0.597-1.333-1.333-1.333zM12.667 14h-7.333v-9.333h7.333v9.333z"></path>
</g>
<g transform="translate(256 64)">
	<path fill="#000000" d="M12.667 1.333h-2.79c-0.273-0.773-1.007-1.333-1.877-1.333s-1.603 0.56-1.877 1.333h-2.79c-0.737 0-1.333 0.597-1.333 1.333v10.667c0 0.737 0.597 1.333 1.333 1.333h9.333c0.737 0 1.333-0.597 1.333-1.333v-10.667c0-0.737-0.597-1.333-1.333-1.333zM8 1.333c0.367 0 0.667 0.297 0.667 0.667s-0.3 0.667-0.667 0.667-0.667-0.297-0.667-0.667 0.3-0.667 0.667-0.667zM12.667 13.333h-9.333v-10.667h1.333v2h6.667v-2h1.333v10.667z"></path>
</g>
<g transform="translate(288 64)">
	<path fill="#000000" d="M2 11.5v2.5h2.5l7.377-7.377-2.5-2.5-7.377 7.377zM13.803 4.697c0.26-0.26 0.26-0.683 0-0.943l-1.557-1.557c-0.26-0.26-0.683-0.26-0.943 0l-1.22 1.22 2.5 2.5 1.22-1.22z"></path>
</g>
<g transform="translate(320 64)">
	<path fill="#000000" d="M14.66 5.333c0-0.48-0.25-0.897-0.627-1.133l-6.033-3.533-6.033 3.533c-0.377 0.237-0.633 0.653-0.633 1.133v6.667c0 0.737 0.597 1.333 1.333 1.333h10.667c0.737 0 1.333-0.597 1.333-1.333l-0.007-6.667zM8 8.667l-5.507-3.443 5.507-3.223 5.507 3.223-5.507 3.443z"></path>
</g>
<g transform="translate(352 64)">
	<path fill="#000000" d="M9.6 4l-0.267-1.333h-6v11.333h1.333v-4.667h3.733l0.267 1.333h4.667v-6.667z"></path>
</g>
<g transform="translate(384 64)">
	<path fill="#000000" d="M13.333 2.667h-10.667c-0.737 0-1.327 0.597-1.327 1.333l-0.007 8c0 0.737 0.597 1.333 1.333 1.333h10.667c0.737 0 1.333-0.597 1.333-1.333v-8c0-0.737-0.597-1.333-1.333-1.333zM13.333 5.333l-5.333 3.333-5.333-3.333v-1.333l5.333 3.333 5.333-3.333v1.333z"></path>
</g>
<g transform="translate(416 64)">
	<path fill="#000000" d="M8 1.333c-3.683 0-6.667 2.983-6.667 6.667s2.983 6.667 6.667 6.667 6.667-2.983 6.667-6.667-2.983-6.667-6.667-6.667zM11.333 8.667h-6.667v-1.333h6.667v1.333z"></path>
</g>
<g transform="translate(448 64)">
	<path fill="#000000" d="M4.667 7.333v1.333h6.667v-1.333h-6.667zM8 1.333c-3.683 0-6.667 2.983-6.667 6.667s2.983 6.667 6.667 6.667 6.667-2.983 6.667-6.667-2.983-6.667-6.667-6.667zM8 13.333c-2.94 0-5.333-2.393-5.333-5.333s2.393-5.333 5.333-5.333 5.333 2.393 5.333 5.333-2.393 5.333-5.333 5.333z"></path>
</g>
<g transform="translate(480 64)">
	<path fill="#000000" d="M11 4v7.667c0 1.473-1.193 2.667-2.667 2.667s-2.667-1.193-2.667-2.667v-8.333c0-0.92 0.747-1.667 1.667-1.667s1.667 0.747 1.667 1.667v7c0 0.367-0.297 0.667-0.667 0.667s-0.667-0.3-0.667-0.667v-6.333h-1v6.333c0 0.92 0.747 1.667 1.667 1.667s1.667-0.747 1.667-1.667v-7c0-1.473-1.193-2.667-2.667-2.667s-2.667 1.193-2.667 2.667v8.333c0 2.027 1.643 3.667 3.667 3.667s3.667-1.64 3.667-3.667v-7.667h-1z"></path>
</g>
<g transform="translate(0 96)">
	<path fill="#000000" d="M4 11.333h2l1.333-2.667v-4h-4v4h2zM9.333 11.333h2l1.333-2.667v-4h-4v4h2z"></path>
</g>
<g transform="translate(32 96)">
	<path fill="#000000" d="M14.66 2.667c0-0.737-0.59-1.333-1.327-1.333h-10.667c-0.737 0-1.333 0.597-1.333 1.333v8c0 0.737 0.597 1.333 1.333 1.333h9.333l2.667 2.667-0.007-12z"></path>
</g>
<g transform="translate(64 96)">
	<path fill="#000000" d="M12.667 6h-2.667v-4h-4v4h-2.667l4.667 4.667 4.667-4.667zM3.333 12v1.333h9.333v-1.333h-9.333z"></path>
</g>
<g transform="translate(96 96)">
	<path fill="#000000" d="M6 10.667h4v-4h2.667l-4.667-4.667-4.667 4.667h2.667zM3.333 12h9.333v1.333h-9.333z"></path>
</g>
<g transform="translate(128 96)">
	<path fill="#000000" d="M8 3c-3.333 0-6.18 2.073-7.333 5 1.153 2.927 4 5 7.333 5s6.18-2.073 7.333-5c-1.153-2.927-3.997-5-7.333-5zM8 11.333c-1.84 0-3.333-1.493-3.333-3.333s1.493-3.333 3.333-3.333 3.333 1.493 3.333 3.333-1.493 3.333-3.333 3.333zM8 6c-1.103 0-2 0.897-2 2s0.897 2 2 2 2-0.897 2-2-0.897-2-2-2z"></path>
</g>
<g transform="translate(160 96)">
	<path fill="#000000" d="M8 1.333c-2.577 0-4.667 2.090-4.667 4.667 0 3.5 4.667 8.667 4.667 8.667s4.667-5.167 4.667-8.667c0-2.577-2.090-4.667-4.667-4.667zM8 7.667c-0.92 0-1.667-0.747-1.667-1.667s0.747-1.667 1.667-1.667 1.667 0.747 1.667 1.667-0.747 1.667-1.667 1.667z"></path>
</g>
<g transform="translate(192 96)">
	<path fill="#000000" d="M2.667 5.333h2.667v-2.667h-2.667v2.667zM6.667 13.333h2.667v-2.667h-2.667v2.667zM2.667 13.333h2.667v-2.667h-2.667v2.667zM2.667 9.333h2.667v-2.667h-2.667v2.667zM6.667 9.333h2.667v-2.667h-2.667v2.667zM10.667 2.667v2.667h2.667v-2.667h-2.667zM6.667 5.333h2.667v-2.667h-2.667v2.667zM10.667 9.333h2.667v-2.667h-2.667v2.667zM10.667 13.333h2.667v-2.667h-2.667v2.667z"></path>
</g>
<g transform="translate(224 96)">
	<path fill="#000000" d="M13.333 7.333h-8.113l3.723-3.723-0.943-0.943-5.333 5.333 5.333 5.333 0.943-0.943-3.723-3.723h8.113v-1.333z"></path>
</g>
<g transform="translate(256 96)">
	<path fill="#000000" d="M4.667 6.667l3.333 3.333 3.333-3.333z"></path>
</g>
<g transform="translate(288 96)">
	<path fill="#000000" d="M4.667 9.333l3.333-3.333 3.333 3.333z"></path>
</g>
<g transform="translate(320 96)">
	<path fill="#000000" d="M8 2.667l-0.943 0.943 3.723 3.723h-8.113v1.333h8.113l-3.723 3.723 0.943 0.943 5.333-5.333z"></path>
</g>
<g transform="translate(352 96)">
	<path fill="#000000" d="M8 1.333c-3.683 0-6.667 2.983-6.667 6.667s2.983 6.667 6.667 6.667 6.667-2.983 6.667-6.667-2.983-6.667-6.667-6.667zM11.333 10.39l-0.943 0.943-2.39-2.39-2.39 2.39-0.943-0.943 2.39-2.39-2.39-2.39 0.943-0.943 2.39 2.39 2.39-2.39 0.943 0.943-2.39 2.39 2.39 2.39z"></path>
</g>
<g transform="translate(384 96)">
	<path fill="#000000" d="M6 10.78l-2.78-2.78-0.943 0.943 3.723 3.723 8-8-0.943-0.943z"></path>
</g>
<g transform="translate(416 96)">
	<path fill="#000000" d="M10.277 4.943l-0.943-0.943-4 4 4 4 0.943-0.943-3.057-3.057z"></path>
</g>
<g transform="translate(448 96)">
	<path fill="#000000" d="M6.667 4l-0.943 0.943 3.057 3.057-3.057 3.057 0.943 0.943 4-4z"></path>
</g>
<g transform="translate(480 96)">
	<path fill="#000000" d="M12.667 4.277l-0.943-0.943-3.723 3.723-3.723-3.723-0.943 0.943 3.723 3.723-3.723 3.723 0.943 0.943 3.723-3.723 3.723 3.723 0.943-0.943-3.723-3.723z"></path>
</g>
<g transform="translate(0 128)">
	<path fill="#000000" d="M8 5.333l-4 4 0.943 0.943 3.057-3.057 3.057 3.057 0.943-0.943z"></path>
</g>
<g transform="translate(32 128)">
	<path fill="#000000" d="M11.057 5.723l-3.057 3.057-3.057-3.057-0.943 0.943 4 4 4-4z"></path>
</g>
<g transform="translate(64 128)">
	<path fill="#000000" d="M4.667 9.333h-1.333v3.333h3.333v-1.333h-2v-2zM3.333 6.667h1.333v-2h2v-1.333h-3.333v3.333zM11.333 11.333h-2v1.333h3.333v-3.333h-1.333v2zM9.333 3.333v1.333h2v2h1.333v-3.333h-3.333z"></path>
</g>
<g transform="translate(96 128)">
	<path fill="#000000" d="M3.333 10.667h2v2h1.333v-3.333h-3.333v1.333zM5.333 5.333h-2v1.333h3.333v-3.333h-1.333v2zM9.333 12.667h1.333v-2h2v-1.333h-3.333v3.333zM10.667 5.333v-2h-1.333v3.333h3.333v-1.333h-2z"></path>
</g>
<g transform="translate(128 128)">
	<path fill="#000000" d="M2 12h12v-1.333h-12v1.333zM2 8.667h12v-1.333h-12v1.333zM2 4v1.333h12v-1.333h-12z"></path>
</g>
<g transform="translate(160 128)">
	<path fill="#000000" d="M4 6.667c-0.737 0-1.333 0.597-1.333 1.333s0.597 1.333 1.333 1.333 1.333-0.597 1.333-1.333-0.597-1.333-1.333-1.333zM12 6.667c-0.737 0-1.333 0.597-1.333 1.333s0.597 1.333 1.333 1.333 1.333-0.597 1.333-1.333-0.597-1.333-1.333-1.333zM8 6.667c-0.737 0-1.333 0.597-1.333 1.333s0.597 1.333 1.333 1.333 1.333-0.597 1.333-1.333-0.597-1.333-1.333-1.333z"></path>
</g>
<g transform="translate(192 128)">
	<path fill="#000000" d="M8 5.333c0.737 0 1.333-0.597 1.333-1.333s-0.597-1.333-1.333-1.333-1.333 0.597-1.333 1.333 0.597 1.333 1.333 1.333zM8 6.667c-0.737 0-1.333 0.597-1.333 1.333s0.597 1.333 1.333 1.333 1.333-0.597 1.333-1.333-0.597-1.333-1.333-1.333zM8 10.667c-0.737 0-1.333 0.597-1.333 1.333s0.597 1.333 1.333 1.333 1.333-0.597 1.333-1.333-0.597-1.333-1.333-1.333z"></path>
</g>
<g transform="translate(224 128)">
	<path fill="#000000" d="M11.767 4.233c-0.963-0.967-2.293-1.567-3.767-1.567-2.947 0-5.327 2.387-5.327 5.333s2.38 5.333 5.327 5.333c2.483 0 4.563-1.7 5.153-4h-1.387c-0.55 1.553-2.023 2.667-3.767 2.667-2.21 0-4-1.79-4-4s1.79-4 4-4c1.103 0 2.093 0.46 2.817 1.183l-2.15 2.15h4.667v-4.667l-1.567 1.567z"></path>
</g>
<g transform="translate(256 128)">
	<path fill="#000000" d="M4.943 12.39l0.943 0.943 2.113-2.113 2.113 2.113 0.943-0.943-3.057-3.057-3.057 3.057zM11.057 3.61l-0.943-0.943-2.113 2.113-2.113-2.113-0.943 0.943 3.057 3.057 3.057-3.057z"></path>
</g>
<g transform="translate(288 128)">
	<path fill="#000000" d="M8 3.887l2.113 2.113 0.943-0.943-3.057-3.057-3.057 3.057 0.943 0.943 2.113-2.113zM8 12.113l-2.113-2.113-0.943 0.943 3.057 3.057 3.057-3.057-0.943-0.943-2.113 2.113z"></path>
</g>
<g transform="translate(320 128)">
	<path fill="#000000" d="M8 1.333c-3.667 0-6.667 3-6.667 6.667s3 6.667 6.667 6.667 6.667-3 6.667-6.667-3-6.667-6.667-6.667zM2.667 8c0-2.933 2.4-5.333 5.333-5.333 1.233 0 2.367 0.433 3.267 1.133l-7.467 7.467c-0.7-0.9-1.133-2.033-1.133-3.267zM8 13.333c-1.233 0-2.367-0.433-3.267-1.133l7.467-7.467c0.7 0.9 1.133 2.033 1.133 3.267 0 2.933-2.4 5.333-5.333 5.333z"></path>
</g>
<g transform="translate(352 128)">
	<path fill="#000000" d="M7.667 14.667c0.737 0 1.333-0.597 1.333-1.333h-2.667c0 0.737 0.597 1.333 1.333 1.333zM12 10.667v-3.667c0-2.050-1.423-3.76-3.333-4.213v-0.453c0-0.553-0.447-1-1-1s-1 0.447-1 1v0.453c-1.91 0.453-3.333 2.163-3.333 4.213v3.667l-1.333 1.333v0.667h11.333v-0.667l-1.333-1.333z"></path>
</g>
<g transform="translate(384 128)">
	<path fill="#000000" d="M7.667 14.667c0.737 0 1.333-0.597 1.333-1.333h-2.667c0 0.737 0.597 1.333 1.333 1.333zM12 10.667v-3.667c0-2.050-1.423-3.76-3.333-4.213v-0.453c0-0.553-0.447-1-1-1s-1 0.447-1 1v0.453c-1.91 0.453-3.333 2.163-3.333 4.213v3.667l-1.333 1.333v0.667h11.333v-0.667l-1.333-1.333zM10.667 11.333h-6v-4.333c0-1.657 1.343-3 3-3s3 1.343 3 3v4.333z"></path>
</g>
<g transform="translate(416 128)">
	<path fill="#000000" d="M10.667 7.333c1.103 0 1.993-0.897 1.993-2s-0.89-2-1.993-2c-1.103 0-2 0.897-2 2s0.897 2 2 2zM5.333 7.333c1.103 0 1.993-0.897 1.993-2s-0.89-2-1.993-2c-1.103 0-2 0.897-2 2s0.897 2 2 2zM5.333 8.667c-1.557 0-4.667 0.78-4.667 2.333v1.667h9.333v-1.667c0-1.553-3.11-2.333-4.667-2.333zM10.667 8.667c-0.193 0-0.41 0.013-0.643 0.037 0.773 0.557 1.31 1.307 1.31 2.297v1.667h4v-1.667c0-1.553-3.11-2.333-4.667-2.333z"></path>
</g>
<g transform="translate(448 128)">
	<path fill="#000000" d="M8 8c1.473 0 2.667-1.197 2.667-2.667 0-1.473-1.193-2.667-2.667-2.667s-2.667 1.193-2.667 2.667c0 1.47 1.193 2.667 2.667 2.667zM8 9.333c-1.777 0-5.333 0.89-5.333 2.667v1.333h10.667v-1.333c0-1.777-3.557-2.667-5.333-2.667z"></path>
</g>
<g transform="translate(480 128)">
	<path fill="#000000" d="M10 8c1.473 0 2.667-1.197 2.667-2.667 0-1.473-1.193-2.667-2.667-2.667s-2.667 1.193-2.667 2.667c0 1.47 1.193 2.667 2.667 2.667zM4 6.667v-2h-1.333v2h-2v1.333h2v2h1.333v-2h2v-1.333h-2zM10 9.333c-1.777 0-5.333 0.89-5.333 2.667v1.333h10.667v-1.333c0-1.777-3.557-2.667-5.333-2.667z"></path>
</g>
<g transform="translate(0 160)">
	<path fill="#000000" d="M12 10.723c-0.507 0-0.963 0.197-1.31 0.513l-4.75-2.77c0.037-0.15 0.060-0.307 0.060-0.467s-0.023-0.317-0.060-0.467l4.7-2.743c0.357 0.333 0.833 0.54 1.36 0.54 1.103 0 2-0.897 2-2s-0.897-2-2-2-2 0.897-2 2c0 0.16 0.023 0.317 0.060 0.467l-4.7 2.743c-0.357-0.333-0.833-0.54-1.36-0.54-1.103 0-2 0.897-2 2s0.897 2 2 2c0.527 0 1.003-0.207 1.36-0.54l4.75 2.77c-0.033 0.14-0.053 0.287-0.053 0.437 0 1.073 0.87 1.943 1.943 1.943s1.943-0.87 1.943-1.943-0.87-1.943-1.943-1.943z"></path>
</g>
<g transform="translate(32 160)">
	<path fill="#000000" d="M12.667 2h-9.333c-0.74 0-1.333 0.6-1.333 1.333v9.333c0 0.733 0.593 1.333 1.333 1.333h9.333c0.74 0 1.333-0.6 1.333-1.333v-9.333c0-0.733-0.593-1.333-1.333-1.333zM6.667 11.333l-3.333-3.333 0.94-0.94 2.393 2.387 5.060-5.060 0.94 0.947-6 6z"></path>
</g>
<g transform="translate(64 160)">
	<path fill="#000000" d="M12.667 3.333v9.333h-9.333v-9.333h9.333zM12.667 2h-9.333c-0.733 0-1.333 0.6-1.333 1.333v9.333c0 0.733 0.6 1.333 1.333 1.333h9.333c0.733 0 1.333-0.6 1.333-1.333v-9.333c0-0.733-0.6-1.333-1.333-1.333z"></path>
</g>
<g transform="translate(96 160)">
	<path fill="#000000" d="M8 1.333c-3.68 0-6.667 2.987-6.667 6.667s2.987 6.667 6.667 6.667 6.667-2.987 6.667-6.667-2.987-6.667-6.667-6.667zM8 13.333c-2.947 0-5.333-2.387-5.333-5.333s2.387-5.333 5.333-5.333 5.333 2.387 5.333 5.333-2.387 5.333-5.333 5.333z"></path>
</g>
<g transform="translate(128 160)">
	<path fill="#000000" d="M8 4.667c-1.84 0-3.333 1.493-3.333 3.333s1.493 3.333 3.333 3.333 3.333-1.493 3.333-3.333-1.493-3.333-3.333-3.333zM8 1.333c-3.68 0-6.667 2.987-6.667 6.667s2.987 6.667 6.667 6.667 6.667-2.987 6.667-6.667-2.987-6.667-6.667-6.667zM8 13.333c-2.947 0-5.333-2.387-5.333-5.333s2.387-5.333 5.333-5.333 5.333 2.387 5.333 5.333-2.387 5.333-5.333 5.333z"></path>
</g>
<g transform="translate(160 160)">
	<path fill="#000000" d="M8 11.513l4.12 2.487-1.093-4.687 3.64-3.153-4.793-0.407-1.873-4.42-1.873 4.42-4.793 0.407 3.64 3.153-1.093 4.687z"></path>
</g>
<g transform="translate(192 160)">
	<path fill="#000000" d="M14.667 6.493l-4.793-0.413-1.873-4.413-1.873 4.42-4.793 0.407 3.64 3.153-1.093 4.687 4.12-2.487 4.12 2.487-1.087-4.687 3.633-3.153zM8 10.6v-6.2l1.14 2.693 2.92 0.253-2.213 1.92 0.667 2.853-2.513-1.52z"></path>
</g>
<g transform="translate(224 160)">
	<path fill="#000000" d="M14.667 6.16l-4.793-0.413-1.873-4.413-1.873 4.42-4.793 0.407 3.64 3.153-1.093 4.687 4.12-2.487 4.12 2.487-1.087-4.687 3.633-3.153zM8 10.267l-2.507 1.513 0.667-2.853-2.213-1.92 2.92-0.253 1.133-2.687 1.14 2.693 2.92 0.253-2.213 1.92 0.667 2.853-2.513-1.52z"></path>
</g>

</svg>
