<?xml version="1.0" encoding="utf-8"?>
<!-- Generated by IcoMoon.io -->
<!DOCTYPE svg PUBLIC "-//W3C//DTD SVG 1.1//EN" "http://www.w3.org/Graphics/SVG/1.1/DTD/svg11.dtd">
<svg version="1.1" xmlns="http://www.w3.org/2000/svg" xmlns:xlink="http://www.w3.org/1999/xlink" width="16" height="16" viewBox="0 0 16 16">
<path fill="#000000" d="M8 1.333c-3.683 0-6.667 2.983-6.667 6.667s2.983 6.667 6.667 6.667 6.667-2.983 6.667-6.667-2.983-6.667-6.667-6.667zM8 3.333c1.103 0 2 0.897 2 2 0 1.107-0.897 2-2 2s-2-0.893-2-2c0-1.103 0.897-2 2-2zM8 12.8c-1.67 0-3.137-0.853-4-2.147 0.017-1.323 2.67-2.053 4-2.053s3.98 0.73 4 2.053c-0.863 1.293-2.33 2.147-4 2.147z"></path>
</svg>
