<?xml version="1.0" encoding="utf-8"?>
<!-- Generated by IcoMoon.io -->
<!DOCTYPE svg PUBLIC "-//W3C//DTD SVG 1.1//EN" "http://www.w3.org/Graphics/SVG/1.1/DTD/svg11.dtd">
<svg version="1.1" xmlns="http://www.w3.org/2000/svg" xmlns:xlink="http://www.w3.org/1999/xlink" width="16" height="16" viewBox="0 0 16 16">
<path fill="#000000" d="M14.667 3.813l-3.063-2.57-0.857 1.020 3.063 2.57 0.857-1.020zM5.253 2.26l-0.857-1.020-3.063 2.57 0.857 1.020 3.063-2.57zM8.333 5.333h-1v4l3.163 1.903 0.503-0.823-2.667-1.58v-3.5zM7.997 2.667c-3.317 0-5.997 2.687-5.997 6s2.68 6 5.997 6 6.003-2.687 6.003-6-2.687-6-6.003-6zM8 13.333c-2.577 0-4.667-2.090-4.667-4.667s2.090-4.667 4.667-4.667 4.667 2.090 4.667 4.667-2.087 4.667-4.667 4.667z"></path>
</svg>
