<?xml version="1.0" encoding="utf-8"?>
<!-- Generated by IcoMoon.io -->
<!DOCTYPE svg PUBLIC "-//W3C//DTD SVG 1.1//EN" "http://www.w3.org/Graphics/SVG/1.1/DTD/svg11.dtd">
<svg version="1.1" xmlns="http://www.w3.org/2000/svg" xmlns:xlink="http://www.w3.org/1999/xlink" width="16" height="16" viewBox="0 0 16 16">
<path fill="#000000" d="M11 4v7.667c0 1.473-1.193 2.667-2.667 2.667s-2.667-1.193-2.667-2.667v-8.333c0-0.92 0.747-1.667 1.667-1.667s1.667 0.747 1.667 1.667v7c0 0.367-0.297 0.667-0.667 0.667s-0.667-0.3-0.667-0.667v-6.333h-1v6.333c0 0.92 0.747 1.667 1.667 1.667s1.667-0.747 1.667-1.667v-7c0-1.473-1.193-2.667-2.667-2.667s-2.667 1.193-2.667 2.667v8.333c0 2.027 1.643 3.667 3.667 3.667s3.667-1.64 3.667-3.667v-7.667h-1z"></path>
</svg>
