<?xml version="1.0" encoding="utf-8"?>
<!-- Generated by IcoMoon.io -->
<!DOCTYPE svg PUBLIC "-//W3C//DTD SVG 1.1//EN" "http://www.w3.org/Graphics/SVG/1.1/DTD/svg11.dtd">
<svg version="1.1" xmlns="http://www.w3.org/2000/svg" xmlns:xlink="http://www.w3.org/1999/xlink" width="16" height="16" viewBox="0 0 16 16">
<path fill="#000000" d="M8 1.333c-3.667 0-6.667 3-6.667 6.667s3 6.667 6.667 6.667 6.667-3 6.667-6.667-3-6.667-6.667-6.667zM2.667 8c0-2.933 2.4-5.333 5.333-5.333 1.233 0 2.367 0.433 3.267 1.133l-7.467 7.467c-0.7-0.9-1.133-2.033-1.133-3.267zM8 13.333c-1.233 0-2.367-0.433-3.267-1.133l7.467-7.467c0.7 0.9 1.133 2.033 1.133 3.267 0 2.933-2.4 5.333-5.333 5.333z"></path>
</svg>
