<?xml version="1.0" encoding="utf-8"?>
<!-- Generated by IcoMoon.io -->
<!DOCTYPE svg PUBLIC "-//W3C//DTD SVG 1.1//EN" "http://www.w3.org/Graphics/SVG/1.1/DTD/svg11.dtd">
<svg version="1.1" xmlns="http://www.w3.org/2000/svg" xmlns:xlink="http://www.w3.org/1999/xlink" width="16" height="16" viewBox="0 0 16 16">
<path fill="#000000" d="M11 2c-1.16 0-2.273 0.54-3 1.39-0.727-0.85-1.84-1.39-3-1.39-2.057 0-3.667 1.61-3.667 3.667 0 2.517 2.267 4.573 5.7 7.69l0.967 0.877 0.967-0.877c3.433-3.117 5.7-5.173 5.7-7.69 0-2.057-1.61-3.667-3.667-3.667zM8.070 12.37l-0.070 0.063-0.070-0.063c-3.17-2.877-5.263-4.777-5.263-6.703 0-1.33 1.003-2.333 2.333-2.333 1.027 0 2.027 0.663 2.377 1.573h1.243c0.353-0.91 1.353-1.573 2.38-1.573 1.33 0 2.333 1.003 2.333 2.333 0 1.927-2.093 3.827-5.263 6.703z"></path>
</svg>
