<?xml version="1.0" encoding="utf-8"?>
<!-- Generated by IcoMoon.io -->
<!DOCTYPE svg PUBLIC "-//W3C//DTD SVG 1.1//EN" "http://www.w3.org/Graphics/SVG/1.1/DTD/svg11.dtd">
<svg version="1.1" xmlns="http://www.w3.org/2000/svg" xmlns:xlink="http://www.w3.org/1999/xlink" width="16" height="16" viewBox="0 0 16 16">
<path fill="#000000" d="M12.667 2.667h-9.333c-0.737 0-1.333 0.597-1.333 1.333v8c0 0.737 0.597 1.333 1.333 1.333h9.333c0.737 0 1.333-0.597 1.333-1.333v-8c0-0.737-0.597-1.333-1.333-1.333zM7.333 10h-1v-1.333h-1.333v1.333h-1v-4h1v1.667h1.333v-1.667h1v4zM12 9.333c0 0.367-0.297 0.667-0.667 0.667h-0.5v1h-1v-1h-0.5c-0.37 0-0.667-0.3-0.667-0.667v-2.667c0-0.367 0.297-0.667 0.667-0.667h2c0.37 0 0.667 0.3 0.667 0.667v2.667zM9.667 9h1.333v-2h-1.333v2z"></path>
</svg>
