<?xml version="1.0" encoding="utf-8"?>
<!-- Generated by IcoMoon.io -->
<!DOCTYPE svg PUBLIC "-//W3C//DTD SVG 1.1//EN" "http://www.w3.org/Graphics/SVG/1.1/DTD/svg11.dtd">
<svg version="1.1" xmlns="http://www.w3.org/2000/svg" xmlns:xlink="http://www.w3.org/1999/xlink" width="16" height="16" viewBox="0 0 16 16">
<path fill="#000000" d="M8 1.333c-3.683 0-6.667 2.983-6.667 6.667s2.983 6.667 6.667 6.667 6.667-2.983 6.667-6.667-2.983-6.667-6.667-6.667zM8.667 12.667h-1.333v-1.333h1.333v1.333zM10.043 7.503l-0.597 0.613c-0.48 0.48-0.78 0.883-0.78 1.883h-1.333v-0.333c0-0.737 0.3-1.403 0.78-1.887l0.83-0.84c0.24-0.24 0.39-0.573 0.39-0.94 0-0.737-0.597-1.333-1.333-1.333s-1.333 0.597-1.333 1.333h-1.333c0-1.473 1.193-2.667 2.667-2.667s2.667 1.193 2.667 2.667c0 0.587-0.237 1.117-0.623 1.503z"></path>
</svg>
