<?xml version="1.0" encoding="utf-8"?>
<!-- Generated by IcoMoon.io -->
<!DOCTYPE svg PUBLIC "-//W3C//DTD SVG 1.1//EN" "http://www.w3.org/Graphics/SVG/1.1/DTD/svg11.dtd">
<svg version="1.1" xmlns="http://www.w3.org/2000/svg" xmlns:xlink="http://www.w3.org/1999/xlink" width="16" height="16" viewBox="0 0 16 16">
<path fill="#000000" d="M12 5.333h-0.667v-1.333c0-1.84-1.493-3.333-3.333-3.333s-3.333 1.493-3.333 3.333v1.333h-0.667c-0.737 0-1.333 0.597-1.333 1.333v6.667c0 0.737 0.597 1.333 1.333 1.333h8c0.737 0 1.333-0.597 1.333-1.333v-6.667c0-0.737-0.597-1.333-1.333-1.333zM8 1.933c1.14 0 2.067 0.927 2.067 2.067v1.333h-4.067v-1.333h-0.067c0-1.14 0.927-2.067 2.067-2.067zM12 13.333h-8v-6.667h8v6.667zM8 11.333c0.737 0 1.333-0.597 1.333-1.333s-0.597-1.333-1.333-1.333-1.333 0.597-1.333 1.333 0.597 1.333 1.333 1.333z"></path>
</svg>
