<?xml version="1.0" encoding="utf-8"?>
<!-- Generated by IcoMoon.io -->
<!DOCTYPE svg PUBLIC "-//W3C//DTD SVG 1.1//EN" "http://www.w3.org/Graphics/SVG/1.1/DTD/svg11.dtd">
<svg version="1.1" xmlns="http://www.w3.org/2000/svg" xmlns:xlink="http://www.w3.org/1999/xlink" width="16" height="16" viewBox="0 0 16 16">
<path fill="#000000" d="M10.333 9.333h-0.53l-0.183-0.183c0.653-0.757 1.047-1.74 1.047-2.817 0-2.393-1.94-4.333-4.333-4.333s-4.333 1.94-4.333 4.333 1.94 4.333 4.333 4.333c1.077 0 2.060-0.393 2.817-1.043l0.183 0.183v0.527l3.333 3.327 0.993-0.993-3.327-3.333zM6.333 9.333c-1.657 0-3-1.343-3-3s1.343-3 3-3 3 1.343 3 3-1.343 3-3 3z"></path>
</svg>
