<?xml version="1.0" encoding="utf-8"?>
<!-- Generated by IcoMoon.io -->
<!DOCTYPE svg PUBLIC "-//W3C//DTD SVG 1.1//EN" "http://www.w3.org/Graphics/SVG/1.1/DTD/svg11.dtd">
<svg version="1.1" xmlns="http://www.w3.org/2000/svg" xmlns:xlink="http://www.w3.org/1999/xlink" width="16" height="16" viewBox="0 0 16 16">
<path fill="#000000" d="M12.953 8.65c0.027-0.213 0.047-0.43 0.047-0.65s-0.020-0.437-0.047-0.65l1.41-1.103c0.127-0.1 0.163-0.28 0.080-0.427l-1.333-2.31c-0.083-0.143-0.257-0.203-0.407-0.143l-1.66 0.67c-0.343-0.263-0.72-0.487-1.127-0.657l-0.25-1.767c-0.030-0.157-0.167-0.28-0.333-0.28h-2.667c-0.167 0-0.303 0.123-0.33 0.28l-0.25 1.767c-0.407 0.17-0.783 0.39-1.127 0.657l-1.66-0.67c-0.15-0.057-0.323 0-0.407 0.143l-1.333 2.31c-0.083 0.143-0.047 0.323 0.080 0.427l1.407 1.103c-0.027 0.213-0.047 0.43-0.047 0.65s0.020 0.437 0.047 0.65l-1.407 1.103c-0.127 0.1-0.163 0.28-0.080 0.427l1.333 2.31c0.083 0.143 0.257 0.203 0.407 0.143l1.66-0.67c0.343 0.263 0.72 0.487 1.127 0.657l0.25 1.767c0.027 0.157 0.163 0.28 0.33 0.28h2.667c0.167 0 0.303-0.123 0.33-0.28l0.25-1.767c0.407-0.17 0.783-0.39 1.127-0.657l1.66 0.67c0.15 0.057 0.323 0 0.407-0.143l1.333-2.31c0.083-0.143 0.047-0.323-0.080-0.427l-1.407-1.103zM8 10.333c-1.29 0-2.333-1.043-2.333-2.333s1.043-2.333 2.333-2.333 2.333 1.043 2.333 2.333-1.043 2.333-2.333 2.333z"></path>
</svg>
