<?xml version="1.0" encoding="utf-8"?>
<!-- Generated by IcoMoon.io -->
<!DOCTYPE svg PUBLIC "-//W3C//DTD SVG 1.1//EN" "http://www.w3.org/Graphics/SVG/1.1/DTD/svg11.dtd">
<svg version="1.1" xmlns="http://www.w3.org/2000/svg" xmlns:xlink="http://www.w3.org/1999/xlink" width="16" height="16" viewBox="0 0 16 16">
<path fill="#000000" d="M12 10.723c-0.507 0-0.963 0.197-1.31 0.513l-4.75-2.77c0.037-0.15 0.060-0.307 0.060-0.467s-0.023-0.317-0.060-0.467l4.7-2.743c0.357 0.333 0.833 0.54 1.36 0.54 1.103 0 2-0.897 2-2s-0.897-2-2-2-2 0.897-2 2c0 0.16 0.023 0.317 0.060 0.467l-4.7 2.743c-0.357-0.333-0.833-0.54-1.36-0.54-1.103 0-2 0.897-2 2s0.897 2 2 2c0.527 0 1.003-0.207 1.36-0.54l4.75 2.77c-0.033 0.14-0.053 0.287-0.053 0.437 0 1.073 0.87 1.943 1.943 1.943s1.943-0.87 1.943-1.943-0.87-1.943-1.943-1.943z"></path>
</svg>
