<?xml version="1.0" encoding="utf-8"?>
<!-- Generated by IcoMoon.io -->
<!DOCTYPE svg PUBLIC "-//W3C//DTD SVG 1.1//EN" "http://www.w3.org/Graphics/SVG/1.1/DTD/svg11.dtd">
<svg version="1.1" xmlns="http://www.w3.org/2000/svg" xmlns:xlink="http://www.w3.org/1999/xlink" width="16" height="16" viewBox="0 0 16 16">
<path fill="#000000" d="M10.667 7.333c1.103 0 1.993-0.897 1.993-2s-0.89-2-1.993-2c-1.103 0-2 0.897-2 2s0.897 2 2 2zM5.333 7.333c1.103 0 1.993-0.897 1.993-2s-0.89-2-1.993-2c-1.103 0-2 0.897-2 2s0.897 2 2 2zM5.333 8.667c-1.557 0-4.667 0.78-4.667 2.333v1.667h9.333v-1.667c0-1.553-3.11-2.333-4.667-2.333zM10.667 8.667c-0.193 0-0.41 0.013-0.643 0.037 0.773 0.557 1.31 1.307 1.31 2.297v1.667h4v-1.667c0-1.553-3.11-2.333-4.667-2.333z"></path>
</svg>
