<?xml version="1.0" encoding="utf-8"?>
<!-- Generated by IcoMoon.io -->
<!DOCTYPE svg PUBLIC "-//W3C//DTD SVG 1.1//EN" "http://www.w3.org/Graphics/SVG/1.1/DTD/svg11.dtd">
<svg version="1.1" xmlns="http://www.w3.org/2000/svg" xmlns:xlink="http://www.w3.org/1999/xlink" width="16" height="16" viewBox="0 0 16 16">
<path fill="#000000" d="M12 2v1.333h-1.333v-1.333h-5.333v1.333h-1.333v-1.333h-1.333v12h1.333v-1.333h1.333v1.333h5.333v-1.333h1.333v1.333h1.333v-12h-1.333zM5.333 11.333h-1.333v-1.333h1.333v1.333zM5.333 8.667h-1.333v-1.333h1.333v1.333zM5.333 6h-1.333v-1.333h1.333v1.333zM12 11.333h-1.333v-1.333h1.333v1.333zM12 8.667h-1.333v-1.333h1.333v1.333zM12 6h-1.333v-1.333h1.333v1.333z"></path>
</svg>
