<svg xmlns="http://www.w3.org/2000/svg" width="13" height="14" viewBox="0 0 13 14"><path fill="#444" d="M12.805 3.734q.312.445.14 1.008L10.8 11.82q-.148.5-.598.84t-.957.34h-7.21q-.603 0-1.16-.418t-.778-1.027q-.187-.523-.016-.992 0-.03.024-.21t.03-.29Q.144 10 .11 9.895t-.023-.152q.016-.086.062-.164t.126-.187.13-.184q.18-.297.35-.715T.99 7.78q.024-.076.005-.232t-.004-.22q.024-.085.134-.218t.133-.18q.163-.282.327-.72t.195-.703q.007-.07-.02-.25t.003-.22q.03-.1.172-.237t.172-.176q.148-.203.332-.66t.214-.754q.008-.062-.023-.2t-.015-.206q.016-.062.07-.14t.14-.18.134-.165q.06-.097.13-.24t.115-.274.125-.28.153-.25.207-.185.28-.09.372.044l-.008.023q.3-.068.4-.068h5.945q.575 0 .89.436t.14 1.016L9.57 9.53q-.28.93-.56 1.2T8.008 11h-6.79q-.21 0-.296.117-.085.125-.007.336Q1.1 12 2.038 12h7.21q.228 0 .44-.12t.272-.325l2.344-7.71q.055-.173.04-.446.296.114.46.333zm-8.313.016q-.03.102.016.176T4.664 4h4.75q.102 0 .2-.074t.128-.176l.164-.5q.03-.102-.016-.176T9.734 3h-4.75q-.102 0-.2.074t-.128.176zm-.648 2q-.03.102.016.176T4.016 6h4.75q.102 0 .2-.074t.128-.176l.164-.5q.03-.102-.016-.176T9.086 5h-4.75q-.102 0-.2.074t-.128.176z"/></svg>