<svg xmlns="http://www.w3.org/2000/svg" width="13" height="14" viewBox="0 0 13 14"><path fill="#444" d="M11.375 9.5q0-.312-.22-.53L9.532 7.343q-.218-.22-.53-.22-.328 0-.563.25l.148.146.168.168.117.148.102.2L9 8.25q0 .312-.22.53T8.25 9q-.118 0-.216-.027t-.2-.102-.147-.116-.168-.168-.146-.148q-.258.242-.258.57 0 .312.22.53l1.608 1.618q.21.21.53.21.313 0 .532-.202l1.148-1.14q.22-.22.22-.524zM5.883 3.992q0-.312-.22-.53L4.056 1.843q-.22-.22-.53-.22-.306 0-.532.212l-1.148 1.14q-.22.22-.22.524 0 .312.22.53L3.47 5.657q.21.21.53.21.33 0 .564-.24l-.148-.146-.168-.168-.117-.148-.1-.2L4 4.75q0-.312.22-.53T4.75 4q.117 0 .215.027t.2.102.147.116.168.168.145.148q.258-.242.258-.57zM12.875 9.5q0 .937-.664 1.586l-1.147 1.14q-.648.65-1.586.65-.945 0-1.594-.665l-1.61-1.616q-.647-.648-.647-1.586 0-.96.688-1.633l-.688-.688q-.672.688-1.625.688-.936 0-1.593-.656L.782 5.093Q.126 4.438.126 3.5T.79 1.914L1.938.774q.648-.65 1.586-.65.945 0 1.594.665l1.61 1.616q.647.648.647 1.586 0 .96-.688 1.633l.688.688Q8.047 5.625 9 5.625q.937 0 1.594.656l1.625 1.626q.655.656.655 1.594z"/></svg>