<svg xmlns="http://www.w3.org/2000/svg" width="14" height="14" viewBox="0 0 14 14"><path fill="#444" d="M8 7q0-.828-.586-1.414T6 5t-1.414.586T4 7t.586 1.414T6 9t1.414-.586T8 7zm4-.852v1.734q0 .094-.062.18t-.156.102l-1.445.22q-.148.42-.305.71.273.39.836 1.078.078.094.078.195t-.07.18q-.21.29-.773.844t-.734.556q-.095 0-.204-.07l-1.078-.844q-.344.18-.71.297-.126 1.06-.228 1.452-.055.22-.28.22H5.134q-.11 0-.19-.067t-.09-.168l-.22-1.438q-.383-.126-.703-.29l-1.102.836q-.078.07-.195.07-.11 0-.195-.086-.984-.89-1.29-1.313-.054-.078-.054-.18 0-.094.062-.18.117-.164.398-.52t.422-.55q-.21-.392-.32-.774l-1.43-.21q-.102-.017-.164-.1T.002 7.85V6.116q0-.094.062-.18t.148-.102l1.453-.22q.11-.358.305-.718-.312-.445-.836-1.078-.078-.094-.078-.187 0-.077.07-.18.203-.28.77-.84t.738-.558q.102 0 .203.078l1.078.836q.344-.18.71-.297.126-1.063.228-1.454.055-.22.28-.22H6.87q.11 0 .19.067t.09.168l.22 1.44q.383.124.703.288l1.11-.836q.07-.07.187-.07.102 0 .195.078 1.008.93 1.29 1.328.054.062.054.172 0 .094-.062.18-.117.164-.398.52t-.422.55q.203.392.32.767l1.43.22q.102.015.164.097t.062.184z"/></svg>