<svg xmlns="http://www.w3.org/2000/svg" width="14" height="14" viewBox="0 0 14 14"><path fill="#444" d="M10 4.766q-.438.195-.945.266.53-.312.727-.914-.508.297-1.047.398Q8.258 4 7.54 4q-.68 0-1.16.48T5.9 5.64q0 .227.04.375-1.01-.055-1.892-.508t-1.5-1.21q-.227.39-.227.827 0 .89.712 1.367-.367-.007-.78-.202v.016q0 .586.39 1.043t.96.566q-.226.062-.397.062-.102 0-.305-.03.164.49.582.812t.95.328q-.907.703-2.04.703-.203 0-.39-.023 1.155.734 2.515.734.875 0 1.64-.278t1.314-.742.942-1.07.586-1.266.19-1.316q0-.14-.007-.21.493-.353.82-.853zm2-1.516v7.5q0 .93-.66 1.59T9.75 13h-7.5q-.93 0-1.59-.66T0 10.75v-7.5q0-.93.66-1.59T2.25 1h7.5q.93 0 1.59.66T12 3.25z"/></svg>