<?xml version="1.0" encoding="utf-8"?>
<!-- Generated by IcoMoon.io -->
<!DOCTYPE svg PUBLIC "-//W3C//DTD SVG 1.1//EN" "http://www.w3.org/Graphics/SVG/1.1/DTD/svg11.dtd">
<svg version="1.1" xmlns="http://www.w3.org/2000/svg" xmlns:xlink="http://www.w3.org/1999/xlink" width="13" height="14" viewBox="0 0 13 14">
<path fill="#444444" d="M12.586 7.586q0 0.398-0.289 0.703l-0.586 0.586q-0.297 0.297-0.711 0.297-0.422 0-0.703-0.297l-2.297-2.289v5.5q0 0.406-0.293 0.66t-0.707 0.254h-1q-0.414 0-0.707-0.254t-0.293-0.66v-5.5l-2.297 2.289q-0.281 0.297-0.703 0.297t-0.703-0.297l-0.586-0.586q-0.297-0.297-0.297-0.703 0-0.414 0.297-0.711l5.086-5.086q0.273-0.289 0.703-0.289 0.422 0 0.711 0.289l5.086 5.086q0.289 0.305 0.289 0.711z"></path>
</svg>
