<?xml version="1.0" encoding="utf-8"?>
<!-- Generated by IcoMoon.io -->
<!DOCTYPE svg PUBLIC "-//W3C//DTD SVG 1.1//EN" "http://www.w3.org/Graphics/SVG/1.1/DTD/svg11.dtd">
<svg version="1.1" xmlns="http://www.w3.org/2000/svg" xmlns:xlink="http://www.w3.org/1999/xlink" width="13" height="14" viewBox="0 0 13 14">
<path fill="#444444" d="M12.586 6.5q0 0.414-0.289 0.703l-5.086 5.094q-0.305 0.289-0.711 0.289-0.414 0-0.703-0.289l-5.086-5.094q-0.297-0.281-0.297-0.703 0-0.414 0.297-0.711l0.578-0.586q0.305-0.289 0.711-0.289 0.414 0 0.703 0.289l2.297 2.297v-5.5q0-0.406 0.297-0.703t0.703-0.297h1q0.406 0 0.703 0.297t0.297 0.703v5.5l2.297-2.297q0.289-0.289 0.703-0.289 0.406 0 0.711 0.289l0.586 0.586q0.289 0.305 0.289 0.711z"></path>
</svg>
