<?xml version="1.0" encoding="utf-8"?>
<!-- Generated by IcoMoon.io -->
<!DOCTYPE svg PUBLIC "-//W3C//DTD SVG 1.1//EN" "http://www.w3.org/Graphics/SVG/1.1/DTD/svg11.dtd">
<svg version="1.1" xmlns="http://www.w3.org/2000/svg" xmlns:xlink="http://www.w3.org/1999/xlink" width="13" height="14" viewBox="0 0 13 14">
<path fill="#444444" d="M12.805 3.734q0.312 0.445 0.141 1.008l-2.148 7.078q-0.148 0.5-0.598 0.84t-0.957 0.34h-7.211q-0.602 0-1.16-0.418t-0.777-1.027q-0.187-0.523-0.016-0.992 0-0.031 0.023-0.211t0.031-0.289q0.008-0.062-0.023-0.168t-0.023-0.152q0.016-0.086 0.062-0.164t0.129-0.184 0.129-0.184q0.18-0.297 0.352-0.715t0.234-0.715q0.023-0.078 0.004-0.234t-0.004-0.219q0.023-0.086 0.133-0.219t0.133-0.18q0.164-0.281 0.328-0.719t0.195-0.703q0.008-0.070-0.020-0.25t0.004-0.219q0.031-0.102 0.172-0.238t0.172-0.176q0.148-0.203 0.332-0.66t0.215-0.754q0.008-0.062-0.023-0.199t-0.016-0.207q0.016-0.062 0.070-0.141t0.141-0.18 0.133-0.164q0.062-0.094 0.129-0.238t0.117-0.273 0.125-0.281 0.152-0.25 0.207-0.184 0.281-0.090 0.371 0.043l-0.008 0.023q0.297-0.070 0.398-0.070h5.945q0.578 0 0.891 0.438t0.141 1.016l-2.141 7.078q-0.281 0.93-0.559 1.199t-1.004 0.27h-6.789q-0.211 0-0.297 0.117-0.086 0.125-0.008 0.336 0.187 0.547 1.125 0.547h7.211q0.227 0 0.438-0.121t0.273-0.324l2.344-7.711q0.055-0.172 0.039-0.445 0.297 0.117 0.461 0.336zM4.492 3.75q-0.031 0.102 0.016 0.176t0.156 0.074h4.75q0.102 0 0.199-0.074t0.129-0.176l0.164-0.5q0.031-0.102-0.016-0.176t-0.156-0.074h-4.75q-0.102 0-0.199 0.074t-0.129 0.176zM3.844 5.75q-0.031 0.102 0.016 0.176t0.156 0.074h4.75q0.102 0 0.199-0.074t0.129-0.176l0.164-0.5q0.031-0.102-0.016-0.176t-0.156-0.074h-4.75q-0.102 0-0.199 0.074t-0.129 0.176z"></path>
</svg>
