<?xml version="1.0" encoding="utf-8"?>
<!-- Generated by IcoMoon.io -->
<!DOCTYPE svg PUBLIC "-//W3C//DTD SVG 1.1//EN" "http://www.w3.org/Graphics/SVG/1.1/DTD/svg11.dtd">
<svg version="1.1" xmlns="http://www.w3.org/2000/svg" xmlns:xlink="http://www.w3.org/1999/xlink" width="14" height="14" viewBox="0 0 14 14">
<path fill="#444444" d="M13 5q0.414 0 0.707 0.293t0.293 0.707-0.293 0.707-0.707 0.293v3q0 0.406-0.297 0.703t-0.703 0.297q-3.258-2.711-6.344-2.969-0.453 0.148-0.711 0.516t-0.242 0.785 0.312 0.723q-0.156 0.258-0.18 0.512t0.047 0.453 0.262 0.43 0.375 0.391 0.48 0.395q-0.227 0.453-0.871 0.648t-1.316 0.090-1.031-0.434q-0.055-0.18-0.23-0.684t-0.25-0.738-0.18-0.695-0.117-0.789 0.027-0.77 0.172-0.863h-0.953q-0.516 0-0.883-0.367t-0.367-0.883v-1.5q0-0.516 0.367-0.883t0.883-0.367h3.75q3.398 0 7-3 0.406 0 0.703 0.297t0.297 0.703v3zM12 9.719v-7.453q-3.078 2.359-6 2.68v2.109q2.945 0.328 6 2.664z"></path>
</svg>
