<?xml version="1.0" encoding="utf-8"?>
<!-- Generated by IcoMoon.io -->
<!DOCTYPE svg PUBLIC "-//W3C//DTD SVG 1.1//EN" "http://www.w3.org/Graphics/SVG/1.1/DTD/svg11.dtd">
<svg version="1.1" xmlns="http://www.w3.org/2000/svg" xmlns:xlink="http://www.w3.org/1999/xlink" width="15" height="14" viewBox="0 0 15 14">
<path fill="#444444" d="M7.5 5.25q0.93 0 1.59 0.66t0.66 1.59-0.66 1.59-1.59 0.66-1.59-0.66-0.66-1.59 0.66-1.59 1.59-0.66zM13 2q0.828 0 1.414 0.586t0.586 1.414v7q0 0.828-0.586 1.414t-1.414 0.586h-11q-0.828 0-1.414-0.586t-0.586-1.414v-7q0-0.828 0.586-1.414t1.414-0.586h1.75l0.398-1.062q0.148-0.383 0.543-0.66t0.809-0.277h4q0.414 0 0.809 0.277t0.543 0.66l0.398 1.062h1.75zM7.5 11q1.445 0 2.473-1.027t1.027-2.473-1.027-2.473-2.473-1.027-2.473 1.027-1.027 2.473 1.027 2.473 2.473 1.027z"></path>
</svg>
