<?xml version="1.0" encoding="utf-8"?>
<!-- Generated by IcoMoon.io -->
<!DOCTYPE svg PUBLIC "-//W3C//DTD SVG 1.1//EN" "http://www.w3.org/Graphics/SVG/1.1/DTD/svg11.dtd">
<svg version="1.1" xmlns="http://www.w3.org/2000/svg" xmlns:xlink="http://www.w3.org/1999/xlink" width="13" height="14" viewBox="0 0 13 14">
<path fill="#444444" d="M11.375 9.5q0-0.312-0.219-0.531l-1.625-1.625q-0.219-0.219-0.531-0.219-0.328 0-0.563 0.25 0.023 0.023 0.148 0.145t0.168 0.168 0.117 0.148 0.102 0.199 0.027 0.215q0 0.312-0.219 0.531t-0.531 0.219q-0.117 0-0.215-0.027t-0.199-0.102-0.148-0.117-0.168-0.168-0.145-0.148q-0.258 0.242-0.258 0.57 0 0.312 0.219 0.531l1.609 1.617q0.211 0.211 0.531 0.211 0.312 0 0.531-0.203l1.148-1.141q0.219-0.219 0.219-0.523zM5.883 3.992q0-0.312-0.219-0.531l-1.609-1.617q-0.219-0.219-0.531-0.219-0.305 0-0.531 0.211l-1.148 1.141q-0.219 0.219-0.219 0.523 0 0.312 0.219 0.531l1.625 1.625q0.211 0.211 0.531 0.211 0.328 0 0.563-0.242-0.023-0.023-0.148-0.145t-0.168-0.168-0.117-0.148-0.102-0.199-0.027-0.215q0-0.312 0.219-0.531t0.531-0.219q0.117 0 0.215 0.027t0.199 0.102 0.148 0.117 0.168 0.168 0.145 0.148q0.258-0.242 0.258-0.57zM12.875 9.5q0 0.937-0.664 1.586l-1.148 1.141q-0.648 0.648-1.586 0.648-0.945 0-1.594-0.664l-1.609-1.617q-0.648-0.648-0.648-1.586 0-0.961 0.688-1.633l-0.688-0.688q-0.672 0.688-1.625 0.688-0.937 0-1.594-0.656l-1.625-1.625q-0.656-0.656-0.656-1.594t0.664-1.586l1.148-1.141q0.648-0.648 1.586-0.648 0.945 0 1.594 0.664l1.609 1.617q0.648 0.648 0.648 1.586 0 0.961-0.688 1.633l0.688 0.688q0.672-0.688 1.625-0.688 0.937 0 1.594 0.656l1.625 1.625q0.656 0.656 0.656 1.594z"></path>
</svg>
