<?xml version="1.0" encoding="utf-8"?>
<!-- Generated by IcoMoon.io -->
<!DOCTYPE svg PUBLIC "-//W3C//DTD SVG 1.1//EN" "http://www.w3.org/Graphics/SVG/1.1/DTD/svg11.dtd">
<svg version="1.1" xmlns="http://www.w3.org/2000/svg" xmlns:xlink="http://www.w3.org/1999/xlink" width="13" height="14" viewBox="0 0 13 14">
<path fill="#444444" d="M3.43 9.93l-2 2q-0.078 0.070-0.18 0.070-0.094 0-0.18-0.070-0.070-0.078-0.070-0.18t0.070-0.18l2-2q0.078-0.070 0.18-0.070t0.18 0.070q0.070 0.078 0.070 0.18t-0.070 0.18zM4.75 10.25v2.5q0 0.109-0.070 0.18t-0.18 0.070-0.18-0.070-0.070-0.18v-2.5q0-0.109 0.070-0.18t0.18-0.070 0.18 0.070 0.070 0.18zM3 8.5q0 0.109-0.070 0.18t-0.18 0.070h-2.5q-0.109 0-0.18-0.070t-0.070-0.18 0.070-0.18 0.18-0.070h2.5q0.109 0 0.18 0.070t0.070 0.18zM12.875 9.5q0 0.937-0.664 1.586l-1.148 1.141q-0.648 0.648-1.586 0.648-0.945 0-1.594-0.664l-2.609-2.617q-0.164-0.164-0.328-0.438l1.867-0.141 2.133 2.141q0.211 0.211 0.531 0.215t0.531-0.207l1.148-1.141q0.219-0.219 0.219-0.523 0-0.312-0.219-0.531l-2.141-2.148 0.141-1.867q0.273 0.164 0.438 0.328l2.625 2.625q0.656 0.672 0.656 1.594zM8.055 3.844l-1.867 0.141-2.133-2.141q-0.219-0.219-0.531-0.219-0.305 0-0.531 0.211l-1.148 1.141q-0.219 0.219-0.219 0.523 0 0.312 0.219 0.531l2.141 2.141-0.141 1.875q-0.273-0.164-0.438-0.328l-2.625-2.625q-0.656-0.672-0.656-1.594 0-0.937 0.664-1.586l1.148-1.141q0.648-0.648 1.586-0.648 0.945 0 1.594 0.664l2.609 2.617q0.164 0.164 0.328 0.438zM13 4.5q0 0.109-0.070 0.18t-0.18 0.070h-2.5q-0.109 0-0.18-0.070t-0.070-0.18 0.070-0.18 0.18-0.070h2.5q0.109 0 0.18 0.070t0.070 0.18zM8.75 0.25v2.5q0 0.109-0.070 0.18t-0.18 0.070-0.18-0.070-0.070-0.18v-2.5q0-0.109 0.070-0.18t0.18-0.070 0.18 0.070 0.070 0.18zM11.93 1.43l-2 2q-0.086 0.070-0.18 0.070t-0.18-0.070q-0.070-0.078-0.070-0.18t0.070-0.18l2-2q0.078-0.070 0.18-0.070t0.18 0.070q0.070 0.078 0.070 0.18t-0.070 0.18z"></path>
</svg>
