<?xml version="1.0" encoding="utf-8"?>
<!-- Generated by IcoMoon.io -->
<!DOCTYPE svg PUBLIC "-//W3C//DTD SVG 1.1//EN" "http://www.w3.org/Graphics/SVG/1.1/DTD/svg11.dtd">
<svg version="1.1" xmlns="http://www.w3.org/2000/svg" xmlns:xlink="http://www.w3.org/1999/xlink" width="13" height="14" viewBox="0 0 13 14">
<path fill="#444444" d="M11 7.266v2.484q0 0.93-0.66 1.59t-1.59 0.66h-6.5q-0.93 0-1.59-0.66t-0.66-1.59v-6.5q0-0.93 0.66-1.59t1.59-0.66h6.5q0.492 0 0.914 0.195 0.117 0.055 0.141 0.18 0.023 0.133-0.070 0.227l-0.383 0.383q-0.078 0.078-0.18 0.078-0.023 0-0.070-0.016-0.18-0.047-0.352-0.047h-6.5q-0.516 0-0.883 0.367t-0.367 0.883v6.5q0 0.516 0.367 0.883t0.883 0.367h6.5q0.516 0 0.883-0.367t0.367-0.883v-1.984q0-0.102 0.070-0.172l0.5-0.5q0.078-0.078 0.18-0.078 0.047 0 0.094 0.023 0.156 0.062 0.156 0.227zM12.805 3.445l-6.359 6.359q-0.187 0.187-0.445 0.187t-0.445-0.187l-3.359-3.359q-0.187-0.187-0.187-0.445t0.187-0.445l0.859-0.859q0.187-0.187 0.445-0.187t0.445 0.187l2.055 2.055 5.055-5.055q0.187-0.187 0.445-0.187t0.445 0.187l0.859 0.859q0.187 0.187 0.187 0.445t-0.187 0.445z"></path>
</svg>
