<?xml version="1.0" encoding="utf-8"?>
<!-- Generated by IcoMoon.io -->
<!DOCTYPE svg PUBLIC "-//W3C//DTD SVG 1.1//EN" "http://www.w3.org/Graphics/SVG/1.1/DTD/svg11.dtd">
<svg version="1.1" xmlns="http://www.w3.org/2000/svg" xmlns:xlink="http://www.w3.org/1999/xlink" width="14" height="14" viewBox="0 0 14 14">
<path fill="#444444" d="M8 7q0-0.828-0.586-1.414t-1.414-0.586-1.414 0.586-0.586 1.414 0.586 1.414 1.414 0.586 1.414-0.586 0.586-1.414zM12 6.148v1.734q0 0.094-0.062 0.18t-0.156 0.102l-1.445 0.219q-0.148 0.422-0.305 0.711 0.273 0.391 0.836 1.078 0.078 0.094 0.078 0.195t-0.070 0.18q-0.211 0.289-0.773 0.844t-0.734 0.555q-0.094 0-0.203-0.070l-1.078-0.844q-0.344 0.18-0.711 0.297-0.125 1.062-0.227 1.453-0.055 0.219-0.281 0.219h-1.734q-0.109 0-0.191-0.066t-0.090-0.168l-0.219-1.438q-0.383-0.125-0.703-0.289l-1.102 0.836q-0.078 0.070-0.195 0.070-0.109 0-0.195-0.086-0.984-0.891-1.289-1.313-0.055-0.078-0.055-0.18 0-0.094 0.062-0.18 0.117-0.164 0.398-0.52t0.422-0.551q-0.211-0.391-0.32-0.773l-1.43-0.211q-0.102-0.016-0.164-0.098t-0.062-0.184v-1.734q0-0.094 0.062-0.18t0.148-0.102l1.453-0.219q0.109-0.359 0.305-0.719-0.312-0.445-0.836-1.078-0.078-0.094-0.078-0.187 0-0.078 0.070-0.18 0.203-0.281 0.77-0.84t0.738-0.559q0.102 0 0.203 0.078l1.078 0.836q0.344-0.18 0.711-0.297 0.125-1.062 0.227-1.453 0.055-0.219 0.281-0.219h1.734q0.109 0 0.191 0.066t0.090 0.168l0.219 1.438q0.383 0.125 0.703 0.289l1.109-0.836q0.070-0.070 0.187-0.070 0.102 0 0.195 0.078 1.008 0.93 1.289 1.328 0.055 0.062 0.055 0.172 0 0.094-0.062 0.18-0.117 0.164-0.398 0.52t-0.422 0.551q0.203 0.391 0.32 0.766l1.43 0.219q0.102 0.016 0.164 0.098t0.062 0.184z"></path>
</svg>
