<?xml version="1.0" encoding="utf-8"?>
<!-- Generated by IcoMoon.io -->
<!DOCTYPE svg PUBLIC "-//W3C//DTD SVG 1.1//EN" "http://www.w3.org/Graphics/SVG/1.1/DTD/svg11.dtd">
<svg version="1.1" xmlns="http://www.w3.org/2000/svg" xmlns:xlink="http://www.w3.org/1999/xlink" width="14" height="14" viewBox="0 0 14 14">
<path fill="#444444" d="M11 6q0 1.086-0.734 2.008t-2.004 1.457-2.762 0.535q-0.672 0-1.375-0.125-0.969 0.688-2.172 1-0.281 0.070-0.672 0.125h-0.023q-0.086 0-0.16-0.062t-0.090-0.164q-0.008-0.023-0.008-0.051t0.004-0.051 0.016-0.047l0.020-0.039t0.027-0.043 0.031-0.039 0.035-0.039 0.031-0.035q0.039-0.047 0.18-0.195t0.203-0.23 0.176-0.227 0.195-0.301 0.16-0.344q-0.969-0.563-1.523-1.383t-0.555-1.75q0-1.086 0.734-2.008t2.004-1.457 2.762-0.535 2.762 0.535 2.004 1.457 0.734 2.008zM14 8q0 0.937-0.555 1.754t-1.523 1.379q0.078 0.187 0.16 0.344t0.195 0.301 0.176 0.227 0.203 0.23 0.18 0.195q0.008 0.008 0.031 0.035t0.035 0.039 0.031 0.039 0.027 0.043l0.020 0.039t0.016 0.047 0.004 0.051-0.008 0.051q-0.023 0.109-0.102 0.172t-0.172 0.055q-0.391-0.055-0.672-0.125-1.203-0.312-2.172-1-0.703 0.125-1.375 0.125-2.117 0-3.687-1.031 0.453 0.031 0.688 0.031 1.258 0 2.414-0.352t2.062-1.008q0.977-0.719 1.5-1.656t0.523-1.984q0-0.602-0.18-1.187 1.008 0.555 1.594 1.391t0.586 1.797z"></path>
</svg>
