<?xml version="1.0" encoding="utf-8"?>
<!-- Generated by IcoMoon.io -->
<!DOCTYPE svg PUBLIC "-//W3C//DTD SVG 1.1//EN" "http://www.w3.org/Graphics/SVG/1.1/DTD/svg11.dtd">
<svg version="1.1" xmlns="http://www.w3.org/2000/svg" xmlns:xlink="http://www.w3.org/1999/xlink" width="14" height="14" viewBox="0 0 14 14">
<path fill="#444444" d="M14 7q0 1.359-0.937 2.512t-2.547 1.82-3.516 0.668q-0.547 0-1.133-0.062-1.547 1.367-3.594 1.891-0.383 0.109-0.891 0.172-0.133 0.016-0.238-0.070t-0.137-0.227v-0.008q-0.023-0.031-0.004-0.094t0.016-0.078 0.035-0.074l0.047-0.070t0.055-0.066 0.062-0.070q0.055-0.062 0.242-0.27t0.27-0.297 0.242-0.309 0.254-0.398 0.211-0.461 0.203-0.594q-1.227-0.695-1.934-1.719t-0.707-2.195q0-1.016 0.555-1.941t1.492-1.598 2.234-1.066 2.719-0.395q1.906 0 3.516 0.668t2.547 1.82 0.937 2.512z"></path>
</svg>
