<?xml version="1.0" encoding="utf-8"?>
<!-- Generated by IcoMoon.io -->
<!DOCTYPE svg PUBLIC "-//W3C//DTD SVG 1.1//EN" "http://www.w3.org/Graphics/SVG/1.1/DTD/svg11.dtd">
<svg version="1.1" xmlns="http://www.w3.org/2000/svg" xmlns:xlink="http://www.w3.org/1999/xlink" width="14" height="14" viewBox="0 0 14 14">
<path fill="#444444" d="M13.25 3q0.312 0 0.531 0.219t0.219 0.531v9.5q0 0.312-0.219 0.531t-0.531 0.219h-7.5q-0.312 0-0.531-0.219t-0.219-0.531v-2.25h-4.25q-0.312 0-0.531-0.219t-0.219-0.531v-5.25q0-0.312 0.156-0.688t0.375-0.594l3.188-3.188q0.219-0.219 0.594-0.375t0.688-0.156h3.25q0.312 0 0.531 0.219t0.219 0.531v2.563q0.531-0.312 1-0.312h3.25zM9 4.664l-2.336 2.336h2.336v-2.336zM4 1.664l-2.336 2.336h2.336v-2.336zM5.531 6.719l2.469-2.469v-3.25h-3v3.25q0 0.312-0.219 0.531t-0.531 0.219h-3.25v5h4v-2q0-0.312 0.156-0.688t0.375-0.594zM13 13v-9h-3v3.25q0 0.312-0.219 0.531t-0.531 0.219h-3.25v5h7z"></path>
</svg>
