<?xml version="1.0" encoding="utf-8"?>
<!-- Generated by IcoMoon.io -->
<!DOCTYPE svg PUBLIC "-//W3C//DTD SVG 1.1//EN" "http://www.w3.org/Graphics/SVG/1.1/DTD/svg11.dtd">
<svg version="1.1" xmlns="http://www.w3.org/2000/svg" xmlns:xlink="http://www.w3.org/1999/xlink" width="14" height="14" viewBox="0 0 14 14">
<path fill="#444444" d="M6 1q1.633 0 3.012 0.805t2.184 2.184 0.805 3.012-0.805 3.012-2.184 2.184-3.012 0.805-3.012-0.805-2.184-2.184-0.805-3.012 0.805-3.012 2.184-2.184 3.012-0.805zM7 10.742v-1.484q0-0.109-0.070-0.184t-0.172-0.074h-1.5q-0.102 0-0.18 0.078t-0.078 0.18v1.484q0 0.102 0.078 0.18t0.18 0.078h1.5q0.102 0 0.172-0.074t0.070-0.184zM6.984 8.055l0.141-4.852q0-0.094-0.078-0.141-0.078-0.062-0.187-0.062h-1.719q-0.109 0-0.187 0.062-0.078 0.047-0.078 0.141l0.133 4.852q0 0.078 0.078 0.137t0.187 0.059h1.445q0.109 0 0.184-0.059t0.082-0.137z"></path>
</svg>
