<?xml version="1.0" encoding="utf-8"?>
<!-- Generated by IcoMoon.io -->
<!DOCTYPE svg PUBLIC "-//W3C//DTD SVG 1.1//EN" "http://www.w3.org/Graphics/SVG/1.1/DTD/svg11.dtd">
<svg version="1.1" xmlns="http://www.w3.org/2000/svg" xmlns:xlink="http://www.w3.org/1999/xlink" width="14" height="14" viewBox="0 0 14 14">
<path fill="#444444" d="M4.336 10.43l0.609-1.102q-0.68-0.492-1.062-1.242t-0.383-1.586q0-0.945 0.477-1.758-1.789 0.914-2.977 2.758 1.305 2.016 3.336 2.93zM7.375 4.5q0-0.156-0.109-0.266t-0.266-0.109q-0.977 0-1.676 0.699t-0.699 1.676q0 0.156 0.109 0.266t0.266 0.109 0.266-0.109 0.109-0.266q0-0.672 0.477-1.148t1.148-0.477q0.156 0 0.266-0.109t0.109-0.266zM10.211 3.008q0 0.055-0.008 0.070-0.82 1.469-2.461 4.422t-2.469 4.43l-0.383 0.695q-0.078 0.125-0.219 0.125-0.094 0-1.047-0.547-0.125-0.078-0.125-0.219 0-0.094 0.344-0.68-1.117-0.508-2.059-1.352t-1.629-1.914q-0.156-0.242-0.156-0.539t0.156-0.539q1.195-1.836 2.969-2.898t3.875-1.062q0.695 0 1.406 0.133l0.422-0.758q0.078-0.125 0.219-0.125 0.039 0 0.141 0.047t0.242 0.121 0.258 0.145 0.246 0.145 0.152 0.090q0.125 0.078 0.125 0.211zM10.5 6.5q0 1.086-0.617 1.98t-1.633 1.285l2.188-3.922q0.062 0.352 0.062 0.656zM14 7.5q0 0.273-0.156 0.539-0.305 0.5-0.852 1.133-1.172 1.344-2.715 2.086t-3.277 0.742l0.578-1.031q1.656-0.141 3.066-1.070t2.355-2.398q-0.898-1.398-2.203-2.297l0.492-0.875q0.742 0.5 1.426 1.195t1.129 1.438q0.156 0.266 0.156 0.539z"></path>
</svg>
