<?xml version="1.0" encoding="utf-8"?>
<!-- Generated by IcoMoon.io -->
<!DOCTYPE svg PUBLIC "-//W3C//DTD SVG 1.1//EN" "http://www.w3.org/Graphics/SVG/1.1/DTD/svg11.dtd">
<svg version="1.1" xmlns="http://www.w3.org/2000/svg" xmlns:xlink="http://www.w3.org/1999/xlink" width="14" height="14" viewBox="0 0 14 14">
<path fill="#444444" d="M13.648 1.102q0.148-0.148 0.25-0.102t0.102 0.25v11.5q0 0.203-0.102 0.25t-0.25-0.102l-5.547-5.547q-0.070-0.070-0.102-0.148v5.547q0 0.203-0.102 0.25t-0.25-0.102l-5.547-5.547q-0.070-0.070-0.102-0.148v5.297q0 0.203-0.148 0.352t-0.352 0.148h-1q-0.203 0-0.352-0.148t-0.148-0.352v-11q0-0.203 0.148-0.352t0.352-0.148h1q0.203 0 0.352 0.148t0.148 0.352v5.297q0.031-0.086 0.102-0.148l5.547-5.547q0.148-0.148 0.25-0.102t0.102 0.25v5.547q0.031-0.086 0.102-0.148z"></path>
</svg>
