<?xml version="1.0" encoding="utf-8"?>
<!-- Generated by IcoMoon.io -->
<!DOCTYPE svg PUBLIC "-//W3C//DTD SVG 1.1//EN" "http://www.w3.org/Graphics/SVG/1.1/DTD/svg11.dtd">
<svg version="1.1" xmlns="http://www.w3.org/2000/svg" xmlns:xlink="http://www.w3.org/1999/xlink" width="14" height="14" viewBox="0 0 14 14">
<path fill="#444444" d="M2.5 2q0 0.563-0.5 0.859v9.891q0 0.102-0.074 0.176t-0.176 0.074h-0.5q-0.102 0-0.176-0.074t-0.074-0.176v-9.891q-0.5-0.297-0.5-0.859 0-0.414 0.293-0.707t0.707-0.293 0.707 0.293 0.293 0.707zM14 2.5v5.961q0 0.195-0.098 0.301t-0.309 0.215q-1.68 0.906-2.883 0.906-0.477 0-0.965-0.172t-0.848-0.375-0.902-0.375-1.113-0.172q-1.5 0-3.625 1.141-0.133 0.070-0.258 0.070-0.203 0-0.352-0.148t-0.148-0.352v-5.797q0-0.25 0.242-0.43 0.164-0.109 0.617-0.336 1.844-0.937 3.289-0.937 0.836 0 1.563 0.227t1.711 0.688q0.297 0.148 0.688 0.148 0.422 0 0.918-0.164t0.859-0.367 0.688-0.367 0.426-0.164q0.203 0 0.352 0.148t0.148 0.352z"></path>
</svg>
