<?xml version="1.0" encoding="utf-8"?>
<!-- Generated by IcoMoon.io -->
<!DOCTYPE svg PUBLIC "-//W3C//DTD SVG 1.1//EN" "http://www.w3.org/Graphics/SVG/1.1/DTD/svg11.dtd">
<svg version="1.1" xmlns="http://www.w3.org/2000/svg" xmlns:xlink="http://www.w3.org/1999/xlink" width="14" height="14" viewBox="0 0 14 14">
<path fill="#444444" d="M14 8.75q0 1.297-0.992 3.523-0.023 0.055-0.082 0.187t-0.105 0.234-0.102 0.172q-0.094 0.133-0.219 0.133-0.117 0-0.184-0.078t-0.066-0.195q0-0.070 0.020-0.207t0.020-0.184q0.039-0.531 0.039-0.961 0-0.789-0.137-1.414t-0.379-1.082-0.625-0.789-0.824-0.543-1.039-0.332-1.203-0.168-1.371-0.047h-1.75v2q0 0.203-0.148 0.352t-0.352 0.148-0.352-0.148l-4-4q-0.148-0.148-0.148-0.352t0.148-0.352l4-4q0.148-0.148 0.352-0.148t0.352 0.148 0.148 0.352v2h1.75q5.57 0 6.836 3.148 0.414 1.047 0.414 2.602z"></path>
</svg>
