<?xml version="1.0" encoding="utf-8"?>
<!-- Generated by IcoMoon.io -->
<!DOCTYPE svg PUBLIC "-//W3C//DTD SVG 1.1//EN" "http://www.w3.org/Graphics/SVG/1.1/DTD/svg11.dtd">
<svg version="1.1" xmlns="http://www.w3.org/2000/svg" xmlns:xlink="http://www.w3.org/1999/xlink" width="15" height="14" viewBox="0 0 15 14">
<path fill="#444444" d="M6 9h3v-0.75h-1v-3.5h-0.891l-1.156 1.070 0.602 0.625q0.328-0.289 0.43-0.445h0.016v2.25h-1v0.75zM10 7q0 0.547-0.164 1.109t-0.465 1.047-0.793 0.789-1.078 0.305-1.078-0.305-0.793-0.789-0.465-1.047-0.164-1.109 0.164-1.109 0.465-1.047 0.793-0.789 1.078-0.305 1.078 0.305 0.793 0.789 0.465 1.047 0.164 1.109zM14 9v-4q-0.828 0-1.414-0.586t-0.586-1.414h-9q0 0.828-0.586 1.414t-1.414 0.586v4q0.828 0 1.414 0.586t0.586 1.414h9q0-0.828 0.586-1.414t1.414-0.586zM15 2.5v9q0 0.203-0.148 0.352t-0.352 0.148h-14q-0.203 0-0.352-0.148t-0.148-0.352v-9q0-0.203 0.148-0.352t0.352-0.148h14q0.203 0 0.352 0.148t0.148 0.352z"></path>
</svg>
