<?xml version="1.0" encoding="utf-8"?>
<!-- Generated by IcoMoon.io -->
<!DOCTYPE svg PUBLIC "-//W3C//DTD SVG 1.1//EN" "http://www.w3.org/Graphics/SVG/1.1/DTD/svg11.dtd">
<svg version="1.1" xmlns="http://www.w3.org/2000/svg" xmlns:xlink="http://www.w3.org/1999/xlink" width="13" height="14" viewBox="0 0 13 14">
<path fill="#444444" d="M3 12h7v-2h-7v2zM3 7h7v-3h-1.25q-0.312 0-0.531-0.219t-0.219-0.531v-1.25h-5v5zM12 7.5q0-0.203-0.148-0.352t-0.352-0.148-0.352 0.148-0.148 0.352 0.148 0.352 0.352 0.148 0.352-0.148 0.148-0.352zM13 7.5v3.25q0 0.102-0.074 0.176t-0.176 0.074h-1.75v1.25q0 0.312-0.219 0.531t-0.531 0.219h-7.5q-0.312 0-0.531-0.219t-0.219-0.531v-1.25h-1.75q-0.102 0-0.176-0.074t-0.074-0.176v-3.25q0-0.617 0.441-1.059t1.059-0.441h0.5v-4.25q0-0.312 0.219-0.531t0.531-0.219h5.25q0.312 0 0.688 0.156t0.594 0.375l1.187 1.187q0.219 0.219 0.375 0.594t0.156 0.688v2h0.5q0.617 0 1.059 0.441t0.441 1.059z"></path>
</svg>
