<?xml version="1.0" encoding="utf-8"?>
<!-- Generated by IcoMoon.io -->
<!DOCTYPE svg PUBLIC "-//W3C//DTD SVG 1.1//EN" "http://www.w3.org/Graphics/SVG/1.1/DTD/svg11.dtd">
<svg version="1.1" xmlns="http://www.w3.org/2000/svg" xmlns:xlink="http://www.w3.org/1999/xlink" width="14" height="14" viewBox="0 0 14 14">
<path fill="#444444" d="M12 7q0 1.219-0.477 2.328t-1.281 1.914-1.914 1.281-2.328 0.477q-1.344 0-2.555-0.566t-2.062-1.598q-0.055-0.078-0.051-0.176t0.066-0.16l1.070-1.078q0.078-0.070 0.195-0.070 0.125 0.016 0.18 0.094 0.57 0.742 1.398 1.148t1.758 0.406q0.813 0 1.551-0.316t1.277-0.855 0.855-1.277 0.316-1.551-0.316-1.551-0.855-1.277-1.277-0.855-1.551-0.316q-0.766 0-1.469 0.277t-1.25 0.793l1.070 1.078q0.242 0.234 0.109 0.539-0.133 0.312-0.461 0.312h-3.5q-0.203 0-0.352-0.148t-0.148-0.352v-3.5q0-0.328 0.312-0.461 0.305-0.133 0.539 0.109l1.016 1.008q0.836-0.789 1.91-1.223t2.223-0.434q1.219 0 2.328 0.477t1.914 1.281 1.281 1.914 0.477 2.328z"></path>
</svg>
