<?xml version="1.0" encoding="utf-8"?>
<!-- Generated by IcoMoon.io -->
<!DOCTYPE svg PUBLIC "-//W3C//DTD SVG 1.1//EN" "http://www.w3.org/Graphics/SVG/1.1/DTD/svg11.dtd">
<svg version="1.1" xmlns="http://www.w3.org/2000/svg" xmlns:xlink="http://www.w3.org/1999/xlink" width="13" height="14" viewBox="0 0 13 14">
<path fill="#444444" d="M8 6.25v0.5q0 0.102-0.074 0.176t-0.176 0.074h-4.5q-0.102 0-0.176-0.074t-0.074-0.176v-0.5q0-0.102 0.074-0.176t0.176-0.074h4.5q0.102 0 0.176 0.074t0.074 0.176zM9 6.5q0-1.445-1.027-2.473t-2.473-1.027-2.473 1.027-1.027 2.473 1.027 2.473 2.473 1.027 2.473-1.027 1.027-2.473zM13 13q0 0.414-0.293 0.707t-0.707 0.293q-0.422 0-0.703-0.297l-2.68-2.672q-1.398 0.969-3.117 0.969-1.117 0-2.137-0.434t-1.758-1.172-1.172-1.758-0.434-2.137 0.434-2.137 1.172-1.758 1.758-1.172 2.137-0.434 2.137 0.434 1.758 1.172 1.172 1.758 0.434 2.137q0 1.719-0.969 3.117l2.68 2.68q0.289 0.289 0.289 0.703z"></path>
</svg>
