<?xml version="1.0" encoding="utf-8"?>
<!-- Generated by IcoMoon.io -->
<!DOCTYPE svg PUBLIC "-//W3C//DTD SVG 1.1//EN" "http://www.w3.org/Graphics/SVG/1.1/DTD/svg11.dtd">
<svg version="1.1" xmlns="http://www.w3.org/2000/svg" xmlns:xlink="http://www.w3.org/1999/xlink" width="13" height="14" viewBox="0 0 13 14">
<path fill="#444444" d="M11 7.727v2.023q0 0.93-0.66 1.59t-1.59 0.66h-6.5q-0.93 0-1.59-0.66t-0.66-1.59v-6.5q0-0.93 0.66-1.59t1.59-0.66h1.992q0.102 0 0.176 0.074t0.074 0.176q0 0.211-0.203 0.25-0.602 0.203-1.039 0.469-0.078 0.031-0.125 0.031h-0.875q-0.516 0-0.883 0.367t-0.367 0.883v6.5q0 0.516 0.367 0.883t0.883 0.367h6.5q0.516 0 0.883-0.367t0.367-0.883v-1.672q0-0.148 0.141-0.227 0.219-0.102 0.422-0.289 0.125-0.125 0.273-0.062 0.164 0.070 0.164 0.227zM12.852 3.852l-3 3q-0.141 0.148-0.352 0.148-0.094 0-0.195-0.039-0.305-0.133-0.305-0.461v-1.5h-1.25q-2.523 0-3.422 1.023-0.93 1.070-0.578 3.695 0.023 0.18-0.156 0.266-0.062 0.016-0.094 0.016-0.125 0-0.203-0.102-0.078-0.109-0.164-0.242t-0.309-0.535-0.387-0.777-0.301-0.891-0.137-0.953q0-0.383 0.027-0.711t0.109-0.703 0.219-0.688 0.367-0.637 0.535-0.578 0.738-0.48 0.973-0.379 1.246-0.238 1.535-0.086h1.25v-1.5q0-0.328 0.305-0.461 0.102-0.039 0.195-0.039 0.203 0 0.352 0.148l3 3q0.148 0.148 0.148 0.352t-0.148 0.352z"></path>
</svg>
