<?xml version="1.0" encoding="utf-8"?>
<!-- Generated by IcoMoon.io -->
<!DOCTYPE svg PUBLIC "-//W3C//DTD SVG 1.1//EN" "http://www.w3.org/Graphics/SVG/1.1/DTD/svg11.dtd">
<svg version="1.1" xmlns="http://www.w3.org/2000/svg" xmlns:xlink="http://www.w3.org/1999/xlink" width="14" height="14" viewBox="0 0 14 14">
<path fill="#444444" d="M4.109 10.891q0 0.414-0.293 0.707t-0.707 0.293q-0.406 0-0.703-0.297t-0.297-0.703q0-0.414 0.293-0.707t0.707-0.293 0.707 0.293 0.293 0.707zM8 12.5q0 0.414-0.293 0.707t-0.707 0.293-0.707-0.293-0.293-0.707 0.293-0.707 0.707-0.293 0.707 0.293 0.293 0.707zM2.5 7q0 0.414-0.293 0.707t-0.707 0.293-0.707-0.293-0.293-0.707 0.293-0.707 0.707-0.293 0.707 0.293 0.293 0.707zM11.891 10.891q0 0.406-0.297 0.703t-0.703 0.297q-0.414 0-0.707-0.293t-0.293-0.707 0.293-0.707 0.707-0.293 0.707 0.293 0.293 0.707zM4.359 3.109q0 0.516-0.367 0.883t-0.883 0.367-0.883-0.367-0.367-0.883 0.367-0.883 0.883-0.367 0.883 0.367 0.367 0.883zM13.5 7q0 0.414-0.293 0.707t-0.707 0.293-0.707-0.293-0.293-0.707 0.293-0.707 0.707-0.293 0.707 0.293 0.293 0.707zM8.5 1.5q0 0.625-0.438 1.062t-1.062 0.438-1.062-0.438-0.438-1.062 0.438-1.062 1.062-0.438 1.062 0.438 0.438 1.062zM12.641 3.109q0 0.727-0.516 1.238t-1.234 0.512q-0.727 0-1.238-0.512t-0.512-1.238q0-0.719 0.512-1.234t1.238-0.516q0.719 0 1.234 0.516t0.516 1.234z"></path>
</svg>
