<?xml version="1.0" encoding="utf-8"?>
<!-- Generated by IcoMoon.io -->
<!DOCTYPE svg PUBLIC "-//W3C//DTD SVG 1.1//EN" "http://www.w3.org/Graphics/SVG/1.1/DTD/svg11.dtd">
<svg version="1.1" xmlns="http://www.w3.org/2000/svg" xmlns:xlink="http://www.w3.org/1999/xlink" width="13" height="14" viewBox="0 0 13 14">
<path fill="#444444" d="M4 10.75v-1.5q0-0.109-0.070-0.18t-0.18-0.070h-2.5q-0.109 0-0.18 0.070t-0.070 0.18v1.5q0 0.109 0.070 0.18t0.18 0.070h2.5q0.109 0 0.18-0.070t0.070-0.18zM4 7.75v-1.5q0-0.109-0.070-0.18t-0.18-0.070h-2.5q-0.109 0-0.18 0.070t-0.070 0.18v1.5q0 0.109 0.070 0.18t0.18 0.070h2.5q0.109 0 0.18-0.070t0.070-0.18zM8 10.75v-1.5q0-0.109-0.070-0.18t-0.18-0.070h-2.5q-0.109 0-0.18 0.070t-0.070 0.18v1.5q0 0.109 0.070 0.18t0.18 0.070h2.5q0.109 0 0.18-0.070t0.070-0.18zM4 4.75v-1.5q0-0.109-0.070-0.18t-0.18-0.070h-2.5q-0.109 0-0.18 0.070t-0.070 0.18v1.5q0 0.109 0.070 0.18t0.18 0.070h2.5q0.109 0 0.18-0.070t0.070-0.18zM8 7.75v-1.5q0-0.109-0.070-0.18t-0.18-0.070h-2.5q-0.109 0-0.18 0.070t-0.070 0.18v1.5q0 0.109 0.070 0.18t0.18 0.070h2.5q0.109 0 0.18-0.070t0.070-0.18zM12 10.75v-1.5q0-0.109-0.070-0.18t-0.18-0.070h-2.5q-0.109 0-0.18 0.070t-0.070 0.18v1.5q0 0.109 0.070 0.18t0.18 0.070h2.5q0.109 0 0.18-0.070t0.070-0.18zM8 4.75v-1.5q0-0.109-0.070-0.18t-0.18-0.070h-2.5q-0.109 0-0.18 0.070t-0.070 0.18v1.5q0 0.109 0.070 0.18t0.18 0.070h2.5q0.109 0 0.18-0.070t0.070-0.18zM12 7.75v-1.5q0-0.109-0.070-0.18t-0.18-0.070h-2.5q-0.109 0-0.18 0.070t-0.070 0.18v1.5q0 0.109 0.070 0.18t0.18 0.070h2.5q0.109 0 0.18-0.070t0.070-0.18zM12 4.75v-1.5q0-0.109-0.070-0.18t-0.18-0.070h-2.5q-0.109 0-0.18 0.070t-0.070 0.18v1.5q0 0.109 0.070 0.18t0.18 0.070h2.5q0.109 0 0.18-0.070t0.070-0.18zM13 2.25v8.5q0 0.516-0.367 0.883t-0.883 0.367h-10.5q-0.516 0-0.883-0.367t-0.367-0.883v-8.5q0-0.516 0.367-0.883t0.883-0.367h10.5q0.516 0 0.883 0.367t0.367 0.883z"></path>
</svg>
