<?xml version="1.0" encoding="utf-8"?>
<!-- Generated by IcoMoon.io -->
<!DOCTYPE svg PUBLIC "-//W3C//DTD SVG 1.1//EN" "http://www.w3.org/Graphics/SVG/1.1/DTD/svg11.dtd">
<svg version="1.1" xmlns="http://www.w3.org/2000/svg" xmlns:xlink="http://www.w3.org/1999/xlink" width="9" height="14" viewBox="0 0 9 14">
<path fill="#444444" d="M3.75 6.75v-3.5q0-0.109-0.070-0.18t-0.18-0.070-0.18 0.070-0.070 0.18v3.5q0 0.109 0.070 0.18t0.18 0.070 0.18-0.070 0.070-0.18zM9 9.5q0 0.203-0.148 0.352t-0.352 0.148h-3.352l-0.398 3.773q-0.016 0.094-0.082 0.16t-0.16 0.066h-0.008q-0.211 0-0.25-0.211l-0.594-3.789h-3.156q-0.203 0-0.352-0.148t-0.148-0.352q0-0.961 0.613-1.73t1.387-0.77v-4q-0.406 0-0.703-0.297t-0.297-0.703 0.297-0.703 0.703-0.297h5q0.406 0 0.703 0.297t0.297 0.703-0.297 0.703-0.703 0.297v4q0.773 0 1.387 0.77t0.613 1.73z"></path>
</svg>
