<?xml version="1.0" encoding="utf-8"?>
<!-- Generated by IcoMoon.io -->
<!DOCTYPE svg PUBLIC "-//W3C//DTD SVG 1.1//EN" "http://www.w3.org/Graphics/SVG/1.1/DTD/svg11.dtd">
<svg version="1.1" xmlns="http://www.w3.org/2000/svg" xmlns:xlink="http://www.w3.org/1999/xlink" width="11" height="14" viewBox="0 0 11 14">
<path fill="#444444" d="M4 5.75v4.5q0 0.109-0.070 0.18t-0.18 0.070h-0.5q-0.109 0-0.18-0.070t-0.070-0.18v-4.5q0-0.109 0.070-0.18t0.18-0.070h0.5q0.109 0 0.18 0.070t0.070 0.18zM6 5.75v4.5q0 0.109-0.070 0.18t-0.18 0.070h-0.5q-0.109 0-0.18-0.070t-0.070-0.18v-4.5q0-0.109 0.070-0.18t0.18-0.070h0.5q0.109 0 0.18 0.070t0.070 0.18zM8 5.75v4.5q0 0.109-0.070 0.18t-0.18 0.070h-0.5q-0.109 0-0.18-0.070t-0.070-0.18v-4.5q0-0.109 0.070-0.18t0.18-0.070h0.5q0.109 0 0.18 0.070t0.070 0.18zM9 11.406v-7.406h-7v7.406q0 0.172 0.055 0.316t0.113 0.211 0.082 0.066h6.5q0.023 0 0.082-0.066t0.113-0.211 0.055-0.316zM3.75 3h3.5l-0.375-0.914q-0.055-0.070-0.133-0.086h-2.477q-0.078 0.016-0.133 0.086zM11 3.25v0.5q0 0.109-0.070 0.18t-0.18 0.070h-0.75v7.406q0 0.648-0.367 1.121t-0.883 0.473h-6.5q-0.516 0-0.883-0.457t-0.367-1.105v-7.438h-0.75q-0.109 0-0.18-0.070t-0.070-0.18v-0.5q0-0.109 0.070-0.18t0.18-0.070h2.414l0.547-1.305q0.117-0.289 0.422-0.492t0.617-0.203h2.5q0.312 0 0.617 0.203t0.422 0.492l0.547 1.305h2.414q0.109 0 0.18 0.070t0.070 0.18z"></path>
</svg>
