<?xml version="1.0" encoding="utf-8"?>
<!-- Generated by IcoMoon.io -->
<!DOCTYPE svg PUBLIC "-//W3C//DTD SVG 1.1//EN" "http://www.w3.org/Graphics/SVG/1.1/DTD/svg11.dtd">
<svg version="1.1" xmlns="http://www.w3.org/2000/svg" xmlns:xlink="http://www.w3.org/1999/xlink" width="14" height="14" viewBox="0 0 14 14">
<path fill="#444444" d="M10 4.766q-0.438 0.195-0.945 0.266 0.531-0.312 0.727-0.914-0.508 0.297-1.047 0.398-0.477-0.516-1.195-0.516-0.68 0-1.16 0.48t-0.48 1.16q0 0.227 0.039 0.375-1.008-0.055-1.891-0.508t-1.5-1.211q-0.227 0.391-0.227 0.828 0 0.891 0.711 1.367-0.367-0.008-0.781-0.203v0.016q0 0.586 0.391 1.043t0.961 0.566q-0.227 0.062-0.398 0.062-0.102 0-0.305-0.031 0.164 0.492 0.582 0.813t0.949 0.328q-0.906 0.703-2.039 0.703-0.203 0-0.391-0.023 1.156 0.734 2.516 0.734 0.875 0 1.641-0.277t1.313-0.742 0.941-1.070 0.586-1.266 0.191-1.316q0-0.141-0.008-0.211 0.492-0.352 0.82-0.852zM12 3.25v7.5q0 0.93-0.66 1.59t-1.59 0.66h-7.5q-0.93 0-1.59-0.66t-0.66-1.59v-7.5q0-0.93 0.66-1.59t1.59-0.66h7.5q0.93 0 1.59 0.66t0.66 1.59z"></path>
</svg>
