<?xml version="1.0" encoding="utf-8"?>
<!-- Generated by IcoMoon.io -->
<!DOCTYPE svg PUBLIC "-//W3C//DTD SVG 1.1//EN" "http://www.w3.org/Graphics/SVG/1.1/DTD/svg11.dtd">
<svg version="1.1" xmlns="http://www.w3.org/2000/svg" xmlns:xlink="http://www.w3.org/1999/xlink" width="9" height="14" viewBox="0 0 9 14">
<path fill="#444444" d="M8.25 6q0.312 0 0.531 0.219t0.219 0.531v4.5q0 0.312-0.219 0.531t-0.531 0.219h-7.5q-0.312 0-0.531-0.219t-0.219-0.531v-4.5q0-0.312 0.219-0.531t0.531-0.219h0.25v-2.5q0-1.445 1.027-2.473t2.473-1.027 2.473 1.027 1.027 2.473q0 0.203-0.148 0.352t-0.352 0.148h-0.5q-0.203 0-0.352-0.148t-0.148-0.352q0-0.828-0.586-1.414t-1.414-0.586-1.414 0.586-0.586 1.414v2.5h5.75z"></path>
</svg>
