<?xml version="1.0" encoding="utf-8"?>
<!-- Generated by IcoMoon.io -->
<!DOCTYPE svg PUBLIC "-//W3C//DTD SVG 1.1//EN" "http://www.w3.org/Graphics/SVG/1.1/DTD/svg11.dtd">
<svg version="1.1" xmlns="http://www.w3.org/2000/svg" xmlns:xlink="http://www.w3.org/1999/xlink" width="13" height="14" viewBox="0 0 13 14">
<path fill="#444444" d="M10 11.5q0-0.203-0.148-0.352t-0.352-0.148-0.352 0.148-0.148 0.352 0.148 0.352 0.352 0.148 0.352-0.148 0.148-0.352zM12 11.5q0-0.203-0.148-0.352t-0.352-0.148-0.352 0.148-0.148 0.352 0.148 0.352 0.352 0.148 0.352-0.148 0.148-0.352zM13 9.75v2.5q0 0.312-0.219 0.531t-0.531 0.219h-11.5q-0.312 0-0.531-0.219t-0.219-0.531v-2.5q0-0.312 0.219-0.531t0.531-0.219h3.336q0.164 0.438 0.551 0.719t0.863 0.281h2q0.477 0 0.863-0.281t0.551-0.719h3.336q0.312 0 0.531 0.219t0.219 0.531zM10.461 4.687q-0.133 0.312-0.461 0.312h-2v3.5q0 0.203-0.148 0.352t-0.352 0.148h-2q-0.203 0-0.352-0.148t-0.148-0.352v-3.5h-2q-0.328 0-0.461-0.312-0.133-0.305 0.109-0.539l3.5-3.5q0.141-0.148 0.352-0.148t0.352 0.148l3.5 3.5q0.242 0.234 0.109 0.539z"></path>
</svg>
