<?xml version="1.0" encoding="utf-8"?>
<!-- Generated by IcoMoon.io -->
<!DOCTYPE svg PUBLIC "-//W3C//DTD SVG 1.1//EN" "http://www.w3.org/Graphics/SVG/1.1/DTD/svg11.dtd">
<svg version="1.1" xmlns="http://www.w3.org/2000/svg" xmlns:xlink="http://www.w3.org/1999/xlink" width="11" height="14" viewBox="0 0 11 14">
<path fill="#444444" d="M11 10.977q0 0.937-0.57 1.48t-1.516 0.543h-6.828q-0.945 0-1.516-0.543t-0.57-1.48q0-0.414 0.027-0.809t0.109-0.852 0.207-0.848 0.336-0.762 0.484-0.633 0.668-0.418 0.871-0.156q0.070 0 0.328 0.168t0.582 0.375 0.844 0.375 1.043 0.168 1.043-0.168 0.844-0.375 0.582-0.375 0.328-0.168q0.477 0 0.871 0.156t0.668 0.418 0.484 0.633 0.336 0.762 0.207 0.848 0.109 0.852 0.027 0.809zM8.5 4q0 1.242-0.879 2.121t-2.121 0.879-2.121-0.879-0.879-2.121 0.879-2.121 2.121-0.879 2.121 0.879 0.879 2.121z"></path>
</svg>
