<?xml version="1.0" encoding="utf-8"?>
<!-- Generated by IcoMoon.io -->
<!DOCTYPE svg PUBLIC "-//W3C//DTD SVG 1.1//EN" "http://www.w3.org/Graphics/SVG/1.1/DTD/svg11.dtd">
<svg version="1.1" xmlns="http://www.w3.org/2000/svg" xmlns:xlink="http://www.w3.org/1999/xlink" width="14" height="14" viewBox="0 0 14 14">
<path fill="#444444" d="M14 2.75v8.5q0 0.328-0.305 0.461-0.102 0.039-0.195 0.039-0.211 0-0.352-0.148l-3.148-3.148v1.297q0 0.93-0.66 1.59t-1.59 0.66h-5.5q-0.93 0-1.59-0.66t-0.66-1.59v-5.5q0-0.93 0.66-1.59t1.59-0.66h5.5q0.93 0 1.59 0.66t0.66 1.59v1.289l3.148-3.141q0.141-0.148 0.352-0.148 0.094 0 0.195 0.039 0.305 0.133 0.305 0.461z"></path>
</svg>
