<svg display="none" width="0" height="0" version="1.1" xmlns="http://www.w3.org/2000/svg" xmlns:xlink="http://www.w3.org/1999/xlink">
<defs>
<symbol id="icon-book" viewBox="0 0 1024 1024">
	<title>book</title>
	<path class="path1" d="M768 85.333h-512c-47.147 0-85.333 38.187-85.333 85.333v682.667c0 47.147 38.187 85.333 85.333 85.333h512c47.147 0 85.333-38.187 85.333-85.333v-682.667c0-47.147-38.187-85.333-85.333-85.333zM256 170.667h213.333v341.333l-106.667-64-106.667 64v-341.333z"></path>
</symbol>
<symbol id="icon-delete" viewBox="0 0 1024 1024">
	<title>delete</title>
	<path class="path1" d="M256 810.667c0 47.147 38.187 85.333 85.333 85.333h341.333c47.147 0 85.333-38.187 85.333-85.333v-512h-512v512zM810.667 170.667h-149.333l-42.667-42.667h-213.333l-42.667 42.667h-149.333v85.333h597.333v-85.333z"></path>
</symbol>
<symbol id="icon-checkmark" viewBox="0 0 1024 1024">
	<title>checkmark</title>
	<path class="path1" d="M384 689.92l-177.92-177.92-60.373 60.373 238.293 238.293 512-512-60.373-60.373z"></path>
</symbol>
<symbol id="icon-calendar" viewBox="0 0 1024 1024">
	<title>calendar</title>
	<path class="path1" d="M725.333 512h-213.333v213.333h213.333v-213.333zM682.667 42.667v85.333h-341.333v-85.333h-85.333v85.333h-42.667c-47.147 0-84.907 38.187-84.907 85.333l-0.427 597.333c0 47.147 38.187 85.333 85.333 85.333h597.333c47.147 0 85.333-38.187 85.333-85.333v-597.333c0-47.147-38.187-85.333-85.333-85.333h-42.667v-85.333h-85.333zM810.667 810.667h-597.333v-469.333h597.333v469.333z"></path>
</symbol>
<symbol id="icon-help" viewBox="0 0 1024 1024">
	<title>help</title>
	<path class="path1" d="M512 85.333c-235.733 0-426.667 190.933-426.667 426.667s190.933 426.667 426.667 426.667 426.667-190.933 426.667-426.667-190.933-426.667-426.667-426.667zM554.667 810.667h-85.333v-85.333h85.333v85.333zM642.773 480.213l-38.187 39.253c-30.72 30.72-49.92 56.533-49.92 120.533h-85.333v-21.333c0-47.147 19.2-89.813 49.92-120.747l53.12-53.76c15.36-15.36 24.96-36.693 24.96-60.16 0-47.147-38.187-85.333-85.333-85.333s-85.333 38.187-85.333 85.333h-85.333c0-94.293 76.373-170.667 170.667-170.667s170.667 76.373 170.667 170.667c0 37.547-15.147 71.467-39.893 96.213z"></path>
</symbol>
<symbol id="icon-close-remove" viewBox="0 0 1024 1024">
	<title>close-remove</title>
	<path class="path1" d="M622.293 341.333l-110.293 110.293-110.293-110.293-60.373 60.373 110.293 110.293-110.293 110.293 60.373 60.373 110.293-110.293 110.293 110.293 60.373-60.373-110.293-110.293 110.293-110.293-60.373-60.373zM512 85.333c-235.733 0-426.667 190.933-426.667 426.667s190.933 426.667 426.667 426.667 426.667-190.933 426.667-426.667-190.933-426.667-426.667-426.667zM512 853.333c-188.16 0-341.333-153.173-341.333-341.333s153.173-341.333 341.333-341.333 341.333 153.173 341.333 341.333-153.173 341.333-341.333 341.333z"></path>
</symbol>
<symbol id="icon-home" viewBox="0 0 1024 1024">
	<title>home</title>
	<path class="path1" d="M426.667 853.333v-256h170.667v256h213.333v-341.333h128l-426.667-384-426.667 384h128v341.333z"></path>
</symbol>
<symbol id="icon-info" viewBox="0 0 1024 1024">
	<title>info</title>
	<path class="path1" d="M512 85.333c-235.733 0-426.667 190.933-426.667 426.667s190.933 426.667 426.667 426.667 426.667-190.933 426.667-426.667-190.933-426.667-426.667-426.667zM554.667 725.333h-85.333v-256h85.333v256zM554.667 384h-85.333v-85.333h85.333v85.333z"></path>
</symbol>
<symbol id="icon-list" viewBox="0 0 1024 1024">
	<title>list</title>
	<path class="path1" d="M128 554.667h85.333v-85.333h-85.333v85.333zM128 725.333h85.333v-85.333h-85.333v85.333zM128 384h85.333v-85.333h-85.333v85.333zM298.667 554.667h597.333v-85.333h-597.333v85.333zM298.667 725.333h597.333v-85.333h-597.333v85.333zM298.667 298.667v85.333h597.333v-85.333h-597.333z"></path>
</symbol>
<symbol id="icon-lock" viewBox="0 0 1024 1024">
	<title>lock</title>
	<path class="path1" d="M768 341.333h-42.667v-85.333c0-117.76-95.573-213.333-213.333-213.333s-213.333 95.573-213.333 213.333v85.333h-42.667c-47.147 0-85.333 38.187-85.333 85.333v426.667c0 47.147 38.187 85.333 85.333 85.333h512c47.147 0 85.333-38.187 85.333-85.333v-426.667c0-47.147-38.187-85.333-85.333-85.333zM512 725.333c-47.147 0-85.333-38.187-85.333-85.333s38.187-85.333 85.333-85.333 85.333 38.187 85.333 85.333-38.187 85.333-85.333 85.333zM644.267 341.333h-264.533v-85.333c0-72.96 59.307-132.267 132.267-132.267s132.267 59.307 132.267 132.267v85.333z"></path>
</symbol>
<symbol id="icon-unlocked" viewBox="0 0 1024 1024">
	<title>unlocked</title>
	<path class="path1" d="M512 725.333c47.147 0 85.333-38.187 85.333-85.333s-38.187-85.333-85.333-85.333-85.333 38.187-85.333 85.333 38.187 85.333 85.333 85.333zM768 341.333h-42.667v-85.333c0-117.76-95.573-213.333-213.333-213.333s-213.333 95.573-213.333 213.333h81.067c0-72.96 59.307-132.267 132.267-132.267s132.267 59.307 132.267 132.267v85.333h-388.267c-47.147 0-85.333 38.187-85.333 85.333v426.667c0 47.147 38.187 85.333 85.333 85.333h512c47.147 0 85.333-38.187 85.333-85.333v-426.667c0-47.147-38.187-85.333-85.333-85.333zM768 853.333h-512v-426.667h512v426.667z"></path>
</symbol>
<symbol id="icon-external" viewBox="0 0 1024 1024">
	<title>external</title>
	<path class="path1" d="M810.667 810.667h-597.333v-597.333h298.667v-85.333h-298.667c-47.147 0-85.333 38.187-85.333 85.333v597.333c0 47.147 38.187 85.333 85.333 85.333h597.333c47.147 0 85.333-38.187 85.333-85.333v-298.667h-85.333v298.667zM597.333 128v85.333h152.96l-419.413 419.413 60.373 60.373 419.413-419.413v152.96h85.333v-298.667h-298.667z"></path>
</symbol>
<symbol id="icon-print" viewBox="0 0 1024 1024">
	<title>print</title>
	<path class="path1" d="M810.667 341.333h-597.333c-70.613 0-128 57.387-128 128v256h170.667v170.667h512v-170.667h170.667v-256c0-70.613-57.387-128-128-128zM682.667 810.667h-341.333v-213.333h341.333v213.333zM810.667 512c-23.68 0-42.667-18.987-42.667-42.667s18.987-42.667 42.667-42.667c23.68 0 42.667 18.987 42.667 42.667s-18.987 42.667-42.667 42.667zM768 128h-512v170.667h512v-170.667z"></path>
</symbol>
<symbol id="icon-comments" viewBox="0 0 1024 1024">
	<title>comments</title>
	<path class="path1" d="M896 256h-85.333v384h-554.667v85.333c0 23.467 19.2 42.667 42.667 42.667h469.333l170.667 170.667v-640c0-23.467-19.2-42.667-42.667-42.667zM725.333 512v-384c0-23.467-19.2-42.667-42.667-42.667h-554.667c-23.467 0-42.667 19.2-42.667 42.667v597.333l170.667-170.667h426.667c23.467 0 42.667-19.2 42.667-42.667z"></path>
</symbol>
<symbol id="icon-search" viewBox="0 0 1024 1024">
	<title>search</title>
	<path class="path1" d="M661.333 597.333h-33.92l-11.733-11.733c41.813-48.427 66.987-111.36 66.987-180.267 0-153.173-124.16-277.333-277.333-277.333s-277.333 124.16-277.333 277.333 124.16 277.333 277.333 277.333c68.907 0 131.84-25.173 180.267-66.773l11.733 11.733v33.707l213.333 212.907 63.573-63.573-212.907-213.333zM405.333 597.333c-106.027 0-192-85.973-192-192s85.973-192 192-192 192 85.973 192 192-85.973 192-192 192z"></path>
</symbol>
<symbol id="icon-settings" viewBox="0 0 1024 1024">
	<title>settings</title>
	<path class="path1" d="M829.013 553.6c1.707-13.653 2.987-27.52 2.987-41.6s-1.28-27.947-2.987-41.6l90.24-70.613c8.107-6.4 10.453-17.92 5.12-27.307l-85.333-147.84c-5.333-9.173-16.427-13.013-26.027-9.173l-106.24 42.88c-21.973-16.853-46.080-31.147-72.107-42.027l-16-113.067c-1.92-10.027-10.667-17.92-21.333-17.92h-170.667c-10.667 0-19.413 7.893-21.12 17.92l-16 113.067c-26.027 10.88-50.133 24.96-72.107 42.027l-106.24-42.88c-9.6-3.627-20.693 0-26.027 9.173l-85.333 147.84c-5.333 9.173-2.987 20.693 5.12 27.307l90.027 70.613c-1.707 13.653-2.987 27.52-2.987 41.6s1.28 27.947 2.987 41.6l-90.027 70.613c-8.107 6.4-10.453 17.92-5.12 27.307l85.333 147.84c5.333 9.173 16.427 13.013 26.027 9.173l106.24-42.88c21.973 16.853 46.080 31.147 72.107 42.027l16 113.067c1.707 10.027 10.453 17.92 21.12 17.92h170.667c10.667 0 19.413-7.893 21.12-17.92l16-113.067c26.027-10.88 50.133-24.96 72.107-42.027l106.24 42.88c9.6 3.627 20.693 0 26.027-9.173l85.333-147.84c5.333-9.173 2.987-20.693-5.12-27.307l-90.027-70.613zM512 661.333c-82.56 0-149.333-66.773-149.333-149.333s66.773-149.333 149.333-149.333 149.333 66.773 149.333 149.333-66.773 149.333-149.333 149.333z"></path>
</symbol>
<symbol id="icon-shopping-cart" viewBox="0 0 1024 1024">
	<title>shopping-cart</title>
	<path class="path1" d="M298.667 768c-47.147 0-84.907 38.187-84.907 85.333s37.76 85.333 84.907 85.333 85.333-38.187 85.333-85.333-38.187-85.333-85.333-85.333zM42.667 85.333v85.333h85.333l153.387 323.627-57.6 104.533c-6.613 12.373-10.453 26.24-10.453 41.173 0 47.147 38.187 85.333 85.333 85.333h512v-85.333h-493.867c-5.973 0-10.667-4.693-10.667-10.667 0-1.92 0.427-3.627 1.28-5.12l38.187-69.547h317.867c32 0 59.947-17.707 74.667-43.947l152.533-276.907c3.413-5.973 5.333-13.013 5.333-20.48 0-23.68-19.2-42.667-42.667-42.667h-630.827l-40.533-85.333h-139.307zM725.333 768c-47.147 0-84.907 38.187-84.907 85.333s37.76 85.333 84.907 85.333 85.333-38.187 85.333-85.333-38.187-85.333-85.333-85.333z"></path>
</symbol>
<symbol id="icon-sort" viewBox="0 0 1024 1024">
	<title>sort</title>
	<path class="path1" d="M682.667 725.76v-299.093h-85.333v299.093h-128l170.667 170.24 170.667-170.24h-128zM384 128l-170.667 170.24h128v299.093h85.333v-299.093h128l-170.667-170.24z"></path>
</symbol>
<symbol id="icon-error" viewBox="0 0 1024 1024">
	<title>error</title>
	<path class="path1" d="M512 85.333c-235.52 0-426.667 190.933-426.667 426.667s191.147 426.667 426.667 426.667 426.667-190.933 426.667-426.667-191.147-426.667-426.667-426.667zM554.667 725.333h-85.333v-85.333h85.333v85.333zM554.667 554.667h-85.333v-256h85.333v256z"></path>
</symbol>
<symbol id="icon-warning" viewBox="0 0 1024 1024">
	<title>warning</title>
	<path class="path1" d="M42.667 896h938.667l-469.333-810.667-469.333 810.667zM554.667 768h-85.333v-85.333h85.333v85.333zM554.667 597.333h-85.333v-170.667h85.333v170.667z"></path>
</symbol>
<symbol id="icon-closed-caption" viewBox="0 0 1024 1024">
	<title>closed-caption</title>
	<path class="path1" d="M810.667 170.667h-597.333c-47.147 0-85.333 38.187-85.333 85.333v512c0 47.147 38.187 85.333 85.333 85.333h597.333c47.147 0 85.333-38.187 85.333-85.333v-512c0-47.147-38.187-85.333-85.333-85.333zM469.333 469.333h-64v-21.333h-85.333v128h85.333v-21.333h64v42.667c0 23.467-18.987 42.667-42.667 42.667h-128c-23.68 0-42.667-19.2-42.667-42.667v-170.667c0-23.467 18.987-42.667 42.667-42.667h128c23.68 0 42.667 19.2 42.667 42.667v42.667zM768 469.333h-64v-21.333h-85.333v128h85.333v-21.333h64v42.667c0 23.467-18.987 42.667-42.667 42.667h-128c-23.68 0-42.667-19.2-42.667-42.667v-170.667c0-23.467 18.987-42.667 42.667-42.667h128c23.68 0 42.667 19.2 42.667 42.667v42.667z"></path>
</symbol>
<symbol id="icon-fast-forward" viewBox="0 0 1024 1024">
	<title>fast-forward</title>
	<path class="path1" d="M170.667 768l362.667-256-362.667-256v512zM554.667 256v512l362.667-256-362.667-256z"></path>
</symbol>
<symbol id="icon-fast-rewind" viewBox="0 0 1024 1024">
	<title>fast-rewind</title>
	<path class="path1" d="M469.333 768v-512l-362.667 256 362.667 256zM490.667 512l362.667 256v-512l-362.667 256z"></path>
</symbol>
<symbol id="icon-high-quality" viewBox="0 0 1024 1024">
	<title>high-quality</title>
	<path class="path1" d="M810.667 170.667h-597.333c-47.147 0-85.333 38.187-85.333 85.333v512c0 47.147 38.187 85.333 85.333 85.333h597.333c47.147 0 85.333-38.187 85.333-85.333v-512c0-47.147-38.187-85.333-85.333-85.333zM469.333 640h-64v-85.333h-85.333v85.333h-64v-256h64v106.667h85.333v-106.667h64v256zM768 597.333c0 23.467-18.987 42.667-42.667 42.667h-32v64h-64v-64h-32c-23.68 0-42.667-19.2-42.667-42.667v-170.667c0-23.467 18.987-42.667 42.667-42.667h128c23.68 0 42.667 19.2 42.667 42.667v170.667zM618.667 576h85.333v-128h-85.333v128z"></path>
</symbol>
<symbol id="icon-pause" viewBox="0 0 1024 1024">
	<title>pause</title>
	<path class="path1" d="M256 810.667h170.667v-597.333h-170.667v597.333zM597.333 213.333v597.333h170.667v-597.333h-170.667z"></path>
</symbol>
<symbol id="icon-play" viewBox="0 0 1024 1024">
	<title>play</title>
	<path class="path1" d="M341.333 213.333v597.333l469.333-298.667z"></path>
</symbol>
<symbol id="icon-skip-next" viewBox="0 0 1024 1024">
	<title>skip-next</title>
	<path class="path1" d="M256 768l362.667-256-362.667-256v512zM682.667 256v512h85.333v-512h-85.333z"></path>
</symbol>
<symbol id="icon-skip-previous" viewBox="0 0 1024 1024">
	<title>skip-previous</title>
	<path class="path1" d="M256 256h85.333v512h-85.333zM405.333 512l362.667 256v-512z"></path>
</symbol>
<symbol id="icon-stop" viewBox="0 0 1024 1024">
	<title>stop</title>
	<path class="path1" d="M256 256h512v512h-512z"></path>
</symbol>
<symbol id="icon-video" viewBox="0 0 1024 1024">
	<title>video</title>
	<path class="path1" d="M725.333 448v-149.333c0-23.467-19.2-42.667-42.667-42.667h-512c-23.467 0-42.667 19.2-42.667 42.667v426.667c0 23.467 19.2 42.667 42.667 42.667h512c23.467 0 42.667-19.2 42.667-42.667v-149.333l170.667 170.667v-469.333l-170.667 170.667z"></path>
</symbol>
<symbol id="icon-volume-down" viewBox="0 0 1024 1024">
	<title>volume-down</title>
	<path class="path1" d="M789.333 512c0-75.52-43.52-140.373-106.667-171.947v343.467c63.147-31.147 106.667-96 106.667-171.52zM213.333 384v256h170.667l213.333 213.333v-682.667l-213.333 213.333h-170.667z"></path>
</symbol>
<symbol id="icon-volume-mute" viewBox="0 0 1024 1024">
	<title>volume-mute</title>
	<path class="path1" d="M298.667 384v256h170.667l213.333 213.333v-682.667l-213.333 213.333h-170.667z"></path>
</symbol>
<symbol id="icon-volume-off" viewBox="0 0 1024 1024">
	<title>volume-off</title>
	<path class="path1" d="M704 512c0-75.307-43.52-140.373-106.667-171.733v94.293l104.747 104.747c1.28-8.96 1.92-18.133 1.92-27.307zM810.667 512c0 40.107-8.747 77.867-23.040 112.64l64.64 64.64c27.733-53.12 43.733-113.28 43.733-177.28 0-182.613-127.787-335.36-298.667-374.187v88.107c123.307 36.693 213.333 150.827 213.333 286.080zM182.4 128l-54.4 54.4 201.6 201.6h-201.6v256h170.667l213.333 213.333v-286.933l181.547 181.547c-28.587 21.973-60.8 39.68-96.213 50.347v88.107c58.667-13.44 112.213-40.32 157.227-77.227l87.040 86.827 54.4-54.4-713.6-713.6zM512 170.667l-89.173 89.173 89.173 89.173v-178.347z"></path>
</symbol>
<symbol id="icon-volume-up" viewBox="0 0 1024 1024">
	<title>volume-up</title>
	<path class="path1" d="M128 384v256h170.667l213.333 213.333v-682.667l-213.333 213.333h-170.667zM704 512c0-75.52-43.52-140.373-106.667-171.947v343.467c63.147-31.147 106.667-96 106.667-171.52zM597.333 137.813v87.893c123.307 36.693 213.333 151.040 213.333 286.293s-90.027 249.6-213.333 286.293v87.893c171.093-38.827 298.667-191.573 298.667-374.187s-127.573-335.36-298.667-374.187z"></path>
</symbol>
<symbol id="icon-email" viewBox="0 0 1024 1024">
	<title>email</title>
	<path class="path1" d="M853.333 170.667h-682.667c-47.147 0-84.907 38.187-84.907 85.333l-0.427 512c0 47.147 38.187 85.333 85.333 85.333h682.667c47.147 0 85.333-38.187 85.333-85.333v-512c0-47.147-38.187-85.333-85.333-85.333zM853.333 341.333l-341.333 213.333-341.333-213.333v-85.333l341.333 213.333 341.333-213.333v85.333z"></path>
</symbol>
<symbol id="icon-comment" viewBox="0 0 1024 1024">
	<title>comment</title>
	<path class="path1" d="M853.333 85.333h-682.667c-47.147 0-85.333 38.187-85.333 85.333v768l170.667-170.667h597.333c47.147 0 85.333-38.187 85.333-85.333v-512c0-47.147-38.187-85.333-85.333-85.333z"></path>
</symbol>
<symbol id="icon-add" viewBox="0 0 1024 1024">
	<title>add</title>
	<path class="path1" d="M810.667 554.667h-256v256h-85.333v-256h-256v-85.333h256v-256h85.333v256h256v85.333z"></path>
</symbol>
<symbol id="icon-blocked" viewBox="0 0 1024 1024">
	<title>blocked</title>
	<path class="path1" d="M512 85.333c-235.733 0-426.667 190.933-426.667 426.667s190.933 426.667 426.667 426.667 426.667-190.933 426.667-426.667-190.933-426.667-426.667-426.667zM170.667 512c0-188.587 152.747-341.333 341.333-341.333 78.933 0 151.253 27.093 209.067 71.893l-478.507 478.507c-44.8-57.813-71.893-130.133-71.893-209.067zM512 853.333c-78.933 0-151.253-27.093-209.067-71.893l478.507-478.507c44.8 57.813 71.893 130.133 71.893 209.067 0 188.587-152.747 341.333-341.333 341.333z"></path>
</symbol>
<symbol id="icon-filter" viewBox="0 0 1024 1024">
	<title>filter</title>
	<path class="path1" d="M426.667 768h170.667v-85.333h-170.667v85.333zM128 256v85.333h768v-85.333h-768zM256 554.667h512v-85.333h-512v85.333z"></path>
</symbol>
<symbol id="icon-flag" viewBox="0 0 1024 1024">
	<title>flag</title>
	<path class="path1" d="M614.4 256l-17.067-85.333h-384v725.333h85.333v-298.667h238.933l17.067 85.333h298.667v-426.667z"></path>
</symbol>
<symbol id="icon-link" viewBox="0 0 1024 1024">
	<title>link</title>
	<path class="path1" d="M166.4 512c0-72.96 59.307-132.267 132.267-132.267h170.667v-81.067h-170.667c-117.76 0-213.333 95.573-213.333 213.333s95.573 213.333 213.333 213.333h170.667v-81.067h-170.667c-72.96 0-132.267-59.307-132.267-132.267zM341.333 554.667h341.333v-85.333h-341.333v85.333zM725.333 298.667h-170.667v81.067h170.667c72.96 0 132.267 59.307 132.267 132.267s-59.307 132.267-132.267 132.267h-170.667v81.067h170.667c117.76 0 213.333-95.573 213.333-213.333s-95.573-213.333-213.333-213.333z"></path>
</symbol>
<symbol id="icon-remove" viewBox="0 0 1024 1024">
	<title>remove</title>
	<path class="path1" d="M810.667 554.667h-597.333v-85.333h597.333v85.333z"></path>
</symbol>
<symbol id="icon-remove-circled" viewBox="0 0 1024 1024">
	<title>remove-circled</title>
	<path class="path1" d="M298.667 469.333v85.333h426.667v-85.333h-426.667zM512 85.333c-235.733 0-426.667 190.933-426.667 426.667s190.933 426.667 426.667 426.667 426.667-190.933 426.667-426.667-190.933-426.667-426.667-426.667zM512 853.333c-188.16 0-341.333-153.173-341.333-341.333s153.173-341.333 341.333-341.333 341.333 153.173 341.333 341.333-153.173 341.333-341.333 341.333z"></path>
</symbol>
<symbol id="icon-reply" viewBox="0 0 1024 1024">
	<title>reply</title>
	<path class="path1" d="M426.667 384v-170.667l-298.667 298.667 298.667 298.667v-174.933c213.333 0 362.667 68.267 469.333 217.6-42.667-213.333-170.667-426.667-469.333-469.333z"></path>
</symbol>
<symbol id="icon-undo" viewBox="0 0 1024 1024">
	<title>undo</title>
	<path class="path1" d="M533.333 341.333c-112.853 0-215.68 42.027-294.4 110.933l-153.6-153.6v384h384l-154.24-154.24c59.093-49.707 134.827-80.427 218.24-80.427 151.253 0 279.253 98.347 324.053 234.667l100.907-33.28c-58.667-178.773-226.56-308.053-424.96-308.053z"></path>
</symbol>
<symbol id="icon-clock" viewBox="0 0 1024 1024">
	<title>clock</title>
	<path class="path1" d="M511.787 85.333c-235.733 0-426.453 190.933-426.453 426.667s190.72 426.667 426.453 426.667c235.733 0 426.88-190.933 426.88-426.667s-191.147-426.667-426.88-426.667zM512 853.333c-188.587 0-341.333-152.747-341.333-341.333s152.747-341.333 341.333-341.333 341.333 152.747 341.333 341.333-152.747 341.333-341.333 341.333z"></path>
	<path class="path2" d="M533.333 298.667h-64v256l223.787 134.4 32.213-52.48-192-113.92z"></path>
</symbol>
<symbol id="icon-money" viewBox="0 0 1024 1024">
	<title>money</title>
	<path class="path1" d="M503.467 465.067c-96.853-25.173-128-50.987-128-91.52 0-46.507 42.88-79.147 115.2-79.147 75.947 0 104.107 36.267 106.667 89.6h94.293c-2.773-73.6-47.787-140.587-136.96-162.56v-93.44h-128v92.16c-82.773 18.133-149.333 71.467-149.333 154.027 0 98.56 81.707 147.627 200.533 176.213 106.88 25.6 128 62.933 128 103.040 0 29.227-20.693 76.16-115.2 76.16-87.893 0-122.667-39.467-127.147-89.6h-94.080c5.333 93.44 75.093 145.707 157.227 163.413v92.587h128v-91.733c82.987-16 149.333-64 149.333-151.68 0-120.747-103.68-162.133-200.533-187.52z"></path>
</symbol>
<symbol id="icon-table" viewBox="0 0 1024 1024">
	<title>table</title>
	<path class="path1" d="M128 128v768h768v-768h-768zM469.333 810.667h-256v-256h256v256zM469.333 469.333h-256v-256h256v256zM810.667 810.667h-256v-256h256v256zM810.667 469.333h-256v-256h256v256z"></path>
</symbol>
<symbol id="icon-quote" viewBox="0 0 1024 1024">
	<title>quote</title>
	<path class="path1" d="M256 725.333h128l85.333-170.667v-256h-256v256h128zM597.333 725.333h128l85.333-170.667v-256h-256v256h128z"></path>
</symbol>
<symbol id="icon-file" viewBox="0 0 1024 1024">
	<title>file</title>
	<path class="path1" d="M256 85.333c-47.147 0-84.907 38.187-84.907 85.333l-0.427 682.667c0 47.147 37.76 85.333 84.907 85.333h512.427c47.147 0 85.333-38.187 85.333-85.333v-512l-256-256h-341.333zM554.667 384v-234.667l234.667 234.667h-234.667z"></path>
</symbol>
<symbol id="icon-edit" viewBox="0 0 1024 1024">
	<title>edit</title>
	<path class="path1" d="M128 736v160h160l472.107-472.107-160-160-472.107 472.107zM883.413 300.587c16.64-16.64 16.64-43.733 0-60.373l-99.627-99.627c-16.64-16.64-43.733-16.64-60.373 0l-78.080 78.080 160 160 78.080-78.080z"></path>
</symbol>
<symbol id="icon-download" viewBox="0 0 1024 1024">
	<title>download</title>
	<path class="path1" d="M810.667 384h-170.667v-256h-256v256h-170.667l298.667 298.667 298.667-298.667zM213.333 768v85.333h597.333v-85.333h-597.333z"></path>
</symbol>
<symbol id="icon-upload" viewBox="0 0 1024 1024">
	<title>upload</title>
	<path class="path1" d="M384 682.667h256v-256h170.667l-298.667-298.667-298.667 298.667h170.667zM213.333 768h597.333v85.333h-597.333z"></path>
</symbol>
<symbol id="icon-caret-down" viewBox="0 0 1024 1024">
	<title>caret-down</title>
	<path class="path1" d="M316.373 350.293l195.627 195.627 195.627-195.627 60.373 60.373-256 256-256-256z"></path>
</symbol>
<symbol id="icon-caret-left" viewBox="0 0 1024 1024">
	<title>caret-left</title>
	<path class="path1" d="M657.707 696.96l-195.627-195.627 195.627-195.627-60.373-60.373-256 256 256 256z"></path>
</symbol>
<symbol id="icon-caret-right" viewBox="0 0 1024 1024">
	<title>caret-right</title>
	<path class="path1" d="M366.293 702.293l195.627-195.627-195.627-195.627 60.373-60.373 256 256-256 256z"></path>
</symbol>
<symbol id="icon-caret-up" viewBox="0 0 1024 1024">
	<title>caret-up</title>
	<path class="path1" d="M316.373 657.707l195.627-195.627 195.627 195.627 60.373-60.373-256-256-256 256z"></path>
</symbol>
<symbol id="icon-menu-horiz" viewBox="0 0 1024 1024">
	<title>menu-horiz</title>
	<path class="path1" d="M256 426.667c-47.147 0-85.333 38.187-85.333 85.333s38.187 85.333 85.333 85.333 85.333-38.187 85.333-85.333-38.187-85.333-85.333-85.333zM768 426.667c-47.147 0-85.333 38.187-85.333 85.333s38.187 85.333 85.333 85.333 85.333-38.187 85.333-85.333-38.187-85.333-85.333-85.333zM512 426.667c-47.147 0-85.333 38.187-85.333 85.333s38.187 85.333 85.333 85.333 85.333-38.187 85.333-85.333-38.187-85.333-85.333-85.333z"></path>
</symbol>
<symbol id="icon-camera" viewBox="0 0 1024 1024">
	<title>camera</title>
	<path class="path1" d="M648.533 512c0 75.405-61.128 136.533-136.533 136.533s-136.533-61.128-136.533-136.533c0-75.405 61.128-136.533 136.533-136.533s136.533 61.128 136.533 136.533z"></path>
	<path class="path2" d="M384 85.333l-78.080 85.333h-135.253c-47.147 0-85.333 38.187-85.333 85.333v512c0 47.147 38.187 85.333 85.333 85.333h682.667c47.147 0 85.333-38.187 85.333-85.333v-512c0-47.147-38.187-85.333-85.333-85.333h-135.253l-78.080-85.333h-256zM512 725.333c-117.76 0-213.333-95.573-213.333-213.333s95.573-213.333 213.333-213.333 213.333 95.573 213.333 213.333-95.573 213.333-213.333 213.333z"></path>
</symbol>
<symbol id="icon-menu-hamburger" viewBox="0 0 1024 1024">
	<title>menu-hamburger</title>
	<path class="path1" d="M85.333 661.333v85.333h853.333v-85.333h-853.333zM85.333 448v85.333h853.333v-85.333h-853.333zM85.333 234.667v85.333h853.333v-85.333h-853.333z"></path>
</symbol>
<symbol id="icon-eye" viewBox="0 0 1024 1024">
	<title>eye</title>
	<path class="path1" d="M512 192c-213.333 0-395.52 132.693-469.333 320 73.813 187.307 256 320 469.333 320s395.52-132.693 469.333-320c-73.813-187.307-255.787-320-469.333-320zM512 725.333c-117.76 0-213.333-95.573-213.333-213.333s95.573-213.333 213.333-213.333 213.333 95.573 213.333 213.333-95.573 213.333-213.333 213.333zM512 384c-70.613 0-128 57.387-128 128s57.387 128 128 128 128-57.387 128-128-57.387-128-128-128z"></path>
</symbol>
<symbol id="icon-book-alt" viewBox="0 0 1024 1024">
	<title>book-alt</title>
	<path class="path1" d="M512 492.587c-100.907-93.653-235.52-151.253-384-151.253v469.333c148.48 0 283.093 57.6 384 151.253 100.907-93.653 235.52-151.253 384-151.253v-469.333c-148.48 0-283.093 57.6-384 151.253zM512 341.333c70.613 0 128-57.387 128-128s-57.387-128-128-128-128 57.387-128 128 57.387 128 128 128z"></path>
</symbol>
<symbol id="icon-video-alt" viewBox="0 0 1024 1024">
	<title>video-alt</title>
	<path class="path1" d="M768 128v85.333h-85.333v-85.333h-341.333v85.333h-85.333v-85.333h-85.333v768h85.333v-85.333h85.333v85.333h341.333v-85.333h85.333v85.333h85.333v-768h-85.333zM341.333 725.333h-85.333v-85.333h85.333v85.333zM341.333 554.667h-85.333v-85.333h85.333v85.333zM341.333 384h-85.333v-85.333h85.333v85.333zM768 725.333h-85.333v-85.333h85.333v85.333zM768 554.667h-85.333v-85.333h85.333v85.333zM768 384h-85.333v-85.333h85.333v85.333z"></path>
</symbol>
<symbol id="icon-map" viewBox="0 0 1024 1024">
	<title>map</title>
	<path class="path1" d="M874.667 128c-2.347 0-4.48 0.213-6.613 1.067l-228.053 88.533-256-89.6-240.427 81.067c-8.96 2.987-15.573 10.667-15.573 20.48v645.12c0 11.733 9.6 21.333 21.333 21.333 2.347 0 4.48-0.213 6.613-1.067l228.053-88.533 256 89.6 240.64-80.853c8.96-3.2 15.36-10.88 15.36-20.693v-645.12c0-11.733-9.6-21.333-21.333-21.333zM640 810.667l-256-89.813v-507.52l256 89.813v507.52z"></path>
</symbol>
<symbol id="icon-pin" viewBox="0 0 1024 1024">
	<title>pin</title>
	<path class="path1" d="M768 341.333c0-141.44-114.56-256-256-256s-256 114.56-256 256c0 192 256 469.333 256 469.333s256-277.333 256-469.333zM426.667 341.333c0-47.147 38.187-85.333 85.333-85.333s85.333 38.187 85.333 85.333-38.187 85.333-85.333 85.333-85.333-38.187-85.333-85.333zM213.333 853.333v85.333h597.333v-85.333h-597.333z"></path>
</symbol>
<symbol id="icon-arrow-left" viewBox="0 0 1024 1024">
	<title>arrow-left</title>
	<path class="path1" d="M853.333 469.333h-519.253l238.293-238.293-60.373-60.373-341.333 341.333 341.333 341.333 60.373-60.373-238.293-238.293h519.253v-85.333z"></path>
</symbol>
<symbol id="icon-arrow-down" viewBox="0 0 1024 1024">
	<title>arrow-down</title>
	<path class="path1" d="M298.667 426.667l213.333 213.333 213.333-213.333z"></path>
</symbol>
<symbol id="icon-arrow-up" viewBox="0 0 1024 1024">
	<title>arrow-up</title>
	<path class="path1" d="M298.667 597.333l213.333-213.333 213.333 213.333z"></path>
</symbol>
<symbol id="icon-arrow-right" viewBox="0 0 1024 1024">
	<title>arrow-right</title>
	<path class="path1" d="M512 170.667l-60.373 60.373 238.293 238.293h-519.253v85.333h519.253l-238.293 238.293 60.373 60.373 341.333-341.333z"></path>
</symbol>
<symbol id="icon-close-remove-alt" viewBox="0 0 1024 1024">
	<title>close-remove-alt</title>
	<path class="path1" d="M512 85.333c-235.733 0-426.667 190.933-426.667 426.667s190.933 426.667 426.667 426.667 426.667-190.933 426.667-426.667-190.933-426.667-426.667-426.667zM725.333 664.96l-60.373 60.373-152.96-152.96-152.96 152.96-60.373-60.373 152.96-152.96-152.96-152.96 60.373-60.373 152.96 152.96 152.96-152.96 60.373 60.373-152.96 152.96 152.96 152.96z"></path>
</symbol>
<symbol id="icon-close" viewBox="0 0 1024 1024">
	<title>close</title>
	<path class="path1" d="M810.667 273.707l-60.373-60.373-238.293 238.293-238.293-238.293-60.373 60.373 238.293 238.293-238.293 238.293 60.373 60.373 238.293-238.293 238.293 238.293 60.373-60.373-238.293-238.293z"></path>
</symbol>
<symbol id="icon-fullscreen" viewBox="0 0 1024 1024">
	<title>fullscreen</title>
	<path class="path1" d="M298.667 597.333h-85.333v213.333h213.333v-85.333h-128v-128zM213.333 426.667h85.333v-128h128v-85.333h-213.333v213.333zM725.333 725.333h-128v85.333h213.333v-213.333h-85.333v128zM597.333 213.333v85.333h128v128h85.333v-213.333h-213.333z"></path>
</symbol>
<symbol id="icon-fullscreen-exit" viewBox="0 0 1024 1024">
	<title>fullscreen-exit</title>
	<path class="path1" d="M213.333 682.667h128v128h85.333v-213.333h-213.333v85.333zM341.333 341.333h-128v85.333h213.333v-213.333h-85.333v128zM597.333 810.667h85.333v-128h128v-85.333h-213.333v213.333zM682.667 341.333v-128h-85.333v213.333h213.333v-85.333h-128z"></path>
</symbol>
<symbol id="icon-calendar-alt" viewBox="0 0 1024 1024">
	<title>calendar-alt</title>
	<path class="path1" d="M725.333 426.667h-426.667v85.333h426.667v-85.333zM810.667 128h-42.667v-85.333h-85.333v85.333h-341.333v-85.333h-85.333v85.333h-42.667c-47.147 0-84.907 38.187-84.907 85.333l-0.427 597.333c0 47.147 38.187 85.333 85.333 85.333h597.333c47.147 0 85.333-38.187 85.333-85.333v-597.333c0-47.147-38.187-85.333-85.333-85.333zM810.667 810.667h-597.333v-469.333h597.333v469.333zM597.333 597.333h-298.667v85.333h298.667v-85.333z"></path>
</symbol>
<symbol id="icon-refresh" viewBox="0 0 1024 1024">
	<title>refresh</title>
	<path class="path1" d="M512 170.667v-128l-170.667 170.667 170.667 170.667v-128c141.44 0 256 114.56 256 256 0 43.307-10.88 83.84-29.653 119.68l62.293 62.293c33.067-52.907 52.693-114.987 52.693-181.973 0-188.587-152.747-341.333-341.333-341.333zM512 768c-141.44 0-256-114.56-256-256 0-43.307 10.88-83.84 29.653-119.68l-62.293-62.293c-33.067 52.907-52.693 114.987-52.693 181.973 0 188.587 152.747 341.333 341.333 341.333v128l170.667-170.667-170.667-170.667v128z"></path>
</symbol>
<symbol id="icon-notifications" viewBox="0 0 1024 1024">
	<title>notifications</title>
	<path class="path1" d="M280.747 152.747l-61.013-61.013c-102.187 77.867-169.6 198.187-176 334.933h85.333c6.613-113.067 64.853-212.053 151.68-273.92zM852.267 426.667h85.333c-6.4-136.747-73.813-257.067-176-334.933l-60.8 60.8c86.613 62.080 144.853 161.067 151.467 274.133zM768 448c0-131.2-91.093-240.64-213.333-269.653v-29.013c0-35.413-28.587-64-64-64s-64 28.587-64 64v29.013c-122.24 29.013-213.333 138.453-213.333 269.653v234.667l-85.333 85.333v42.667h725.333v-42.667l-85.333-85.333v-234.667zM490.667 938.667c5.973 0 11.733-0.64 17.28-1.707 27.733-5.76 50.56-24.96 61.44-50.347 4.267-10.24 6.613-21.333 6.613-33.28h-170.667c0 47.147 38.187 85.333 85.333 85.333z"></path>
</symbol>
<symbol id="icon-user" viewBox="0 0 1024 1024">
	<title>user</title>
	<path class="path1" d="M512 512c94.293 0 170.667-76.587 170.667-170.667 0-94.293-76.373-170.667-170.667-170.667s-170.667 76.373-170.667 170.667c0 94.080 76.373 170.667 170.667 170.667zM512 597.333c-113.707 0-341.333 56.96-341.333 170.667v85.333h682.667v-85.333c0-113.707-227.627-170.667-341.333-170.667z"></path>
</symbol>
<symbol id="icon-share" viewBox="0 0 1024 1024">
	<title>share</title>
	<path class="path1" d="M768 686.293c-32.427 0-61.653 12.587-83.84 32.853l-304-177.28c2.347-9.6 3.84-19.627 3.84-29.867s-1.493-20.267-3.84-29.867l300.8-175.573c22.827 21.333 53.333 34.56 87.040 34.56 70.613 0 128-57.387 128-128s-57.387-128-128-128-128 57.387-128 128c0 10.24 1.493 20.267 3.84 29.867l-300.8 175.573c-22.827-21.333-53.333-34.56-87.040-34.56-70.613 0-128 57.387-128 128s57.387 128 128 128c33.707 0 64.213-13.227 87.040-34.56l304 177.28c-2.133 8.96-3.413 18.347-3.413 27.947 0 68.693 55.68 124.373 124.373 124.373s124.373-55.68 124.373-124.373-55.68-124.373-124.373-124.373z"></path>
</symbol>
<symbol id="icon-checkbox-checked" viewBox="0 0 1024 1024">
	<title>checkbox-checked</title>
	<path class="path1" d="M810.667 128h-597.333c-47.36 0-85.333 38.4-85.333 85.333v597.333c0 46.933 37.973 85.333 85.333 85.333h597.333c47.36 0 85.333-38.4 85.333-85.333v-597.333c0-46.933-37.973-85.333-85.333-85.333zM426.667 725.333l-213.333-213.333 60.16-60.16 153.173 152.747 323.84-323.84 60.16 60.587-384 384z"></path>
</symbol>
<symbol id="icon-checkbox" viewBox="0 0 1024 1024">
	<title>checkbox</title>
	<path class="path1" d="M810.667 213.333v597.333h-597.333v-597.333h597.333zM810.667 128h-597.333c-46.933 0-85.333 38.4-85.333 85.333v597.333c0 46.933 38.4 85.333 85.333 85.333h597.333c46.933 0 85.333-38.4 85.333-85.333v-597.333c0-46.933-38.4-85.333-85.333-85.333z"></path>
</symbol>
<symbol id="icon-radio-button" viewBox="0 0 1024 1024">
	<title>radio-button</title>
	<path class="path1" d="M512 85.333c-235.52 0-426.667 191.147-426.667 426.667s191.147 426.667 426.667 426.667 426.667-191.147 426.667-426.667-191.147-426.667-426.667-426.667zM512 853.333c-188.587 0-341.333-152.747-341.333-341.333s152.747-341.333 341.333-341.333 341.333 152.747 341.333 341.333-152.747 341.333-341.333 341.333z"></path>
</symbol>
<symbol id="icon-radio-button-checked" viewBox="0 0 1024 1024">
	<title>radio-button-checked</title>
	<path class="path1" d="M512 298.667c-117.76 0-213.333 95.573-213.333 213.333s95.573 213.333 213.333 213.333 213.333-95.573 213.333-213.333-95.573-213.333-213.333-213.333zM512 85.333c-235.52 0-426.667 191.147-426.667 426.667s191.147 426.667 426.667 426.667 426.667-191.147 426.667-426.667-191.147-426.667-426.667-426.667zM512 853.333c-188.587 0-341.333-152.747-341.333-341.333s152.747-341.333 341.333-341.333 341.333 152.747 341.333 341.333-152.747 341.333-341.333 341.333z"></path>
</symbol>
<symbol id="icon-favorite" viewBox="0 0 1024 1024">
	<title>favorite</title>
	<path class="path1" d="M512 736.853l263.68 159.147-69.973-299.947 232.96-201.813-306.773-26.027-119.893-282.88-119.893 282.88-306.773 26.027 232.96 201.813-69.973 299.947z"></path>
</symbol>
</defs>
</svg>
