<svg display="none" width="0" height="0" version="1.1" xmlns="http://www.w3.org/2000/svg" xmlns:xlink="http://www.w3.org/1999/xlink">
<defs>
<symbol id="icon-account-user-square" viewBox="0 0 1024 1024">
	<title>account-user-square</title>
	<path class="path1" d="M128 213.333v597.333c0 47.147 38.187 85.333 85.333 85.333h597.333c47.147 0 85.333-38.187 85.333-85.333v-597.333c0-47.147-38.187-85.333-85.333-85.333h-597.333c-47.147 0-85.333 38.187-85.333 85.333zM640 384c0 70.827-57.387 128-128 128s-128-57.173-128-128c0-70.613 57.387-128 128-128s128 57.387 128 128zM256 725.333c0-85.333 170.667-132.267 256-132.267s256 46.933 256 132.267v42.667h-512v-42.667z"></path>
</symbol>
<symbol id="icon-account-user-circle" viewBox="0 0 1024 1024">
	<title>account-user-circle</title>
	<path class="path1" d="M512 85.333c-235.733 0-426.667 190.933-426.667 426.667s190.933 426.667 426.667 426.667 426.667-190.933 426.667-426.667-190.933-426.667-426.667-426.667zM512 213.333c70.613 0 128 57.387 128 128 0 70.827-57.387 128-128 128s-128-57.173-128-128c0-70.613 57.387-128 128-128zM512 819.2c-106.88 0-200.747-54.613-256-137.387 1.067-84.693 170.88-131.413 256-131.413s254.72 46.72 256 131.413c-55.253 82.773-149.12 137.387-256 137.387z"></path>
</symbol>
<symbol id="icon-alarm" viewBox="0 0 1024 1024">
	<title>alarm</title>
	<path class="path1" d="M938.667 244.053l-196.053-164.48-54.827 65.28 196.053 164.48 54.827-65.28zM336.213 144.64l-54.827-65.28-196.053 164.48 54.827 65.28 196.053-164.48zM533.333 341.333h-64v256l202.453 121.813 32.213-52.693-170.667-101.12v-224zM511.787 170.667c-212.267 0-383.787 171.947-383.787 384s171.52 384 383.787 384 384.213-171.947 384.213-384-171.947-384-384.213-384zM512 853.333c-164.907 0-298.667-133.76-298.667-298.667s133.76-298.667 298.667-298.667 298.667 133.76 298.667 298.667-133.547 298.667-298.667 298.667z"></path>
</symbol>
<symbol id="icon-assignment" viewBox="0 0 1024 1024">
	<title>assignment</title>
	<path class="path1" d="M810.667 128h-178.56c-17.493-49.493-64.427-85.333-120.107-85.333s-102.613 35.84-120.107 85.333h-178.56c-47.147 0-85.333 38.187-85.333 85.333v597.333c0 47.147 38.187 85.333 85.333 85.333h597.333c47.147 0 85.333-38.187 85.333-85.333v-597.333c0-47.147-38.187-85.333-85.333-85.333zM512 128c23.467 0 42.667 18.987 42.667 42.667s-19.2 42.667-42.667 42.667-42.667-18.987-42.667-42.667 19.2-42.667 42.667-42.667zM597.333 725.333h-298.667v-85.333h298.667v85.333zM725.333 554.667h-426.667v-85.333h426.667v85.333zM725.333 384h-426.667v-85.333h426.667v85.333z"></path>
</symbol>
<symbol id="icon-bookmark-dark" viewBox="0 0 1024 1024">
	<title>bookmark-dark</title>
	<path class="path1" d="M725.333 128h-426.667c-47.147 0-84.907 38.187-84.907 85.333l-0.427 682.667 298.667-128 298.667 128v-682.667c0-47.147-38.187-85.333-85.333-85.333z"></path>
</symbol>
<symbol id="icon-bookmark-light" viewBox="0 0 1024 1024">
	<title>bookmark-light</title>
	<path class="path1" d="M725.333 128h-426.667c-47.147 0-84.907 38.187-84.907 85.333l-0.427 682.667 298.667-128 298.667 128v-682.667c0-47.147-38.187-85.333-85.333-85.333zM725.333 768l-213.333-92.8-213.333 92.8v-554.667h426.667v554.667z"></path>
</symbol>
<symbol id="icon-credit-card" viewBox="0 0 1024 1024">
	<title>credit-card</title>
	<path class="path1" d="M853.333 170.667h-682.667c-47.147 0-84.907 38.187-84.907 85.333l-0.427 512c0 47.147 38.187 85.333 85.333 85.333h682.667c47.147 0 85.333-38.187 85.333-85.333v-512c0-47.147-38.187-85.333-85.333-85.333zM853.333 768h-682.667v-256h682.667v256zM853.333 341.333h-682.667v-85.333h682.667v85.333z"></path>
</symbol>
<symbol id="icon-delete" viewBox="0 0 1024 1024">
	<title>delete</title>
	<path class="path1" d="M256 810.667c0 47.147 38.187 85.333 85.333 85.333h341.333c47.147 0 85.333-38.187 85.333-85.333v-512h-512v512zM810.667 170.667h-149.333l-42.667-42.667h-213.333l-42.667 42.667h-149.333v85.333h597.333v-85.333z"></path>
</symbol>
<symbol id="icon-page" viewBox="0 0 1024 1024">
	<title>page</title>
	<path class="path1" d="M597.333 85.333h-341.333c-47.147 0-84.907 38.187-84.907 85.333l-0.427 682.667c0 47.147 37.76 85.333 84.907 85.333h512.427c47.147 0 85.333-38.187 85.333-85.333v-512l-256-256zM682.667 768h-341.333v-85.333h341.333v85.333zM682.667 597.333h-341.333v-85.333h341.333v85.333zM554.667 384v-234.667l234.667 234.667h-234.667z"></path>
</symbol>
<symbol id="icon-favorite-dark" viewBox="0 0 1024 1024">
	<title>favorite-dark</title>
	<path class="path1" d="M512 910.933l-61.867-56.107c-219.733-199.467-364.8-331.093-364.8-492.16 0-131.627 103.040-234.667 234.667-234.667 74.24 0 145.493 34.56 192 88.96 46.507-54.4 117.76-88.96 192-88.96 131.627 0 234.667 103.040 234.667 234.667 0 161.067-145.067 292.693-364.8 492.16l-61.867 56.107z"></path>
</symbol>
<symbol id="icon-favorite-light" viewBox="0 0 1024 1024">
	<title>favorite-light</title>
	<path class="path1" d="M704 128c-74.24 0-145.493 34.56-192 88.96-46.507-54.4-117.76-88.96-192-88.96-131.627 0-234.667 103.040-234.667 234.667 0 161.067 145.067 292.693 364.8 492.16l61.867 56.107 61.867-56.107c219.733-199.467 364.8-331.093 364.8-492.16 0-131.627-103.040-234.667-234.667-234.667zM516.48 791.68l-4.48 4.053-4.48-4.053c-202.88-184.107-336.853-305.707-336.853-429.013 0-85.12 64.213-149.333 149.333-149.333 65.707 0 129.707 42.453 152.107 100.693h79.573c22.613-58.24 86.613-100.693 152.32-100.693 85.12 0 149.333 64.213 149.333 149.333 0 123.307-133.973 244.907-336.853 429.013z"></path>
</symbol>
<symbol id="icon-help" viewBox="0 0 1024 1024">
	<title>help</title>
	<path class="path1" d="M512 85.333c-235.733 0-426.667 190.933-426.667 426.667s190.933 426.667 426.667 426.667 426.667-190.933 426.667-426.667-190.933-426.667-426.667-426.667zM554.667 810.667h-85.333v-85.333h85.333v85.333zM642.773 480.213l-38.187 39.253c-30.72 30.72-49.92 56.533-49.92 120.533h-85.333v-21.333c0-47.147 19.2-89.813 49.92-120.747l53.12-53.76c15.36-15.36 24.96-36.693 24.96-60.16 0-47.147-38.187-85.333-85.333-85.333s-85.333 38.187-85.333 85.333h-85.333c0-94.293 76.373-170.667 170.667-170.667s170.667 76.373 170.667 170.667c0 37.547-15.147 71.467-39.893 96.213z"></path>
</symbol>
<symbol id="icon-close-circle-light" viewBox="0 0 1024 1024">
	<title>close-circle-light</title>
	<path class="path1" d="M622.293 341.333l-110.293 110.293-110.293-110.293-60.373 60.373 110.293 110.293-110.293 110.293 60.373 60.373 110.293-110.293 110.293 110.293 60.373-60.373-110.293-110.293 110.293-110.293-60.373-60.373zM512 85.333c-235.733 0-426.667 190.933-426.667 426.667s190.933 426.667 426.667 426.667 426.667-190.933 426.667-426.667-190.933-426.667-426.667-426.667zM512 853.333c-188.16 0-341.333-153.173-341.333-341.333s153.173-341.333 341.333-341.333 341.333 153.173 341.333 341.333-153.173 341.333-341.333 341.333z"></path>
</symbol>
<symbol id="icon-home" viewBox="0 0 1024 1024">
	<title>home</title>
	<path class="path1" d="M426.667 853.333v-256h170.667v256h213.333v-341.333h128l-426.667-384-426.667 384h128v341.333z"></path>
</symbol>
<symbol id="icon-new-window" viewBox="0 0 1024 1024">
	<title>new-window</title>
	<path class="path1" d="M810.667 810.667h-597.333v-597.333h298.667v-85.333h-298.667c-47.147 0-85.333 38.187-85.333 85.333v597.333c0 47.147 38.187 85.333 85.333 85.333h597.333c47.147 0 85.333-38.187 85.333-85.333v-298.667h-85.333v298.667zM597.333 128v85.333h152.96l-419.413 419.413 60.373 60.373 419.413-419.413v152.96h85.333v-298.667h-298.667z"></path>
</symbol>
<symbol id="icon-lock-unlocked" viewBox="0 0 1024 1024">
	<title>lock-unlocked</title>
	<path class="path1" d="M512 725.333c47.147 0 85.333-38.187 85.333-85.333s-38.187-85.333-85.333-85.333-85.333 38.187-85.333 85.333 38.187 85.333 85.333 85.333zM768 341.333h-42.667v-85.333c0-117.76-95.573-213.333-213.333-213.333s-213.333 95.573-213.333 213.333h81.067c0-72.96 59.307-132.267 132.267-132.267s132.267 59.307 132.267 132.267v85.333h-388.267c-47.147 0-85.333 38.187-85.333 85.333v426.667c0 47.147 38.187 85.333 85.333 85.333h512c47.147 0 85.333-38.187 85.333-85.333v-426.667c0-47.147-38.187-85.333-85.333-85.333zM768 853.333h-512v-426.667h512v426.667z"></path>
</symbol>
<symbol id="icon-lock-locked" viewBox="0 0 1024 1024">
	<title>lock-locked</title>
	<path class="path1" d="M768 341.333h-42.667v-85.333c0-117.76-95.573-213.333-213.333-213.333s-213.333 95.573-213.333 213.333v85.333h-42.667c-47.147 0-85.333 38.187-85.333 85.333v426.667c0 47.147 38.187 85.333 85.333 85.333h512c47.147 0 85.333-38.187 85.333-85.333v-426.667c0-47.147-38.187-85.333-85.333-85.333zM512 123.733c72.96 0 132.267 59.307 132.267 132.267v85.333h-260.267v-85.333h-4.267c0-72.96 59.307-132.267 132.267-132.267zM768 853.333h-512v-426.667h512v426.667zM512 725.333c47.147 0 85.333-38.187 85.333-85.333s-38.187-85.333-85.333-85.333-85.333 38.187-85.333 85.333 38.187 85.333 85.333 85.333z"></path>
</symbol>
<symbol id="icon-comment-multiple" viewBox="0 0 1024 1024">
	<title>comment-multiple</title>
	<path class="path1" d="M896 256h-85.333v384h-554.667v85.333c0 23.467 19.2 42.667 42.667 42.667h469.333l170.667 170.667v-640c0-23.467-19.2-42.667-42.667-42.667zM725.333 512v-384c0-23.467-19.2-42.667-42.667-42.667h-554.667c-23.467 0-42.667 19.2-42.667 42.667v597.333l170.667-170.667h426.667c23.467 0 42.667-19.2 42.667-42.667z"></path>
</symbol>
<symbol id="icon-clock" viewBox="0 0 1024 1024">
	<title>clock</title>
	<path class="path1" d="M511.787 85.333c-235.733 0-426.453 190.933-426.453 426.667s190.72 426.667 426.453 426.667c235.733 0 426.88-190.933 426.88-426.667s-191.147-426.667-426.88-426.667zM512 853.333c-188.587 0-341.333-152.747-341.333-341.333s152.747-341.333 341.333-341.333 341.333 152.747 341.333 341.333-152.747 341.333-341.333 341.333z"></path>
	<path class="path2" d="M533.333 298.667h-64v256l223.787 134.4 32.213-52.48-192-113.92z"></path>
</symbol>
<symbol id="icon-search" viewBox="0 0 1024 1024">
	<title>search</title>
	<path class="path1" d="M661.333 597.333h-33.92l-11.733-11.733c41.813-48.427 66.987-111.36 66.987-180.267 0-153.173-124.16-277.333-277.333-277.333s-277.333 124.16-277.333 277.333 124.16 277.333 277.333 277.333c68.907 0 131.84-25.173 180.267-66.773l11.733 11.733v33.707l213.333 212.907 63.573-63.573-212.907-213.333zM405.333 597.333c-106.027 0-192-85.973-192-192s85.973-192 192-192 192 85.973 192 192-85.973 192-192 192z"></path>
</symbol>
<symbol id="icon-settings" viewBox="0 0 1024 1024">
	<title>settings</title>
	<path class="path1" d="M829.013 553.6c1.707-13.653 2.987-27.52 2.987-41.6s-1.28-27.947-2.987-41.6l90.24-70.613c8.107-6.4 10.453-17.92 5.12-27.307l-85.333-147.84c-5.333-9.173-16.427-13.013-26.027-9.173l-106.24 42.88c-21.973-16.853-46.080-31.147-72.107-42.027l-16-113.067c-1.92-10.027-10.667-17.92-21.333-17.92h-170.667c-10.667 0-19.413 7.893-21.12 17.92l-16 113.067c-26.027 10.88-50.133 24.96-72.107 42.027l-106.24-42.88c-9.6-3.627-20.693 0-26.027 9.173l-85.333 147.84c-5.333 9.173-2.987 20.693 5.12 27.307l90.027 70.613c-1.707 13.653-2.987 27.52-2.987 41.6s1.28 27.947 2.987 41.6l-90.027 70.613c-8.107 6.4-10.453 17.92-5.12 27.307l85.333 147.84c5.333 9.173 16.427 13.013 26.027 9.173l106.24-42.88c21.973 16.853 46.080 31.147 72.107 42.027l16 113.067c1.707 10.027 10.453 17.92 21.12 17.92h170.667c10.667 0 19.413-7.893 21.12-17.92l16-113.067c26.027-10.88 50.133-24.96 72.107-42.027l106.24 42.88c9.6 3.627 20.693 0 26.027-9.173l85.333-147.84c5.333-9.173 2.987-20.693-5.12-27.307l-90.027-70.613zM512 661.333c-82.56 0-149.333-66.773-149.333-149.333s66.773-149.333 149.333-149.333 149.333 66.773 149.333 149.333-66.773 149.333-149.333 149.333z"></path>
</symbol>
<symbol id="icon-shopping-cart" viewBox="0 0 1024 1024">
	<title>shopping-cart</title>
	<path class="path1" d="M298.667 768c-47.147 0-84.907 38.187-84.907 85.333s37.76 85.333 84.907 85.333 85.333-38.187 85.333-85.333-38.187-85.333-85.333-85.333zM42.667 85.333v85.333h85.333l153.387 323.627-57.6 104.533c-6.613 12.373-10.453 26.24-10.453 41.173 0 47.147 38.187 85.333 85.333 85.333h512v-85.333h-493.867c-5.973 0-10.667-4.693-10.667-10.667 0-1.92 0.427-3.627 1.28-5.12l38.187-69.547h317.867c32 0 59.947-17.707 74.667-43.947l152.533-276.907c3.413-5.973 5.333-13.013 5.333-20.48 0-23.68-19.2-42.667-42.667-42.667h-630.827l-40.533-85.333h-139.307zM725.333 768c-47.147 0-84.907 38.187-84.907 85.333s37.76 85.333 84.907 85.333 85.333-38.187 85.333-85.333-38.187-85.333-85.333-85.333z"></path>
</symbol>
<symbol id="icon-video" viewBox="0 0 1024 1024">
	<title>video</title>
	<path class="path1" d="M768 128v85.333h-85.333v-85.333h-341.333v85.333h-85.333v-85.333h-85.333v768h85.333v-85.333h85.333v85.333h341.333v-85.333h85.333v85.333h85.333v-768h-85.333zM341.333 725.333h-85.333v-85.333h85.333v85.333zM341.333 554.667h-85.333v-85.333h85.333v85.333zM341.333 384h-85.333v-85.333h85.333v85.333zM768 725.333h-85.333v-85.333h85.333v85.333zM768 554.667h-85.333v-85.333h85.333v85.333zM768 384h-85.333v-85.333h85.333v85.333z"></path>
</symbol>
<symbol id="icon-alert-error" viewBox="0 0 1024 1024">
	<title>alert-error</title>
	<path class="path1" d="M512 85.333c-235.52 0-426.667 190.933-426.667 426.667s191.147 426.667 426.667 426.667 426.667-190.933 426.667-426.667-191.147-426.667-426.667-426.667zM554.667 725.333h-85.333v-85.333h85.333v85.333zM554.667 554.667h-85.333v-256h85.333v256z"></path>
</symbol>
<symbol id="icon-alert-warning" viewBox="0 0 1024 1024">
	<title>alert-warning</title>
	<path class="path1" d="M42.667 896h938.667l-469.333-810.667-469.333 810.667zM554.667 768h-85.333v-85.333h85.333v85.333zM554.667 597.333h-85.333v-170.667h85.333v170.667z"></path>
</symbol>
<symbol id="icon-closed-caption" viewBox="0 0 1024 1024">
	<title>closed-caption</title>
	<path class="path1" d="M810.667 170.667h-597.333c-47.147 0-85.333 38.187-85.333 85.333v512c0 47.147 38.187 85.333 85.333 85.333h597.333c47.147 0 85.333-38.187 85.333-85.333v-512c0-47.147-38.187-85.333-85.333-85.333zM469.333 469.333h-64v-21.333h-85.333v128h85.333v-21.333h64v42.667c0 23.467-18.987 42.667-42.667 42.667h-128c-23.68 0-42.667-19.2-42.667-42.667v-170.667c0-23.467 18.987-42.667 42.667-42.667h128c23.68 0 42.667 19.2 42.667 42.667v42.667zM768 469.333h-64v-21.333h-85.333v128h85.333v-21.333h64v42.667c0 23.467-18.987 42.667-42.667 42.667h-128c-23.68 0-42.667-19.2-42.667-42.667v-170.667c0-23.467 18.987-42.667 42.667-42.667h128c23.68 0 42.667 19.2 42.667 42.667v42.667z"></path>
</symbol>
<symbol id="icon-fast-forward" viewBox="0 0 1024 1024">
	<title>fast-forward</title>
	<path class="path1" d="M170.667 768l362.667-256-362.667-256v512zM554.667 256v512l362.667-256-362.667-256z"></path>
</symbol>
<symbol id="icon-fast-rewind" viewBox="0 0 1024 1024">
	<title>fast-rewind</title>
	<path class="path1" d="M469.333 768v-512l-362.667 256 362.667 256zM490.667 512l362.667 256v-512l-362.667 256z"></path>
</symbol>
<symbol id="icon-hd" viewBox="0 0 1024 1024">
	<title>hd</title>
	<path class="path1" d="M810.667 170.667h-597.333c-47.147 0-85.333 38.187-85.333 85.333v512c0 47.147 38.187 85.333 85.333 85.333h597.333c47.147 0 85.333-38.187 85.333-85.333v-512c0-47.147-38.187-85.333-85.333-85.333zM469.333 640h-64v-85.333h-85.333v85.333h-64v-256h64v106.667h85.333v-106.667h64v256zM768 597.333c0 23.467-18.987 42.667-42.667 42.667h-32v64h-64v-64h-32c-23.68 0-42.667-19.2-42.667-42.667v-170.667c0-23.467 18.987-42.667 42.667-42.667h128c23.68 0 42.667 19.2 42.667 42.667v170.667zM618.667 576h85.333v-128h-85.333v128z"></path>
</symbol>
<symbol id="icon-pause" viewBox="0 0 1024 1024">
	<title>pause</title>
	<path class="path1" d="M256 810.667h170.667v-597.333h-170.667v597.333zM597.333 213.333v597.333h170.667v-597.333h-170.667z"></path>
</symbol>
<symbol id="icon-play" viewBox="0 0 1024 1024">
	<title>play</title>
	<path class="path1" d="M341.333 213.333v597.333l469.333-298.667z"></path>
</symbol>
<symbol id="icon-skip-next" viewBox="0 0 1024 1024">
	<title>skip-next</title>
	<path class="path1" d="M256 768l362.667-256-362.667-256v512zM682.667 256v512h85.333v-512h-85.333z"></path>
</symbol>
<symbol id="icon-skip-previous" viewBox="0 0 1024 1024">
	<title>skip-previous</title>
	<path class="path1" d="M256 256h85.333v512h-85.333zM405.333 512l362.667 256v-512z"></path>
</symbol>
<symbol id="icon-stop" viewBox="0 0 1024 1024">
	<title>stop</title>
	<path class="path1" d="M256 256h512v512h-512z"></path>
</symbol>
<symbol id="icon-comment-single-left" viewBox="0 0 1024 1024">
	<title>comment-single-left</title>
	<path class="path1" d="M853.333 85.333h-682.667c-47.147 0-85.333 38.187-85.333 85.333v768l170.667-170.667h597.333c47.147 0 85.333-38.187 85.333-85.333v-512c0-47.147-38.187-85.333-85.333-85.333z"></path>
</symbol>
<symbol id="icon-add" viewBox="0 0 1024 1024">
	<title>add</title>
	<path class="path1" d="M810.667 554.667h-256v256h-85.333v-256h-256v-85.333h256v-256h85.333v256h256v85.333z"></path>
</symbol>
<symbol id="icon-add-square-dark" viewBox="0 0 1024 1024">
	<title>add-square-dark</title>
	<path class="path1" d="M810.667 128h-597.333c-47.147 0-85.333 38.187-85.333 85.333v597.333c0 47.147 38.187 85.333 85.333 85.333h597.333c47.147 0 85.333-38.187 85.333-85.333v-597.333c0-47.147-38.187-85.333-85.333-85.333zM725.333 554.667h-170.667v170.667h-85.333v-170.667h-170.667v-85.333h170.667v-170.667h85.333v170.667h170.667v85.333z"></path>
</symbol>
<symbol id="icon-add-circle-dark" viewBox="0 0 1024 1024">
	<title>add-circle-dark</title>
	<path class="path1" d="M512 85.333c-235.733 0-426.667 190.933-426.667 426.667s190.933 426.667 426.667 426.667 426.667-190.933 426.667-426.667-190.933-426.667-426.667-426.667zM725.333 554.667h-170.667v170.667h-85.333v-170.667h-170.667v-85.333h170.667v-170.667h85.333v170.667h170.667v85.333z"></path>
</symbol>
<symbol id="icon-add-circle-light" viewBox="0 0 1024 1024">
	<title>add-circle-light</title>
	<path class="path1" d="M554.667 298.667h-85.333v170.667h-170.667v85.333h170.667v170.667h85.333v-170.667h170.667v-85.333h-170.667v-170.667zM512 85.333c-235.733 0-426.667 190.933-426.667 426.667s190.933 426.667 426.667 426.667 426.667-190.933 426.667-426.667-190.933-426.667-426.667-426.667zM512 853.333c-188.16 0-341.333-153.173-341.333-341.333s153.173-341.333 341.333-341.333 341.333 153.173 341.333 341.333-153.173 341.333-341.333 341.333z"></path>
</symbol>
<symbol id="icon-copy" viewBox="0 0 1024 1024">
	<title>copy</title>
	<path class="path1" d="M682.667 42.667h-512c-47.147 0-85.333 38.187-85.333 85.333v597.333h85.333v-597.333h512v-85.333zM810.667 213.333h-469.333c-47.147 0-85.333 38.187-85.333 85.333v597.333c0 47.147 38.187 85.333 85.333 85.333h469.333c47.147 0 85.333-38.187 85.333-85.333v-597.333c0-47.147-38.187-85.333-85.333-85.333zM810.667 896h-469.333v-597.333h469.333v597.333z"></path>
</symbol>
<symbol id="icon-paste" viewBox="0 0 1024 1024">
	<title>paste</title>
	<path class="path1" d="M810.667 85.333h-178.56c-17.493-49.493-64.427-85.333-120.107-85.333s-102.613 35.84-120.107 85.333h-178.56c-47.147 0-85.333 38.187-85.333 85.333v682.667c0 47.147 38.187 85.333 85.333 85.333h597.333c47.147 0 85.333-38.187 85.333-85.333v-682.667c0-47.147-38.187-85.333-85.333-85.333zM512 85.333c23.467 0 42.667 18.987 42.667 42.667s-19.2 42.667-42.667 42.667-42.667-18.987-42.667-42.667 19.2-42.667 42.667-42.667zM810.667 853.333h-597.333v-682.667h85.333v128h426.667v-128h85.333v682.667z"></path>
</symbol>
<symbol id="icon-create" viewBox="0 0 1024 1024">
	<title>create</title>
	<path class="path1" d="M128 736v160h160l472.107-472.107-160-160-472.107 472.107zM883.413 300.587c16.64-16.64 16.64-43.733 0-60.373l-99.627-99.627c-16.64-16.64-43.733-16.64-60.373 0l-78.080 78.080 160 160 78.080-78.080z"></path>
</symbol>
<symbol id="icon-mail-open" viewBox="0 0 1024 1024">
	<title>mail-open</title>
	<path class="path1" d="M938.24 341.333c0-30.72-16-57.387-40.107-72.533l-386.133-226.133-386.133 226.133c-24.107 15.147-40.533 41.813-40.533 72.533v426.667c0 47.147 38.187 85.333 85.333 85.333h682.667c47.147 0 85.333-38.187 85.333-85.333l-0.427-426.667zM512 554.667l-352.427-220.373 352.427-206.293 352.427 206.293-352.427 220.373z"></path>
</symbol>
<symbol id="icon-flag" viewBox="0 0 1024 1024">
	<title>flag</title>
	<path class="path1" d="M614.4 256l-17.067-85.333h-384v725.333h85.333v-298.667h238.933l17.067 85.333h298.667v-426.667z"></path>
</symbol>
<symbol id="icon-mail-closed" viewBox="0 0 1024 1024">
	<title>mail-closed</title>
	<path class="path1" d="M853.333 170.667h-682.667c-47.147 0-84.907 38.187-84.907 85.333l-0.427 512c0 47.147 38.187 85.333 85.333 85.333h682.667c47.147 0 85.333-38.187 85.333-85.333v-512c0-47.147-38.187-85.333-85.333-85.333zM853.333 341.333l-341.333 213.333-341.333-213.333v-85.333l341.333 213.333 341.333-213.333v85.333z"></path>
</symbol>
<symbol id="icon-remove-dark" viewBox="0 0 1024 1024">
	<title>remove-dark</title>
	<path class="path1" d="M512 85.333c-235.733 0-426.667 190.933-426.667 426.667s190.933 426.667 426.667 426.667 426.667-190.933 426.667-426.667-190.933-426.667-426.667-426.667zM725.333 554.667h-426.667v-85.333h426.667v85.333z"></path>
</symbol>
<symbol id="icon-remove-light" viewBox="0 0 1024 1024">
	<title>remove-light</title>
	<path class="path1" d="M298.667 469.333v85.333h426.667v-85.333h-426.667zM512 85.333c-235.733 0-426.667 190.933-426.667 426.667s190.933 426.667 426.667 426.667 426.667-190.933 426.667-426.667-190.933-426.667-426.667-426.667zM512 853.333c-188.16 0-341.333-153.173-341.333-341.333s153.173-341.333 341.333-341.333 341.333 153.173 341.333 341.333-153.173 341.333-341.333 341.333z"></path>
</symbol>
<symbol id="icon-attachment" viewBox="0 0 1024 1024">
	<title>attachment</title>
	<path class="path1" d="M704 256v490.667c0 94.293-76.373 170.667-170.667 170.667s-170.667-76.373-170.667-170.667v-533.333c0-58.88 47.787-106.667 106.667-106.667s106.667 47.787 106.667 106.667v448c0 23.467-18.987 42.667-42.667 42.667s-42.667-19.2-42.667-42.667v-405.333h-64v405.333c0 58.88 47.787 106.667 106.667 106.667s106.667-47.787 106.667-106.667v-448c0-94.293-76.373-170.667-170.667-170.667s-170.667 76.373-170.667 170.667v533.333c0 129.707 105.173 234.667 234.667 234.667s234.667-104.96 234.667-234.667v-490.667h-64z"></path>
</symbol>
<symbol id="icon-quotes" viewBox="0 0 1024 1024">
	<title>quotes</title>
	<path class="path1" d="M256 725.333h128l85.333-170.667v-256h-256v256h128zM597.333 725.333h128l85.333-170.667v-256h-256v256h128z"></path>
</symbol>
<symbol id="icon-comment-single-right" viewBox="0 0 1024 1024">
	<title>comment-single-right</title>
	<path class="path1" d="M938.24 170.667c0-47.147-37.76-85.333-84.907-85.333h-682.667c-47.147 0-85.333 38.187-85.333 85.333v512c0 47.147 38.187 85.333 85.333 85.333h597.333l170.667 170.667-0.427-768z"></path>
</symbol>
<symbol id="icon-download" viewBox="0 0 1024 1024">
	<title>download</title>
	<path class="path1" d="M810.667 384h-170.667v-256h-256v256h-170.667l298.667 298.667 298.667-298.667zM213.333 768v85.333h597.333v-85.333h-597.333z"></path>
</symbol>
<symbol id="icon-upload" viewBox="0 0 1024 1024">
	<title>upload</title>
	<path class="path1" d="M384 682.667h256v-256h170.667l-298.667-298.667-298.667 298.667h170.667zM213.333 768h597.333v85.333h-597.333z"></path>
</symbol>
<symbol id="icon-privacy" viewBox="0 0 1024 1024">
	<title>privacy</title>
	<path class="path1" d="M512 192c-213.333 0-395.52 132.693-469.333 320 73.813 187.307 256 320 469.333 320s395.52-132.693 469.333-320c-73.813-187.307-255.787-320-469.333-320zM512 725.333c-117.76 0-213.333-95.573-213.333-213.333s95.573-213.333 213.333-213.333 213.333 95.573 213.333 213.333-95.573 213.333-213.333 213.333zM512 384c-70.613 0-128 57.387-128 128s57.387 128 128 128 128-57.387 128-128-57.387-128-128-128z"></path>
</symbol>
<symbol id="icon-location" viewBox="0 0 1024 1024">
	<title>location</title>
	<path class="path1" d="M512 85.333c-164.907 0-298.667 133.76-298.667 298.667 0 224 298.667 554.667 298.667 554.667s298.667-330.667 298.667-554.667c0-164.907-133.76-298.667-298.667-298.667zM512 490.667c-58.88 0-106.667-47.787-106.667-106.667s47.787-106.667 106.667-106.667 106.667 47.787 106.667 106.667-47.787 106.667-106.667 106.667z"></path>
</symbol>
<symbol id="icon-mobile-menu" viewBox="0 0 1024 1024">
	<title>mobile-menu</title>
	<path class="path1" d="M170.667 341.333h170.667v-170.667h-170.667v170.667zM426.667 853.333h170.667v-170.667h-170.667v170.667zM170.667 853.333h170.667v-170.667h-170.667v170.667zM170.667 597.333h170.667v-170.667h-170.667v170.667zM426.667 597.333h170.667v-170.667h-170.667v170.667zM682.667 170.667v170.667h170.667v-170.667h-170.667zM426.667 341.333h170.667v-170.667h-170.667v170.667zM682.667 597.333h170.667v-170.667h-170.667v170.667zM682.667 853.333h170.667v-170.667h-170.667v170.667z"></path>
</symbol>
<symbol id="icon-arrow-left" viewBox="0 0 1024 1024">
	<title>arrow-left</title>
	<path class="path1" d="M853.333 469.333h-519.253l238.293-238.293-60.373-60.373-341.333 341.333 341.333 341.333 60.373-60.373-238.293-238.293h519.253v-85.333z"></path>
</symbol>
<symbol id="icon-caret-down" viewBox="0 0 1024 1024">
	<title>caret-down</title>
	<path class="path1" d="M298.667 426.667l213.333 213.333 213.333-213.333z"></path>
</symbol>
<symbol id="icon-caret-up" viewBox="0 0 1024 1024">
	<title>caret-up</title>
	<path class="path1" d="M298.667 597.333l213.333-213.333 213.333 213.333z"></path>
</symbol>
<symbol id="icon-arrow-right" viewBox="0 0 1024 1024">
	<title>arrow-right</title>
	<path class="path1" d="M512 170.667l-60.373 60.373 238.293 238.293h-519.253v85.333h519.253l-238.293 238.293 60.373 60.373 341.333-341.333z"></path>
</symbol>
<symbol id="icon-close-circle-dark" viewBox="0 0 1024 1024">
	<title>close-circle-dark</title>
	<path class="path1" d="M512 85.333c-235.733 0-426.667 190.933-426.667 426.667s190.933 426.667 426.667 426.667 426.667-190.933 426.667-426.667-190.933-426.667-426.667-426.667zM725.333 664.96l-60.373 60.373-152.96-152.96-152.96 152.96-60.373-60.373 152.96-152.96-152.96-152.96 60.373-60.373 152.96 152.96 152.96-152.96 60.373 60.373-152.96 152.96 152.96 152.96z"></path>
</symbol>
<symbol id="icon-check" viewBox="0 0 1024 1024">
	<title>check</title>
	<path class="path1" d="M384 689.92l-177.92-177.92-60.373 60.373 238.293 238.293 512-512-60.373-60.373z"></path>
</symbol>
<symbol id="icon-chevron-left" viewBox="0 0 1024 1024">
	<title>chevron-left</title>
	<path class="path1" d="M657.707 316.373l-60.373-60.373-256 256 256 256 60.373-60.373-195.627-195.627z"></path>
</symbol>
<symbol id="icon-chevron-right" viewBox="0 0 1024 1024">
	<title>chevron-right</title>
	<path class="path1" d="M426.667 256l-60.373 60.373 195.627 195.627-195.627 195.627 60.373 60.373 256-256z"></path>
</symbol>
<symbol id="icon-close" viewBox="0 0 1024 1024">
	<title>close</title>
	<path class="path1" d="M810.667 273.707l-60.373-60.373-238.293 238.293-238.293-238.293-60.373 60.373 238.293 238.293-238.293 238.293 60.373 60.373 238.293-238.293 238.293 238.293 60.373-60.373-238.293-238.293z"></path>
</symbol>
<symbol id="icon-chevron-up" viewBox="0 0 1024 1024">
	<title>chevron-up</title>
	<path class="path1" d="M512 341.333l-256 256 60.373 60.373 195.627-195.627 195.627 195.627 60.373-60.373z"></path>
</symbol>
<symbol id="icon-chevron-down" viewBox="0 0 1024 1024">
	<title>chevron-down</title>
	<path class="path1" d="M707.627 366.293l-195.627 195.627-195.627-195.627-60.373 60.373 256 256 256-256z"></path>
</symbol>
<symbol id="icon-fullscreen-enter" viewBox="0 0 1024 1024">
	<title>fullscreen-enter</title>
	<path class="path1" d="M298.667 597.333h-85.333v213.333h213.333v-85.333h-128v-128zM213.333 426.667h85.333v-128h128v-85.333h-213.333v213.333zM725.333 725.333h-128v85.333h213.333v-213.333h-85.333v128zM597.333 213.333v85.333h128v128h85.333v-213.333h-213.333z"></path>
</symbol>
<symbol id="icon-fullscreen-exit" viewBox="0 0 1024 1024">
	<title>fullscreen-exit</title>
	<path class="path1" d="M213.333 682.667h128v128h85.333v-213.333h-213.333v85.333zM341.333 341.333h-128v85.333h213.333v-213.333h-85.333v128zM597.333 810.667h85.333v-128h128v-85.333h-213.333v213.333zM682.667 341.333v-128h-85.333v213.333h213.333v-85.333h-128z"></path>
</symbol>
<symbol id="icon-menu" viewBox="0 0 1024 1024">
	<title>menu</title>
	<path class="path1" d="M128 768h768v-85.333h-768v85.333zM128 554.667h768v-85.333h-768v85.333zM128 256v85.333h768v-85.333h-768z"></path>
</symbol>
<symbol id="icon-menu-dots-horizontal" viewBox="0 0 1024 1024">
	<title>menu-dots-horizontal</title>
	<path class="path1" d="M256 426.667c-47.147 0-85.333 38.187-85.333 85.333s38.187 85.333 85.333 85.333 85.333-38.187 85.333-85.333-38.187-85.333-85.333-85.333zM768 426.667c-47.147 0-85.333 38.187-85.333 85.333s38.187 85.333 85.333 85.333 85.333-38.187 85.333-85.333-38.187-85.333-85.333-85.333zM512 426.667c-47.147 0-85.333 38.187-85.333 85.333s38.187 85.333 85.333 85.333 85.333-38.187 85.333-85.333-38.187-85.333-85.333-85.333z"></path>
</symbol>
<symbol id="icon-menu-dots-vertical" viewBox="0 0 1024 1024">
	<title>menu-dots-vertical</title>
	<path class="path1" d="M512 341.333c47.147 0 85.333-38.187 85.333-85.333s-38.187-85.333-85.333-85.333-85.333 38.187-85.333 85.333 38.187 85.333 85.333 85.333zM512 426.667c-47.147 0-85.333 38.187-85.333 85.333s38.187 85.333 85.333 85.333 85.333-38.187 85.333-85.333-38.187-85.333-85.333-85.333zM512 682.667c-47.147 0-85.333 38.187-85.333 85.333s38.187 85.333 85.333 85.333 85.333-38.187 85.333-85.333-38.187-85.333-85.333-85.333z"></path>
</symbol>
<symbol id="icon-refresh" viewBox="0 0 1024 1024">
	<title>refresh</title>
	<path class="path1" d="M753.067 270.933c-61.653-61.867-146.773-100.267-241.067-100.267-188.587 0-340.907 152.747-340.907 341.333s152.32 341.333 340.907 341.333c158.933 0 292.053-108.8 329.813-256h-88.747c-35.2 99.413-129.493 170.667-241.067 170.667-141.44 0-256-114.56-256-256s114.56-256 256-256c70.613 0 133.973 29.44 180.267 75.733l-137.6 137.6h298.667v-298.667l-100.267 100.267z"></path>
</symbol>
<symbol id="icon-collapse" viewBox="0 0 1024 1024">
	<title>collapse</title>
	<path class="path1" d="M316.373 792.96l60.373 60.373 135.253-135.253 135.253 135.253 60.373-60.373-195.627-195.627-195.627 195.627zM707.627 231.040l-60.373-60.373-135.253 135.253-135.253-135.253-60.373 60.373 195.627 195.627 195.627-195.627z"></path>
</symbol>
<symbol id="icon-expand" viewBox="0 0 1024 1024">
	<title>expand</title>
	<path class="path1" d="M512 248.747l135.253 135.253 60.373-60.373-195.627-195.627-195.627 195.627 60.373 60.373 135.253-135.253zM512 775.253l-135.253-135.253-60.373 60.373 195.627 195.627 195.627-195.627-60.373-60.373-135.253 135.253z"></path>
</symbol>
<symbol id="icon-blocked" viewBox="0 0 1024 1024">
	<title>blocked</title>
	<path class="path1" d="M512 85.333c-234.667 0-426.667 192-426.667 426.667s192 426.667 426.667 426.667 426.667-192 426.667-426.667-192-426.667-426.667-426.667zM170.667 512c0-187.733 153.6-341.333 341.333-341.333 78.933 0 151.467 27.733 209.067 72.533l-477.867 477.867c-44.8-57.6-72.533-130.133-72.533-209.067zM512 853.333c-78.933 0-151.467-27.733-209.067-72.533l477.867-477.867c44.8 57.6 72.533 130.133 72.533 209.067 0 187.733-153.6 341.333-341.333 341.333z"></path>
</symbol>
<symbol id="icon-notifications-dark" viewBox="0 0 1024 1024">
	<title>notifications-dark</title>
	<path class="path1" d="M490.667 938.667c47.147 0 85.333-38.187 85.333-85.333h-170.667c0 47.147 38.187 85.333 85.333 85.333zM768 682.667v-234.667c0-131.2-91.093-240.64-213.333-269.653v-29.013c0-35.413-28.587-64-64-64s-64 28.587-64 64v29.013c-122.24 29.013-213.333 138.453-213.333 269.653v234.667l-85.333 85.333v42.667h725.333v-42.667l-85.333-85.333z"></path>
</symbol>
<symbol id="icon-notifications-light" viewBox="0 0 1024 1024">
	<title>notifications-light</title>
	<path class="path1" d="M490.667 938.667c47.147 0 85.333-38.187 85.333-85.333h-170.667c0 47.147 38.187 85.333 85.333 85.333zM768 682.667v-234.667c0-131.2-91.093-240.64-213.333-269.653v-29.013c0-35.413-28.587-64-64-64s-64 28.587-64 64v29.013c-122.24 29.013-213.333 138.453-213.333 269.653v234.667l-85.333 85.333v42.667h725.333v-42.667l-85.333-85.333zM682.667 725.333h-384v-277.333c0-106.027 85.973-192 192-192s192 85.973 192 192v277.333z"></path>
</symbol>
<symbol id="icon-users" viewBox="0 0 1024 1024">
	<title>users</title>
	<path class="path1" d="M682.667 469.333c70.613 0 127.573-57.387 127.573-128s-56.96-128-127.573-128c-70.613 0-128 57.387-128 128s57.387 128 128 128zM341.333 469.333c70.613 0 127.573-57.387 127.573-128s-56.96-128-127.573-128c-70.613 0-128 57.387-128 128s57.387 128 128 128zM341.333 554.667c-99.627 0-298.667 49.92-298.667 149.333v106.667h597.333v-106.667c0-99.413-199.040-149.333-298.667-149.333zM682.667 554.667c-12.373 0-26.24 0.853-41.173 2.347 49.493 35.627 83.84 83.627 83.84 146.987v106.667h256v-106.667c0-99.413-199.040-149.333-298.667-149.333z"></path>
</symbol>
<symbol id="icon-user" viewBox="0 0 1024 1024">
	<title>user</title>
	<path class="path1" d="M512 512c94.293 0 170.667-76.587 170.667-170.667 0-94.293-76.373-170.667-170.667-170.667s-170.667 76.373-170.667 170.667c0 94.080 76.373 170.667 170.667 170.667zM512 597.333c-113.707 0-341.333 56.96-341.333 170.667v85.333h682.667v-85.333c0-113.707-227.627-170.667-341.333-170.667z"></path>
</symbol>
<symbol id="icon-user-add" viewBox="0 0 1024 1024">
	<title>user-add</title>
	<path class="path1" d="M640 512c94.293 0 170.667-76.587 170.667-170.667 0-94.293-76.373-170.667-170.667-170.667s-170.667 76.373-170.667 170.667c0 94.080 76.373 170.667 170.667 170.667zM256 426.667v-128h-85.333v128h-128v85.333h128v128h85.333v-128h128v-85.333h-128zM640 597.333c-113.707 0-341.333 56.96-341.333 170.667v85.333h682.667v-85.333c0-113.707-227.627-170.667-341.333-170.667z"></path>
</symbol>
<symbol id="icon-share" viewBox="0 0 1024 1024">
	<title>share</title>
	<path class="path1" d="M768 686.293c-32.427 0-61.653 12.587-83.84 32.853l-304-177.28c2.347-9.6 3.84-19.627 3.84-29.867s-1.493-20.267-3.84-29.867l300.8-175.573c22.827 21.333 53.333 34.56 87.040 34.56 70.613 0 128-57.387 128-128s-57.387-128-128-128-128 57.387-128 128c0 10.24 1.493 20.267 3.84 29.867l-300.8 175.573c-22.827-21.333-53.333-34.56-87.040-34.56-70.613 0-128 57.387-128 128s57.387 128 128 128c33.707 0 64.213-13.227 87.040-34.56l304 177.28c-2.133 8.96-3.413 18.347-3.413 27.947 0 68.693 55.68 124.373 124.373 124.373s124.373-55.68 124.373-124.373-55.68-124.373-124.373-124.373z"></path>
</symbol>
<symbol id="icon-checkbox-checked" viewBox="0 0 1024 1024">
	<title>checkbox-checked</title>
	<path class="path1" d="M810.667 128h-597.333c-47.36 0-85.333 38.4-85.333 85.333v597.333c0 46.933 37.973 85.333 85.333 85.333h597.333c47.36 0 85.333-38.4 85.333-85.333v-597.333c0-46.933-37.973-85.333-85.333-85.333zM426.667 725.333l-213.333-213.333 60.16-60.16 153.173 152.747 323.84-323.84 60.16 60.587-384 384z"></path>
</symbol>
<symbol id="icon-checkbox" viewBox="0 0 1024 1024">
	<title>checkbox</title>
	<path class="path1" d="M810.667 213.333v597.333h-597.333v-597.333h597.333zM810.667 128h-597.333c-46.933 0-85.333 38.4-85.333 85.333v597.333c0 46.933 38.4 85.333 85.333 85.333h597.333c46.933 0 85.333-38.4 85.333-85.333v-597.333c0-46.933-38.4-85.333-85.333-85.333z"></path>
</symbol>
<symbol id="icon-radio" viewBox="0 0 1024 1024">
	<title>radio</title>
	<path class="path1" d="M512 85.333c-235.52 0-426.667 191.147-426.667 426.667s191.147 426.667 426.667 426.667 426.667-191.147 426.667-426.667-191.147-426.667-426.667-426.667zM512 853.333c-188.587 0-341.333-152.747-341.333-341.333s152.747-341.333 341.333-341.333 341.333 152.747 341.333 341.333-152.747 341.333-341.333 341.333z"></path>
</symbol>
<symbol id="icon-radio-checked" viewBox="0 0 1024 1024">
	<title>radio-checked</title>
	<path class="path1" d="M512 298.667c-117.76 0-213.333 95.573-213.333 213.333s95.573 213.333 213.333 213.333 213.333-95.573 213.333-213.333-95.573-213.333-213.333-213.333zM512 85.333c-235.52 0-426.667 191.147-426.667 426.667s191.147 426.667 426.667 426.667 426.667-191.147 426.667-426.667-191.147-426.667-426.667-426.667zM512 853.333c-188.587 0-341.333-152.747-341.333-341.333s152.747-341.333 341.333-341.333 341.333 152.747 341.333 341.333-152.747 341.333-341.333 341.333z"></path>
</symbol>
<symbol id="icon-star-full" viewBox="0 0 1024 1024">
	<title>star-full</title>
	<path class="path1" d="M512 736.853l263.68 159.147-69.973-299.947 232.96-201.813-306.773-26.027-119.893-282.88-119.893 282.88-306.773 26.027 232.96 201.813-69.973 299.947z"></path>
</symbol>
<symbol id="icon-dark-half" viewBox="0 0 1024 1024">
	<title>dark-half</title>
	<path class="path1" d="M938.667 415.573l-306.773-26.453-119.893-282.453-119.893 282.88-306.773 26.027 232.96 201.813-69.973 299.947 263.68-159.147 263.68 159.147-69.547-299.947 232.533-201.813zM512 678.4v-396.8l72.96 172.373 186.88 16.213-141.653 122.88 42.667 182.613-160.853-97.28z"></path>
</symbol>
<symbol id="icon-star-none" viewBox="0 0 1024 1024">
	<title>star-none</title>
	<path class="path1" d="M938.667 394.24l-306.773-26.453-119.893-282.453-119.893 282.88-306.773 26.027 232.96 201.813-69.973 299.947 263.68-159.147 263.68 159.147-69.547-299.947 232.533-201.813zM512 657.067l-160.427 96.853 42.667-182.613-141.653-122.88 186.88-16.213 72.533-171.947 72.96 172.373 186.88 16.213-141.653 122.88 42.667 182.613-160.853-97.28z"></path>
</symbol>
</defs>
</svg>
